<svg width="48" height="48" viewBox="0 0 48 48" xmlns="http://www.w3.org/2000/svg"><g fill="none" fill-rule="evenodd"><path d="M12.715 30.529a1.42 1.42 0 0 1 .004 2.036c-.571.564-1.5.566-2.074.005l-8.213-8.03a1.422 1.422 0 0 1 0-2.04l8.213-8.03a1.486 1.486 0 0 1 2.074.005c.572.564.57 1.476-.004 2.037l-7.17 7.008 7.17 7.009zm22.57-14.017a1.422 1.422 0 0 1-.004-2.037 1.486 1.486 0 0 1 2.074-.004l8.213 8.029a1.422 1.422 0 0 1 0 2.04l-8.213 8.03a1.486 1.486 0 0 1-2.074-.005 1.422 1.422 0 0 1 .004-2.036l7.17-7.009-7.17-7.008z" fill="#00676D"/><path d="M28.745 1.06A1.47 1.47 0 0 1 30.547.052a1.437 1.437 0 0 1 1.028 1.769l-12.32 44.16a1.47 1.47 0 0 1-1.802 1.008 1.437 1.437 0 0 1-1.028-1.77l12.32-44.16z" fill="#9CD7D1"/></g></svg>