<svg width="48" height="48" viewBox="0 0 48 48" xmlns="http://www.w3.org/2000/svg"><g fill="none" fill-rule="evenodd"><path d="M20.56 31.44a1.5 1.5 0 0 1-2.12 2.12l-6-6a1.5 1.5 0 0 1 0-2.12l6-6a1.5 1.5 0 0 1 2.12 2.12l-4.939 4.94 4.94 4.94zm5.88-9.88a1.5 1.5 0 0 1 2.12-2.12l6 6a1.5 1.5 0 0 1 0 2.12l-6 6a1.5 1.5 0 0 1-2.12-2.12l4.939-4.94-4.94-4.94z" fill="#00676D"/><path d="M25.697 3.064H6.769c-1.698 0-3.077 1.144-3.077 2.553v36.766c0 1.409 1.38 2.553 3.077 2.553h34.462c1.698 0 3.077-1.144 3.077-2.553V18.507L25.697 3.064zM41.23 48H6.769C3.032 48 0 45.484 0 42.383V5.617C0 2.516 3.032 0 6.77 0h19.692c.49 0 .959.161 1.305.449l19.692 16.34c.346.287.541.677.541 1.083v24.511C48 45.484 44.968 48 41.23 48z" fill="#6CC6B9"/></g></svg>