<svg width="48" height="48" viewBox="0 0 48 48" xmlns="http://www.w3.org/2000/svg"><g fill="none" fill-rule="evenodd"><path d="M15.273 12.273H46.5a1.5 1.5 0 110 3H15.273V46.5a1.5 1.5 0 01-3 0v-45a1.5 1.5 0 113 0v10.773z" fill="#00676D"/><path d="M42.41 45A2.592 2.592 0 0045 42.41V5.59A2.592 2.592 0 0042.41 3H5.59A2.592 2.592 0 003 5.59v36.82A2.592 2.592 0 005.59 45h36.82zm0 3H5.59A5.592 5.592 0 010 42.41V5.59A5.592 5.592 0 015.59 0h36.82A5.592 5.592 0 0148 5.59v36.82A5.592 5.592 0 0142.41 48z" fill="#9CD7D1"/></g></svg>