<?xml version="1.0" encoding="UTF-8"?>
<svg width="48px" height="48px" viewBox="0 0 48 48" version="1.1" xmlns="http://www.w3.org/2000/svg" xmlns:xlink="http://www.w3.org/1999/xlink">
    <!-- Generator: Sketch 54.1 (76490) - https://sketchapp.com -->
    <title>icons / feature-4</title>
    <desc>Created with Sketch.</desc>
    <g id="icons-/-feature-4" stroke="none" stroke-width="1" fill="none" fill-rule="evenodd">
        <g id="Group" transform="translate(2.000000, 0.000000)">
            <path d="M10.7148379,30.529013 C11.2888479,31.0901468 11.2908623,32.0019023 10.7193372,32.5654758 C10.147812,33.1290493 9.2191722,33.1310271 8.64516214,32.5698933 L0.431828808,24.5408024 C-0.143942936,23.9779464 -0.143942936,23.0627781 0.431828808,22.4999221 L8.64516214,14.4708312 C9.2191722,13.9096974 10.147812,13.9116752 10.7193372,14.4752487 C11.2908623,15.0388222 11.2888479,15.9505776 10.7148379,16.5117114 L3.54536054,23.5203622 L10.7148379,30.529013 Z M33.2851621,16.5117114 C32.7111521,15.9505776 32.7091377,15.0388222 33.2806628,14.4752487 C33.852188,13.9116752 34.7808278,13.9096974 35.3548379,14.4708312 L43.5681712,22.4999221 C44.1439429,23.0627781 44.1439429,23.9779464 43.5681712,24.5408024 L35.3548379,32.5698933 C34.7808278,33.1310271 33.852188,33.1290493 33.2806628,32.5654758 C32.7091377,32.0019023 32.7111521,31.0901468 33.2851621,30.529013 L40.4546395,23.5203622 L33.2851621,16.5117114 Z" id="Combined-Shape" fill="#00676D"></path>
            <path d="M26.7454397,1.05994057 C26.9594316,0.292904864 27.7662264,-0.158579855 28.5474665,0.0515212313 C29.3287066,0.261622317 29.7885521,1.0537482 29.5745603,1.82078391 L17.2545603,45.9807839 C17.0405684,46.7478196 16.2337736,47.1993043 15.4525335,46.9892033 C14.6712934,46.7791022 14.2114479,45.9869763 14.4254397,45.2199406 L26.7454397,1.05994057 Z" id="Stroke" fill="#9CD7D1"></path>
        </g>
    </g>
</svg>