<?xml version="1.0" encoding="UTF-8"?>
<svg width="48px" height="48px" viewBox="0 0 48 48" version="1.1" xmlns="http://www.w3.org/2000/svg" xmlns:xlink="http://www.w3.org/1999/xlink">
    <!-- Generator: Sketch 54.1 (76490) - https://sketchapp.com -->
    <title>icons / feature-1-standard</title>
    <desc>Created with Sketch.</desc>
    <g id="icons-/-feature-1-standard" stroke="none" stroke-width="1" fill="none" fill-rule="evenodd">
        <path d="M20.5606602,31.4393398 C21.1464466,32.0251263 21.1464466,32.9748737 20.5606602,33.5606602 C19.9748737,34.1464466 19.0251263,34.1464466 18.4393398,33.5606602 L12.4393398,27.5606602 C11.8535534,26.9748737 11.8535534,26.0251263 12.4393398,25.4393398 L18.4393398,19.4393398 C19.0251263,18.8535534 19.9748737,18.8535534 20.5606602,19.4393398 C21.1464466,20.0251263 21.1464466,20.9748737 20.5606602,21.5606602 L15.6213203,26.5 L20.5606602,31.4393398 Z M26.4393398,21.5606602 C25.8535534,20.9748737 25.8535534,20.0251263 26.4393398,19.4393398 C27.0251263,18.8535534 27.9748737,18.8535534 28.5606602,19.4393398 L34.5606602,25.4393398 C35.1464466,26.0251263 35.1464466,26.9748737 34.5606602,27.5606602 L28.5606602,33.5606602 C27.9748737,34.1464466 27.0251263,34.1464466 26.4393398,33.5606602 C25.8535534,32.9748737 25.8535534,32.0251263 26.4393398,31.4393398 L31.3786797,26.5 L26.4393398,21.5606602 Z" id="Combined-Shape" fill="#00676D"></path>
        <path d="M25.6968365,3.06382979 L6.76923077,3.06382979 C5.07129492,3.06382979 3.69230769,4.20809579 3.69230769,5.61702128 L3.69230769,42.3829787 C3.69230769,43.7919042 5.07129492,44.9361702 6.76923077,44.9361702 L41.2307692,44.9361702 C42.9287051,44.9361702 44.3076923,43.7919042 44.3076923,42.3829787 L44.3076923,18.5068804 L25.6968365,3.06382979 Z M41.2307692,48 L6.76923077,48 C3.03208969,48 0,45.4840107 0,42.3829787 L0,5.61702128 C0,2.51598932 3.03208969,0 6.76923077,0 L26.4615385,0 C26.9511689,0 27.4207454,0.161397713 27.7669664,0.448687484 L47.4592741,16.789113 C47.8054951,17.0764028 48,17.4660513 48,17.8723404 L48,42.3829787 C48,45.4840107 44.9679103,48 41.2307692,48 Z" id="Stroke" fill="#6CC6B9"></path>
    </g>
</svg>