<svg width="483" height="512" viewBox="0 0 483 512" fill="none" xmlns="http://www.w3.org/2000/svg">
<path d="M0 291.748V169.051L83.4675 102.277L209.503 142.341V266.708L140.225 340.159L0 291.748Z" fill="#00676D"/>
<path d="M0 292.58V169.049L140.225 211.618V340.157L0 292.58Z" fill="white" fill-opacity="0.22"/>
<path d="M140.223 213.286V336.817L209.5 266.705V143.174L140.223 213.286Z" fill="black" fill-opacity="0.28"/>
<path fill-rule="evenodd" clip-rule="evenodd" d="M273.478 143.51V266.207L413.703 314.618L482.98 241.166V116.8L356.945 76.7363L273.478 143.51ZM187.875 340.891V463.588L328.099 511.999L397.378 438.547V314.181L271.341 274.117L187.875 340.891Z" fill="#68B7AB"/>
<path d="M187.875 464.424V340.892L328.099 383.46V512L187.875 464.424Z" fill="white" fill-opacity="0.22"/>
<path d="M328.096 385.128V508.66L397.373 438.548V315.016L328.096 385.128Z" fill="#6EC5B8"/>
<path d="M273.477 267.039V143.508L413.702 186.075V314.615L273.477 267.039Z" fill="white" fill-opacity="0.22"/>
<path d="M413.699 187.745V311.277L482.978 241.165V117.633L413.699 187.745Z" fill="#6EC5B8"/>
<path d="M202.939 330.237V251.078L256.789 207.999L338.102 233.847V314.083L293.406 361.471L202.939 330.237Z" fill="#17B582"/>
<path d="M202.938 330.777V251.08L293.405 278.543V361.471L202.938 330.777Z" fill="white" fill-opacity="0.22"/>
<path d="M293.402 279.62V359.318L338.097 314.084V234.386L293.402 279.62Z" fill="black" fill-opacity="0.06"/>
<path d="M329.795 122.239V43.0797L383.646 0L464.959 25.8483V106.084L420.263 153.472L329.795 122.239Z" fill="#68B7AB"/>
<path d="M329.795 122.777V43.0787L420.263 70.5424V153.471L329.795 122.777Z" fill="white" fill-opacity="0.22"/>
<path d="M420.26 71.6214V151.318L464.955 106.084V26.3875L420.26 71.6214Z" fill="#6EC5B8"/>
</svg>
