<svg width="120" height="120" viewBox="0 0 120 120" fill="none" xmlns="http://www.w3.org/2000/svg">
<g filter="url(#filter0_d)">
<circle cx="60" cy="60" r="40" fill="url(#paint0_linear)"/>
</g>
<path d="M48.9596 67.5357L40.1756 60.1917L48.9596 52.8957C49.5836 52.3677 49.6796 51.4557 49.1516 50.8317C48.8636 50.4957 48.4316 50.3037 47.9996 50.3037C47.6636 50.3037 47.3276 50.3997 47.0396 50.6397L36.9596 59.0877C36.6236 59.3757 36.4316 59.7597 36.4316 60.2397C36.4316 60.7197 36.6236 61.1037 36.9596 61.3917L47.0876 69.8397C47.3756 70.0797 47.6636 70.1757 48.0476 70.1757C48.4796 70.1757 48.9116 69.9837 49.1996 69.6477C49.6796 68.9757 49.5836 68.0637 48.9596 67.5357Z" fill="white"/>
<path d="M83.4244 60.768C83.4244 60.336 83.2324 59.904 82.8964 59.616L72.7204 51.168C72.4324 50.928 72.0964 50.832 71.7604 50.832C71.3284 50.832 70.8964 51.024 70.6084 51.36C70.0804 51.984 70.1764 52.896 70.8004 53.424L79.5844 60.768L70.8484 68.112C70.2244 68.64 70.1284 69.552 70.6564 70.176C70.9444 70.512 71.3284 70.704 71.8084 70.704C72.1444 70.704 72.4804 70.56 72.7684 70.368L82.8964 61.92C83.2324 61.632 83.4244 61.2 83.4244 60.768Z" fill="white"/>
<path d="M65.0397 42.2404C64.8957 42.1924 64.7517 42.1924 64.6077 42.1924C63.9837 42.1924 63.4077 42.5764 63.2157 43.2484L52.5117 77.5204C52.2717 78.2884 52.7037 79.1044 53.4717 79.3444C53.6157 79.3924 53.7597 79.3924 53.9037 79.3924C54.5757 79.3924 55.1037 78.9604 55.2957 78.3364L65.9517 44.0164C66.2397 43.2964 65.8077 42.4804 65.0397 42.2404Z" fill="white"/>
<circle opacity="0.6" cx="60" cy="60" r="59.5" stroke="#6EC5B8" stroke-dasharray="4 8"/>
<defs>
<filter id="filter0_d" x="12" y="14" width="96" height="96" filterUnits="userSpaceOnUse" color-interpolation-filters="sRGB">
<feFlood flood-opacity="0" result="BackgroundImageFix"/>
<feColorMatrix in="SourceAlpha" type="matrix" values="0 0 0 0 0 0 0 0 0 0 0 0 0 0 0 0 0 0 127 0"/>
<feOffset dy="2"/>
<feGaussianBlur stdDeviation="4"/>
<feColorMatrix type="matrix" values="0 0 0 0 0 0 0 0 0 0 0 0 0 0 0 0 0 0 0.06 0"/>
<feBlend mode="normal" in2="BackgroundImageFix" result="effect1_dropShadow"/>
<feBlend mode="normal" in="SourceGraphic" in2="effect1_dropShadow" result="shape"/>
</filter>
<linearGradient id="paint0_linear" x1="20" y1="20" x2="20" y2="100" gradientUnits="userSpaceOnUse">
<stop stop-color="#17B582"/>
<stop offset="1" stop-color="#3C9D7E"/>
</linearGradient>
</defs>
</svg>
