<svg width="71" height="50" viewBox="0 0 71 50" fill="none" xmlns="http://www.w3.org/2000/svg">
<path d="M15.9678 18.0962C13.7678 18.0962 11.6756 18.5571 9.77715 19.3806C12.4287 13.4696 16.5287 8.46806 21.3006 5.87119C22.8162 5.04619 23.3771 3.14931 22.5521 1.63213C21.7271 0.1165 19.8303 -0.444438 18.3131 0.380562C7.90059 6.04619 0.342773 20.0681 0.342773 33.7212C0.342773 42.3368 7.35215 49.3462 15.9678 49.3462C24.5834 49.3462 31.5928 42.3368 31.5928 33.7212C31.5928 25.1056 24.585 18.0962 15.9678 18.0962Z" fill="white" fill-opacity="0.1"/>
<path d="M55.0322 18.0962C52.8338 18.0962 50.7416 18.5571 48.84 19.3821C51.4916 13.4696 55.5916 8.46803 60.365 5.87116C61.8807 5.04616 62.4416 3.14928 61.6166 1.63209C60.7932 0.118032 58.8963 -0.442906 57.3775 0.380531C46.965 6.04616 39.4072 20.068 39.4072 33.7212C39.4072 42.3368 46.4166 49.3462 55.0322 49.3462C63.6479 49.3462 70.6572 42.3368 70.6572 33.7212C70.6572 25.1055 63.6479 18.0962 55.0322 18.0962Z" fill="white" fill-opacity="0.1"/>
</svg>
