<svg width="640" height="640" viewBox="0 0 640 640" fill="none" xmlns="http://www.w3.org/2000/svg">
<path d="M113.698 206.521L88.5834 185.239C87.9964 184.742 87.0584 184.974 86.8084 185.677C86.6714 186.063 86.7884 186.488 87.1084 186.762L112.08 208.193C112.594 208.634 113.397 208.575 113.832 208.065C114.229 207.598 114.171 206.921 113.698 206.521Z" fill="#040404"/>
<path fill-rule="evenodd" clip-rule="evenodd" d="M197.612 151.263C185.323 153.296 182.274 109.471 182.274 109.471C214.948 91.4867 216.646 100.711 222.375 131.825C222.52 132.614 222.668 133.416 222.819 134.233L231.283 150.497L213.396 155.937L210.315 146.817C206.548 148.786 202.206 150.502 197.612 151.263ZM118.367 220.431L105.521 215.112C105.521 215.112 89.2757 195.244 85.1197 188.517C78.6797 178.094 113.077 208.01 113.077 208.01C113.077 208.01 111.188 197.726 113.077 196.319C114.261 195.436 120.256 209.428 120.256 209.428L125.923 215.112L123.656 222.559L118.367 220.431ZM198.414 551.205L196.147 529.22H210.126L208.237 551.205H198.414ZM256.596 515.39L261.885 539.858H272.086L270.197 515.39H256.596Z" fill="#BE6565"/>
<path d="M113.029 200.496C113.029 200.496 112.273 198.015 113.029 197.66C113.784 197.305 114.918 200.142 114.918 200.142L113.029 200.496Z" fill="#FFF9F9"/>
<path d="M209.369 541.277H197.279L198.79 552.269L208.613 551.915L209.369 541.277Z" fill="#E1D5D5"/>
<path d="M271.708 531.347L259.996 532.057L262.64 543.049L272.086 542.34L271.708 531.347Z" fill="#E1D5D5"/>
<path d="M166.322 108.76C173.743 115.516 192.756 109.873 195.769 108.76L204.372 105.531C204.372 105.531 208.614 126.028 210.503 126.028C212.392 126.028 212.863 111.108 216.548 121.064C220.234 131.019 217.137 142.88 223.9 139.123C228.015 138.58 225.344 108.853 218.66 96.4845C213.44 89.6524 186.123 95.7627 183.229 99.3679C181.41 101.634 163.623 98.373 162.015 100.376C160.407 102.378 166.322 108.76 166.322 108.76Z" fill="black"/>
<path d="M257.352 527.091L218.438 425.673L211.26 406.525L245.64 337.021L273.598 527.091H257.352Z" fill="#253981"/>
<path d="M173.479 419.645L194.637 280.993L261.508 272.128L267.175 289.149C277.754 312.908 239.217 388.558 213.527 426.028V534.184H193.503L173.479 419.645Z" fill="#22336F"/>
<path fill-rule="evenodd" clip-rule="evenodd" d="M189.306 219.553C190.78 207.792 194.484 182.417 199.926 173.546C204.491 166.104 210.788 156.654 216.678 151.308C222.353 144.627 229.775 145.101 234.425 150.901C235.92 152.057 237.165 153.561 238.84 155.816C244.183 163.009 245.262 177.447 245.262 177.447L264.908 278.51C270.953 284.184 229.102 304.32 193.125 291.986L189.851 244.091C160.136 237.701 120.965 223.545 120.965 223.545L122.854 209.006L189.306 219.553ZM198.663 546.186C198.663 546.186 170.915 563.299 164.811 565.713C163.18 566.358 164.811 569.968 164.811 569.968C164.811 569.968 211.919 569.497 213.024 567.214C216.072 560.918 214.688 551.853 213.895 548.03C213.704 547.112 212.624 546.685 211.722 547.082C207.764 548.822 204.836 548.533 198.663 546.186ZM227.749 558.343C233.55 555.344 259.241 535.603 259.241 535.603C265.641 537.331 268.585 537.331 272.328 535.211C273.181 534.728 274.302 535.047 274.594 535.942C275.809 539.665 278.195 548.545 275.865 555.106C275.02 557.484 228.223 562.575 228.223 562.575C228.223 562.575 226.198 559.145 227.749 558.343Z" fill="#1AB482"/>
<path d="M201.059 221.418C201.059 221.418 204.082 183.386 211.638 160.78C219.194 138.174 238.84 144.113 238.84 165.744C238.84 165.744 232.822 241.342 219.194 246.241C201.437 252.624 120.965 223.545 120.965 223.545L122.854 209.006L201.059 221.418Z" fill="white" fill-opacity="0.1"/>
<path d="M260.375 552.269L265.664 545.177H268.308L266.797 547.304L262.641 552.269H260.375Z" fill="#32309B"/>
<path d="M264.152 552.269L269.441 545.177H272.086L270.574 547.304L266.418 552.269H264.152Z" fill="#32309B"/>
<path d="M267.93 552.269L273.219 545.177H275.864L274.352 547.304L270.196 552.269H267.93Z" fill="#32309B"/>
<path d="M276.62 552.624C275.411 553.475 243.121 558.77 227.506 561.135L228.261 562.908C247.053 560.222 257.73 559.362 275.865 555.816L276.62 552.624Z" fill="#3D3737"/>
<path d="M238.461 555.815L235.061 553.333L257.729 536.666L256.973 544.468L238.461 555.815Z" fill="#32309B"/>
<path d="M238.082 551.206L241.86 553.333L241.482 549.078L246.394 550.496L246.016 546.241L250.172 547.659V543.404L253.95 545.886" stroke="white" stroke-width="0.377805"/>
<path d="M198.285 562.5L204.335 555.966L206.965 556.226L205.225 558.193L200.539 562.723L198.285 562.5Z" fill="#32309B"/>
<path d="M202.043 562.871L208.093 556.336L210.723 556.596L208.984 558.564L204.298 563.093L202.043 562.871Z" fill="#32309B"/>
<path d="M205.799 563.242L211.85 556.708L214.48 556.967L212.74 558.935L208.054 563.465L205.799 563.242Z" fill="#32309B"/>
<path d="M213.903 564.681C212.605 565.409 180.204 567.408 164.41 568.227L164.788 570C184.434 569.645 198.413 570.355 213.147 567.518L213.903 564.681Z" fill="#3D3737"/>
<path d="M176.097 563.878L172.992 561.076L197.392 546.725L195.772 554.409L176.097 563.878Z" fill="#32309B"/>
<path d="M176.234 559.256L179.754 561.742L179.853 557.473L184.579 559.366L184.677 555.097L188.652 556.915L189.126 552.684L192.607 555.523" stroke="white" stroke-width="0.377805"/>
<path fill-rule="evenodd" clip-rule="evenodd" d="M15.556 70C11.383 70 8 73.1753 8 77.0921V147.215C8 151.132 11.383 154.307 15.556 154.307H92.001C92.013 154.322 92.026 154.337 92.04 154.352L100.319 163.46C101.234 164.467 102.896 164.454 103.793 163.433L111.793 154.324C111.797 154.319 111.802 154.313 111.807 154.307H138.72C142.894 154.307 146.277 151.132 146.277 147.215V77.0921C146.277 73.1753 142.894 70 138.72 70H15.556Z" fill="white" fill-opacity="0.46"/>
<path d="M137.21 82.0564H20.0905C18.004 82.0564 16.3125 83.644 16.3125 85.6025V126.028C16.3125 127.986 18.004 129.574 20.0905 129.574H137.21C139.297 129.574 140.988 127.986 140.988 126.028V85.6025C140.988 83.644 139.297 82.0564 137.21 82.0564Z" fill="white"/>
<path d="M49.5593 134.539H23.8686C19.6955 134.539 16.3125 137.714 16.3125 141.631V141.631C16.3125 145.548 19.6955 148.723 23.8686 148.723H49.5593C53.7324 148.723 57.1154 145.548 57.1154 141.631V141.631C57.1154 137.714 53.7324 134.539 49.5593 134.539Z" fill="#17B582"/>
<path d="M23.4901 138.794H23.4901C21.6122 138.794 20.0898 140.223 20.0898 141.986C20.0898 143.748 21.6122 145.177 23.4901 145.177H23.4901C25.368 145.177 26.8904 143.748 26.8904 141.986C26.8904 140.223 25.368 138.794 23.4901 138.794Z" fill="white" fill-opacity="0.51"/>
<path d="M48.4243 139.504H31.8009C30.3403 139.504 29.1562 140.615 29.1562 141.986V141.986C29.1562 143.357 30.3403 144.468 31.8009 144.468H48.4243C49.8849 144.468 51.0689 143.357 51.0689 141.986V141.986C51.0689 140.615 49.8849 139.504 48.4243 139.504Z" fill="white" fill-opacity="0.51"/>
<path d="M128.52 91.2764H26.5118C25.0512 91.2764 23.8672 92.3877 23.8672 93.7586C23.8672 95.1296 25.0512 96.2409 26.5118 96.2409H128.52C129.98 96.2409 131.164 95.1296 131.164 93.7586C131.164 92.3877 129.98 91.2764 128.52 91.2764Z" fill="black" fill-opacity="0.06"/>
<path d="M114.348 100.496H26.5118C25.0512 100.496 23.8672 101.607 23.8672 102.978C23.8672 104.349 25.0512 105.461 26.5118 105.461H114.348C115.808 105.461 116.992 104.349 116.992 102.978C116.992 101.607 115.808 100.496 114.348 100.496Z" fill="black" fill-opacity="0.06"/>
<path d="M96.1277 109.716H26.5118C25.0512 109.716 23.8672 110.827 23.8672 112.198C23.8672 113.569 25.0512 114.681 26.5118 114.681H96.1277C97.5882 114.681 98.7723 113.569 98.7723 112.198C98.7723 110.827 97.5882 109.716 96.1277 109.716Z" fill="black" fill-opacity="0.06"/>
<path d="M564.819 206.521L589.934 185.239C590.521 184.742 591.459 184.974 591.71 185.677C591.847 186.063 591.729 186.488 591.409 186.762L566.437 208.193C565.924 208.634 565.12 208.575 564.685 208.065C564.288 207.598 564.346 206.921 564.819 206.521Z" fill="#040404"/>
<path fill-rule="evenodd" clip-rule="evenodd" d="M480.907 151.263C491.212 151.263 499.902 115.035 485.923 108.298C472.519 101.838 465.021 100.92 456.217 133.24L447.237 150.497L465.123 155.937L467.892 147.741C471.708 149.755 476.153 151.263 480.907 151.263ZM560.153 220.432L572.998 215.112C572.998 215.112 589.244 195.244 593.399 188.517C599.839 178.094 565.442 208.01 565.442 208.01C565.442 208.01 567.331 197.726 565.442 196.318C564.258 195.436 558.264 209.428 558.264 209.428L552.597 215.112L554.863 222.559L560.153 220.432ZM480.106 551.205L482.372 529.219H468.394L470.283 551.205H480.106ZM421.924 515.39L416.634 539.858H406.434L408.323 515.39H421.924Z" fill="#FFB7B7"/>
<path d="M565.489 200.496C565.489 200.496 566.245 198.015 565.489 197.66C564.734 197.305 563.6 200.142 563.6 200.142L565.489 200.496Z" fill="#FFF9F9"/>
<path d="M469.148 541.277H481.238L479.727 552.269L469.904 551.915L469.148 541.277Z" fill="#E1D5D5"/>
<path d="M406.811 531.347L418.523 532.057L415.879 543.049L406.434 542.34L406.811 531.347Z" fill="#E1D5D5"/>
<path d="M421.168 527.091L460.082 425.673L467.26 406.525L432.88 337.021L404.922 527.091H421.168Z" fill="#16494B"/>
<path d="M505.04 419.645L483.883 280.993L417.011 272.128L411.344 289.149C394.871 322.127 439.302 388.558 464.992 426.028V534.184H485.016L505.04 419.645Z" fill="#246467"/>
<path fill-rule="evenodd" clip-rule="evenodd" d="M489.216 219.553C487.741 207.792 484.037 182.417 478.595 173.546C474.03 166.104 467.734 156.654 461.843 151.308C456.168 144.627 448.747 145.101 444.096 150.901C442.602 152.057 441.356 153.561 439.681 155.816C434.338 163.009 433.259 177.447 433.259 177.447L413.613 278.51C407.568 284.184 449.419 304.32 485.396 291.986L488.67 244.091C518.385 237.701 557.557 223.545 557.557 223.545L555.668 209.006L489.216 219.553ZM482.141 546.452C482.141 546.452 510.203 563.109 516.351 565.421C517.994 566.04 516.43 569.676 516.43 569.676C516.43 569.676 469.321 569.976 468.173 567.712C465.009 561.467 466.223 552.38 466.946 548.545C467.119 547.624 468.191 547.179 469.101 547.562C473.091 549.237 476.012 548.9 482.141 546.452ZM450.772 558.343C444.971 555.344 419.28 535.603 419.28 535.603C412.88 537.331 409.936 537.331 406.193 535.211C405.34 534.728 404.219 535.047 403.927 535.942C402.712 539.665 400.327 548.545 402.657 555.106C403.501 557.484 450.298 562.575 450.298 562.575C450.298 562.575 452.323 559.145 450.772 558.343Z" fill="#6EC5B8"/>
<path d="M477.461 221.418C477.461 221.418 474.438 183.386 466.882 160.78C459.326 138.174 439.68 144.113 439.68 165.744C439.68 165.744 445.698 241.342 459.326 246.241C477.083 252.624 557.556 223.545 557.556 223.545L555.667 209.006L477.461 221.418Z" fill="white" fill-opacity="0.13"/>
<path d="M412.629 552.268L407.34 545.176H404.695L406.206 547.304L410.362 552.268H412.629Z" fill="#246467"/>
<path d="M405.223 552.268L410.512 545.176H413.157L411.646 547.304L407.49 552.268H405.223Z" fill="#246467"/>
<path d="M401.9 552.624C403.109 553.475 435.399 558.77 451.015 561.134L450.259 562.907C431.467 560.222 420.79 559.361 402.656 555.815L401.9 552.624Z" fill="#3D3737"/>
<path d="M440.057 555.815C441.621 555.233 443.458 553.333 443.458 553.333L420.789 536.666C420.789 536.666 419.844 541.857 421.545 544.468C425.473 550.495 435.296 557.588 440.057 555.815Z" fill="#246467"/>
<path d="M478.115 564.401L471.826 558.068L469.207 558.414L471.019 560.324L475.87 564.697L478.115 564.401Z" fill="#16494B"/>
<path d="M470.816 565.544L475.003 557.831L477.622 557.485L476.441 559.79L473.061 565.249L470.816 565.544Z" fill="#16494B"/>
<path d="M467.51 565.976C468.833 566.661 501.594 567.687 517.408 567.988L516.923 569.843C497.916 569.639 487.215 570.181 468.731 569.038L467.51 565.976Z" fill="#3D3737"/>
<path d="M507.397 563.761C509.063 563.541 508.769 561.25 508.769 561.25L483.85 547.707C483.85 547.707 484.292 552.6 485.755 555.333C489.633 562.575 504.56 564.135 507.397 563.761Z" fill="#16494B"/>
<path d="M495.368 107.588C495.368 107.588 495.705 109.15 493.101 110.78C492.552 111.124 492.016 111.4 491.492 111.618C485.003 114.323 480.443 108.155 475.344 112.907C471.436 116.551 473.455 126.176 473.455 131.347C473.455 148.723 464.602 141.324 462.121 146.596C458.69 153.887 448.747 152.404 441.72 156.879C437.297 159.696 439.831 180.638 439.831 180.638C439.831 180.638 437.468 185.828 429.63 188.085C420.348 190.758 402.706 199.908 404.317 190.921C405.339 185.224 413.456 176.806 414.14 171.063C415.189 162.262 402.428 165.736 402.428 156.879C402.428 148.022 416.804 148.336 420.563 140.212C422.914 135.132 419.695 130.48 423.207 126.028C428.131 119.787 436.75 124.791 441.72 118.581C445.723 113.579 441.859 113.229 444.742 107.588C449.187 98.8939 456.832 107.588 464.01 99.0778C471.189 90.5675 499.902 98.723 495.368 107.588Z" fill="#100B31"/>
<path d="M600.02 181.348L617.021 179.22" stroke="black" stroke-opacity="0.27" stroke-width="0.75561" stroke-linecap="round" stroke-dasharray="3.78 3.78"/>
<path d="M617.777 179.22L631 177.092" stroke="black" stroke-opacity="0.27" stroke-width="0.75561" stroke-linecap="round" stroke-dasharray="3.78 3.78"/>
<path d="M596.242 178.51L608.332 157.944" stroke="black" stroke-opacity="0.27" stroke-width="0.75561" stroke-linecap="round" stroke-dasharray="3.78 3.78"/>
<path d="M599.264 178.865L609.843 171.063" stroke="black" stroke-opacity="0.27" stroke-width="0.75561" stroke-linecap="round" stroke-dasharray="3.78 3.78"/>
<path d="M611.732 169.645L621.933 161.49" stroke="black" stroke-opacity="0.27" stroke-width="0.75561" stroke-linecap="round" stroke-dasharray="3.78 3.78"/>
<path d="M610.221 175.928L621.655 169.37" stroke="black" stroke-opacity="0.27" stroke-width="0.75561" stroke-linecap="round" stroke-dasharray="3.78 3.78"/>
<path d="M623.066 168.835L628.733 165.744" stroke="black" stroke-opacity="0.27" stroke-width="0.75561" stroke-linecap="round" stroke-dasharray="3.78 3.78"/>
<path fill-rule="evenodd" clip-rule="evenodd" d="M542.986 116.1C539.64 116.1 536.928 118.645 536.928 121.786V143.746C536.928 146.887 539.64 149.432 542.986 149.432H564.761L568.611 154.533C569.362 155.527 570.949 155.483 571.636 154.448L574.969 149.432H595.097C598.442 149.432 601.154 146.887 601.154 143.746V121.786C601.154 118.645 598.442 116.1 595.097 116.1H542.986Z" fill="white"/>
<path d="M565.157 135.761C567.811 135.761 569.964 133.741 569.964 131.25C569.964 128.758 567.811 126.738 565.157 126.738C562.502 126.738 560.35 128.758 560.35 131.25C560.35 133.741 562.502 135.761 565.157 135.761Z" fill="#6EC5B8"/>
<path d="M572.922 135.761C575.577 135.761 577.729 133.741 577.729 131.25C577.729 128.758 575.577 126.738 572.922 126.738C570.267 126.738 568.115 128.758 568.115 131.25C568.115 133.741 570.267 135.761 572.922 135.761Z" fill="#6EC5B8"/>
<path d="M569.225 139.926L576.066 134.72L569.04 132.638L562.199 134.72L569.225 139.926Z" fill="#6EC5B8"/>
</svg>
