<svg width="640" height="640" viewBox="0 0 640 640" fill="none" xmlns="http://www.w3.org/2000/svg">
<g clip-path="url(#clip0)">
<path d="M172.988 288.414C157.918 275.126 151.011 252.979 149.442 243.567C177.697 198.72 223.221 220.313 218.511 265.16C216.771 281.729 212.674 291.496 207.249 296.389C207.341 299.82 209.721 308.012 218.511 313.327C229.5 319.971 249.907 319.971 264.035 326.614C278.163 333.259 311.129 477.765 312.698 487.732C314.268 497.697 306.419 510.985 295.43 499.358C284.442 487.732 257.756 383.088 243.628 393.054C229.5 403.021 140.023 373.123 141.593 383.088C143.162 393.054 113.336 447.868 119.616 447.868C125.894 447.868 242.058 459.494 257.756 459.494C273.454 459.494 286.012 487.732 286.012 499.358C286.012 510.985 264.035 494.375 257.756 487.732C251.477 481.087 113.336 489.392 91.3599 477.765C69.3827 466.139 108.627 361.495 113.336 346.547C118.046 331.598 121.185 326.614 154.15 326.614C180.523 326.614 185.023 306.464 183.976 296.389C180.293 294.331 176.583 291.585 172.988 288.414Z" fill="#8A6564"/>
<path fill-rule="evenodd" clip-rule="evenodd" d="M169.463 247.191C158.48 256.246 148.105 253.659 144.291 251.234C127.205 251.234 121.408 224.826 120.645 211.621C122.933 216.741 129.951 224.718 139.715 215.663C151.919 204.345 182.43 205.962 201.501 211.621C220.57 217.28 219.808 255.277 219.808 251.234C219.808 249.341 217.968 248.334 215.777 247.136C213.288 245.774 210.345 244.164 209.129 240.725C206.84 234.257 183.194 235.873 169.463 247.191ZM256.186 318.312H233.03C232.507 336.583 218.889 348.692 199.444 348.692C171.189 348.692 166.389 339.434 159.627 325.513C147.871 325.513 129.444 327.089 122.825 330.496C122.448 330.79 122.007 331.101 121.507 331.453C117.318 334.402 109.06 340.215 100.321 363.333C92.0883 385.111 89.4672 396.822 87.9331 403.679V403.68C87.6443 404.969 87.3944 406.087 87.1523 407.068C88.6369 407.866 90.209 408.722 91.8492 409.614C109.039 418.966 133.688 432.377 143.472 426.473C144.823 433.786 145.292 441.574 145.506 449.949C131.961 448.715 122.28 447.869 120.587 447.869L92.3314 477.767C99.9089 481.777 121.301 483.415 146.335 484.115C146.644 489.73 147.119 495.572 147.871 501.664C148.072 503.296 148.319 504.936 148.564 506.571C149.65 513.791 150.724 520.94 147.871 527.175C190.809 533.238 291.968 536.527 315.139 515.345C297.378 508.297 277.174 447.884 264.981 407.068L300.524 403.026C300.305 399.78 298.754 393.627 296.863 386.123C294.358 376.179 291.255 363.866 289.861 352.807C287.416 333.402 275.278 318.312 256.186 318.312Z" fill="#1AB482"/>
<path opacity="0.2" d="M233.03 318.313H256.186C275.278 318.313 287.416 333.403 289.861 352.808C292.307 372.213 300.014 395.48 300.524 403.027L264.981 407.069C277.174 447.885 297.378 508.298 315.139 515.346C291.968 536.528 190.809 533.239 147.871 527.176C151.37 519.528 148.962 510.507 147.871 501.665C144.115 471.212 147.259 446.979 143.472 426.473C132.754 432.941 104.199 416.233 87.1523 407.069C88.6807 400.871 90.5406 389.206 100.321 363.334C110.102 337.461 119.28 333.263 122.825 330.497C129.444 327.09 147.871 325.514 159.627 325.514C166.389 339.434 171.189 348.693 199.444 348.693C218.889 348.693 232.507 336.584 233.03 318.313Z" fill="#7D8CA6"/>
<path d="M169.465 247.191C158.481 256.246 148.107 253.659 144.293 251.234C127.207 251.234 121.41 224.826 120.646 211.621C122.935 216.741 129.953 224.718 139.717 215.663C151.921 204.345 182.432 205.962 201.503 211.621C220.572 217.28 219.81 255.277 219.81 251.234C219.81 247.191 211.419 247.191 209.131 240.725C206.842 234.257 183.196 235.873 169.465 247.191Z" fill="#4B5361"/>
<path d="M258.727 487.73C252.448 481.087 114.307 489.392 92.3301 477.764L120.586 447.866C126.866 447.866 243.029 459.494 258.727 459.494C274.424 459.494 286.982 487.73 286.982 499.358C286.982 510.985 265.006 494.375 258.727 487.73Z" fill="#8A6564"/>
<path d="M543.612 219.587H201.389V439.733H543.612V219.587Z" fill="#F8F7F4" fill-opacity="0.95"/>
<path d="M394.863 439.734H351.113V462.366H394.863V439.734Z" fill="#DADADA"/>
<path fill-rule="evenodd" clip-rule="evenodd" d="M478.96 112.601C478.96 110.612 480.484 109 482.363 109H500.835C502.715 109 504.238 110.612 504.238 112.601C504.238 114.589 502.715 116.201 500.835 116.201H482.363C480.484 116.201 478.96 114.589 478.96 112.601ZM504.738 148.025C506.045 146.597 506.011 144.317 504.661 142.933C503.311 141.55 501.157 141.586 499.849 143.015L484.78 159.474L482.328 162.152L484.943 164.651L500.013 179.053C501.407 180.386 503.559 180.27 504.818 178.795C506.078 177.319 505.969 175.042 504.574 173.71L492.12 161.806L504.738 148.025ZM510.571 335.252C511.879 333.824 511.845 331.544 510.494 330.16C509.145 328.777 506.99 328.813 505.683 330.242L490.613 346.701L488.161 349.379L490.777 351.878L505.846 366.28C507.241 367.613 509.393 367.497 510.652 366.022C511.912 364.546 511.802 362.269 510.408 360.937L497.954 349.033L510.571 335.252ZM549.996 142.933C548.645 144.317 548.611 146.597 549.919 148.025L562.537 161.806L550.082 173.71C548.688 175.042 548.578 177.319 549.838 178.795C551.097 180.27 553.249 180.386 554.644 179.053L569.714 164.651L572.329 162.152L569.877 159.474L554.807 143.015C553.5 141.586 551.345 141.55 549.996 142.933ZM582.002 337.309C580.695 335.881 580.729 333.602 582.079 332.218C583.429 330.834 585.583 330.87 586.891 332.299L601.96 348.759L604.412 351.436L601.797 353.935L586.727 368.337C585.332 369.67 583.181 369.554 581.922 368.079C580.662 366.604 580.772 364.326 582.166 362.994L594.62 351.091L582.002 337.309ZM484.307 204.671C482.428 204.671 480.905 206.283 480.905 208.272C480.905 210.26 482.428 211.872 484.307 211.872H500.835C502.715 211.872 504.238 210.26 504.238 208.272C504.238 206.283 502.715 204.671 500.835 204.671H484.307ZM480.905 397.556C480.905 395.568 482.428 393.956 484.307 393.956H500.835C502.715 393.956 504.238 395.568 504.238 397.556C504.238 399.545 502.715 401.157 500.835 401.157H484.307C482.428 401.157 480.905 399.545 480.905 397.556ZM484.307 298.285C482.428 298.285 480.905 299.897 480.905 301.885C480.905 303.874 482.428 305.486 484.307 305.486H524.169C526.048 305.486 527.571 303.874 527.571 301.885C527.571 299.897 526.048 298.285 524.169 298.285H484.307ZM512.016 397.556C512.016 395.568 513.539 393.956 515.419 393.956H560.141C562.02 393.956 563.544 395.568 563.544 397.556C563.544 399.545 562.02 401.157 560.141 401.157H515.419C513.539 401.157 512.016 399.545 512.016 397.556ZM537.294 332.747C537.294 330.758 535.77 329.146 533.891 329.146C532.012 329.146 530.488 330.758 530.488 332.747V366.694C530.488 368.683 532.012 370.295 533.891 370.295C535.77 370.295 537.294 368.683 537.294 366.694V332.747ZM509.585 239.647C511.465 239.647 512.988 241.259 512.988 243.248V266.909C512.988 268.897 511.465 270.509 509.585 270.509C507.706 270.509 506.182 268.897 506.182 266.909V243.248C506.182 241.259 507.706 239.647 509.585 239.647ZM550.905 245.305C550.905 243.317 549.381 241.705 547.502 241.705C545.623 241.705 544.099 243.317 544.099 245.305V265.88C544.099 267.868 545.623 269.48 547.502 269.48C549.381 269.48 550.905 267.868 550.905 265.88V245.305ZM565.974 245.82C567.854 245.82 569.377 247.432 569.377 249.42V260.736C569.377 262.725 567.854 264.337 565.974 264.337C564.095 264.337 562.572 262.725 562.572 260.736V249.42C562.572 247.432 564.095 245.82 565.974 245.82ZM629.655 249.42C629.655 247.432 628.132 245.82 626.252 245.82C624.373 245.82 622.85 247.432 622.85 249.42V260.736C622.85 262.725 624.373 264.337 626.252 264.337C628.132 264.337 629.655 262.725 629.655 260.736V249.42ZM489.169 245.82C491.048 245.82 492.571 247.432 492.571 249.42V260.736C492.571 262.725 491.048 264.337 489.169 264.337C487.289 264.337 485.766 262.725 485.766 260.736V249.42C485.766 247.432 487.289 245.82 489.169 245.82ZM609.238 245.305C609.238 243.317 607.715 241.705 605.836 241.705C603.956 241.705 602.433 243.317 602.433 245.305V265.88C602.433 267.868 603.956 269.48 605.836 269.48C607.715 269.48 609.238 267.868 609.238 265.88V245.305ZM529.03 234.504C530.909 234.504 532.433 236.116 532.433 238.104V272.052C532.433 274.041 530.909 275.653 529.03 275.653C527.15 275.653 525.627 274.041 525.627 272.052V238.104C525.627 236.116 527.15 234.504 529.03 234.504ZM540.927 149.694C542.032 148.086 541.696 145.834 540.176 144.665C538.656 143.495 536.529 143.851 535.423 145.46L516.555 172.916C515.45 174.525 515.786 176.777 517.307 177.946C518.826 179.116 520.954 178.76 522.06 177.152L540.927 149.694ZM585.419 234.504C587.298 234.504 588.822 236.116 588.822 238.104V272.052C588.822 274.041 587.298 275.653 585.419 275.653C583.54 275.653 582.016 274.041 582.016 272.052V238.104C582.016 236.116 583.54 234.504 585.419 234.504ZM558.683 332.747C558.683 330.758 557.159 329.146 555.28 329.146C553.401 329.146 551.877 330.758 551.877 332.747V366.694C551.877 368.683 553.401 370.295 555.28 370.295C557.159 370.295 558.683 368.683 558.683 366.694V332.747ZM532.433 301.885C532.433 299.897 533.956 298.285 535.835 298.285H560.141C562.02 298.285 563.544 299.897 563.544 301.885C563.544 303.874 562.02 305.486 560.141 305.486H535.835C533.956 305.486 532.433 303.874 532.433 301.885ZM574.724 298.285C572.845 298.285 571.322 299.897 571.322 301.885C571.322 303.874 572.845 305.486 574.724 305.486H601.947C603.826 305.486 605.349 303.874 605.349 301.885C605.349 299.897 603.826 298.285 601.947 298.285H574.724ZM515.905 208.272C515.905 206.283 517.428 204.671 519.308 204.671H555.28C557.159 204.671 558.683 206.283 558.683 208.272C558.683 210.26 557.159 211.872 555.28 211.872H519.308C517.428 211.872 515.905 210.26 515.905 208.272ZM570.835 204.671C568.956 204.671 567.433 206.283 567.433 208.272C567.433 210.26 568.956 211.872 570.835 211.872H609.725C611.604 211.872 613.127 210.26 613.127 208.272C613.127 206.283 611.604 204.671 609.725 204.671H570.835ZM512.016 112.601C512.016 110.612 513.539 109 515.419 109H545.558C547.437 109 548.96 110.612 548.96 112.601C548.96 114.589 547.437 116.201 545.558 116.201H515.419C513.539 116.201 512.016 114.589 512.016 112.601ZM5 462.365V488.203H48.8804V517.916H84.2296H98.8558H120.796H132.986H464.529H479.156H498.658H513.286H547.415V488.203H576.669V462.365H5Z" fill="#F8F7F4"/>
<path opacity="0.5" d="M5 488.203V462.365H576.669V488.203H547.415V517.916H513.286H498.658H479.156H464.529H132.986H120.796H98.8558H84.2296H48.8804V488.203H5Z" fill="url(#paint0_linear)"/>
<g opacity="0.2" filter="url(#filter0_f)">
<path opacity="0.2" d="M511.042 155.807L495.973 172.266L511.042 186.668" stroke="black" stroke-opacity="0.5" stroke-width="7" stroke-linecap="round"/>
<path opacity="0.2" d="M516.874 343.034L501.805 359.493L516.874 373.896" stroke="black" stroke-opacity="0.5" stroke-width="7" stroke-linecap="round"/>
<path opacity="0.2" d="M561.111 155.807L576.181 172.266L561.111 186.668" stroke="black" stroke-opacity="0.5" stroke-width="7" stroke-linecap="round"/>
<path opacity="0.2" d="M593.197 345.091L608.267 361.551L593.197 375.953" stroke="black" stroke-opacity="0.5" stroke-width="7" stroke-linecap="round"/>
<path opacity="0.2" d="M491.113 122.888H509.586" stroke="black" stroke-opacity="0.5" stroke-width="7" stroke-linecap="round"/>
<path opacity="0.2" d="M493.055 218.559H509.583" stroke="black" stroke-opacity="0.5" stroke-width="7" stroke-linecap="round"/>
<path opacity="0.2" d="M493.055 407.843H509.583" stroke="black" stroke-opacity="0.5" stroke-width="7" stroke-linecap="round"/>
<path opacity="0.2" d="M493.055 312.172H532.916" stroke="black" stroke-opacity="0.5" stroke-width="7" stroke-linecap="round"/>
<path opacity="0.2" d="M524.166 407.843H568.888" stroke="black" stroke-opacity="0.5" stroke-width="7" stroke-linecap="round"/>
<path opacity="0.2" d="M542.639 343.034V376.982" stroke="black" stroke-opacity="0.5" stroke-width="7" stroke-linecap="round"/>
<path opacity="0.2" d="M518.334 253.535V277.196" stroke="black" stroke-opacity="0.5" stroke-width="7" stroke-linecap="round"/>
<path opacity="0.2" d="M556.252 255.593V276.167" stroke="black" stroke-opacity="0.5" stroke-width="7" stroke-linecap="round"/>
<path opacity="0.2" d="M574.725 259.708V271.023" stroke="black" stroke-opacity="0.5" stroke-width="7" stroke-linecap="round"/>
<path opacity="0.2" d="M635.002 259.708V271.023" stroke="black" stroke-opacity="0.5" stroke-width="7" stroke-linecap="round"/>
<path opacity="0.2" d="M497.916 259.708V271.023" stroke="black" stroke-opacity="0.5" stroke-width="7" stroke-linecap="round"/>
<path opacity="0.2" d="M614.584 255.593V276.167" stroke="black" stroke-opacity="0.5" stroke-width="7" stroke-linecap="round"/>
<path opacity="0.2" d="M537.779 248.392V282.339" stroke="black" stroke-opacity="0.5" stroke-width="7" stroke-linecap="round"/>
<path opacity="0.2" d="M546.924 157.865L528.057 185.322" stroke="black" stroke-opacity="0.5" stroke-width="7" stroke-linecap="round"/>
<path opacity="0.2" d="M594.168 248.392V282.339" stroke="black" stroke-opacity="0.5" stroke-width="7" stroke-linecap="round"/>
<path opacity="0.2" d="M564.029 343.034V376.982" stroke="black" stroke-opacity="0.5" stroke-width="7" stroke-linecap="round"/>
<path opacity="0.2" d="M544.586 312.172H568.892" stroke="black" stroke-opacity="0.5" stroke-width="7" stroke-linecap="round"/>
<path opacity="0.2" d="M583.475 312.172H610.697" stroke="black" stroke-opacity="0.5" stroke-width="7" stroke-linecap="round"/>
<path opacity="0.2" d="M528.057 218.559H564.029" stroke="black" stroke-opacity="0.5" stroke-width="7" stroke-linecap="round"/>
<path opacity="0.2" d="M579.584 218.559H618.473" stroke="black" stroke-opacity="0.5" stroke-width="7" stroke-linecap="round"/>
<path opacity="0.2" d="M524.166 122.888H554.305" stroke="black" stroke-opacity="0.5" stroke-width="7" stroke-linecap="round"/>
</g>
<path opacity="0.5" d="M502.294 145.52L487.225 161.979L502.294 176.381" stroke="#9CD7D1" stroke-width="7" stroke-linecap="round"/>
<path opacity="0.5" d="M508.126 332.747L493.057 349.206L508.126 363.608" stroke="#9CD7D1" stroke-width="7" stroke-linecap="round"/>
<path opacity="0.5" d="M552.363 145.52L567.433 161.979L552.363 176.381" stroke="#9CD7D1" stroke-width="7" stroke-linecap="round"/>
<path opacity="0.5" d="M584.449 334.804L599.519 351.264L584.449 365.666" stroke="#9CD7D1" stroke-width="7" stroke-linecap="round"/>
<path opacity="0.5" d="M482.361 112.601H500.834" stroke="#9CD7D1" stroke-width="7" stroke-linecap="round"/>
<path opacity="0.5" d="M484.307 208.271H500.835" stroke="#9CD7D1" stroke-width="7" stroke-linecap="round"/>
<path opacity="0.5" d="M484.307 397.556H500.835" stroke="#9CD7D1" stroke-width="7" stroke-linecap="round"/>
<path opacity="0.5" d="M484.307 301.885H524.168" stroke="#9CD7D1" stroke-width="7" stroke-linecap="round"/>
<path opacity="0.5" d="M515.42 397.556H560.142" stroke="#9CD7D1" stroke-width="7" stroke-linecap="round"/>
<path opacity="0.5" d="M533.891 332.747V366.695" stroke="#9CD7D1" stroke-width="7" stroke-linecap="round"/>
<path opacity="0.5" d="M509.586 243.248V266.909" stroke="#9CD7D1" stroke-width="7" stroke-linecap="round"/>
<path opacity="0.5" d="M547.502 245.305V265.88" stroke="#9CD7D1" stroke-width="7" stroke-linecap="round"/>
<path opacity="0.5" d="M565.977 249.42V260.736" stroke="#9CD7D1" stroke-width="7" stroke-linecap="round"/>
<path opacity="0.5" d="M626.252 249.42V260.736" stroke="#9CD7D1" stroke-width="7" stroke-linecap="round"/>
<path opacity="0.5" d="M489.168 249.42V260.736" stroke="#9CD7D1" stroke-width="7" stroke-linecap="round"/>
<path opacity="0.5" d="M605.836 245.305V265.88" stroke="#9CD7D1" stroke-width="7" stroke-linecap="round"/>
<path opacity="0.5" d="M529.029 238.104V272.052" stroke="#9CD7D1" stroke-width="7" stroke-linecap="round"/>
<path opacity="0.5" d="M538.176 147.577L519.309 175.035" stroke="#9CD7D1" stroke-width="7" stroke-linecap="round"/>
<path opacity="0.5" d="M585.418 238.104V272.052" stroke="#9CD7D1" stroke-width="7" stroke-linecap="round"/>
<path opacity="0.5" d="M555.281 332.747V366.695" stroke="#9CD7D1" stroke-width="7" stroke-linecap="round"/>
<path opacity="0.5" d="M535.836 301.885H560.142" stroke="#9CD7D1" stroke-width="7" stroke-linecap="round"/>
<path opacity="0.5" d="M574.727 301.885H601.949" stroke="#9CD7D1" stroke-width="7" stroke-linecap="round"/>
<path opacity="0.5" d="M519.309 208.271H555.281" stroke="#9CD7D1" stroke-width="7" stroke-linecap="round"/>
<path opacity="0.5" d="M570.836 208.271H609.725" stroke="#9CD7D1" stroke-width="7" stroke-linecap="round"/>
<path opacity="0.5" d="M515.42 112.601H545.559" stroke="#9CD7D1" stroke-width="7" stroke-linecap="round"/>
<g opacity="0.5" filter="url(#filter1_f)">
<path opacity="0.5" d="M449.293 262.914C450.835 262.391 451.633 261.061 451.686 258.924V256.272C451.686 254.415 452.373 253.149 453.748 252.475C452.373 251.815 451.686 250.55 451.686 248.676V246.229C451.686 243.963 450.892 242.561 449.305 242.023L449.737 240.636C451.082 241.038 452.092 241.692 452.769 242.601C453.444 243.501 453.786 244.694 453.793 246.182V248.712C453.793 250.634 454.598 251.594 456.209 251.594V253.342C454.598 253.342 453.793 254.319 453.793 256.272V258.707C453.793 260.218 453.448 261.427 452.757 262.336C452.074 263.244 451.067 263.898 449.737 264.301L449.293 262.914Z" fill="#EE7E79"/>
<path opacity="0.5" d="M353.722 264.301C352.378 263.898 351.363 263.236 350.68 262.311C350.003 261.396 349.666 260.182 349.666 258.67V256.272C349.666 254.319 348.861 253.342 347.25 253.342V251.594C348.861 251.594 349.666 250.622 349.666 248.676V246.169C349.681 244.698 350.019 243.513 350.68 242.613C351.348 241.705 352.362 241.045 353.722 240.636L354.155 242.023C352.567 242.561 351.774 243.963 351.774 246.229V248.665C351.774 250.489 351.139 251.759 349.871 252.475C351.139 253.198 351.774 254.479 351.774 256.32V258.803C351.796 261.014 352.59 262.384 354.155 262.914L353.722 264.301Z" fill="#EE7E79"/>
<path opacity="0.5" d="M354.979 252.92H446.963" stroke="#6B81AC" stroke-width="4" stroke-miterlimit="16" stroke-dasharray="3 3"/>
<path opacity="0.5" d="M449.293 371.432C450.835 370.91 451.633 369.58 451.686 367.442V364.789C451.686 362.933 452.373 361.667 453.748 360.992C452.373 360.333 451.686 359.067 451.686 357.195V354.748C451.686 352.481 450.892 351.078 449.305 350.54L449.737 349.154C451.082 349.556 452.092 350.211 452.769 351.118C453.444 352.019 453.786 353.213 453.793 354.699V357.231C453.793 359.152 454.598 360.112 456.209 360.112V361.86C454.598 361.86 453.793 362.837 453.793 364.789V367.225C453.793 368.735 453.448 369.945 452.757 370.853C452.074 371.762 451.067 372.416 449.737 372.818L449.293 371.432Z" fill="#EE7E79"/>
<path opacity="0.5" d="M353.722 372.818C352.378 372.416 351.363 371.753 350.68 370.83C350.003 369.913 349.666 368.699 349.666 367.188V364.789C349.666 362.837 348.861 361.86 347.25 361.86V360.112C348.861 360.112 349.666 359.139 349.666 357.195V354.687C349.681 353.216 350.019 352.031 350.68 351.131C351.348 350.222 352.362 349.564 353.722 349.154L354.155 350.54C352.567 351.078 351.774 352.481 351.774 354.748V357.183C351.774 359.007 351.139 360.277 349.871 360.992C351.139 361.715 351.774 362.997 351.774 364.837V367.321C351.796 369.531 352.59 370.902 354.155 371.432L353.722 372.818Z" fill="#EE7E79"/>
<path opacity="0.5" d="M354.979 361.435H446.963" stroke="#6B81AC" stroke-width="4" stroke-miterlimit="16" stroke-dasharray="3 3"/>
<path opacity="0.5" d="M449.293 408.349C450.835 407.827 451.633 406.497 451.686 404.359V401.707C451.686 399.85 452.373 398.585 453.748 397.91C452.373 397.25 451.686 395.985 451.686 394.112V391.664C451.686 389.398 450.892 387.996 449.305 387.458L449.737 386.071C451.082 386.474 452.092 387.128 452.769 388.036C453.444 388.936 453.786 390.13 453.793 391.617V394.149C453.793 396.069 454.598 397.029 456.209 397.029V398.778C454.598 398.778 453.793 399.754 453.793 401.707V404.142C453.793 405.653 453.448 406.863 452.757 407.771C452.074 408.678 451.067 409.334 449.737 409.736L449.293 408.349Z" fill="#EE7E79"/>
<path opacity="0.5" d="M353.722 409.736C352.378 409.334 351.363 408.671 350.68 407.746C350.003 406.831 349.666 405.617 349.666 404.106V401.707C349.666 399.754 348.861 398.778 347.25 398.778V397.029C348.861 397.029 349.666 396.057 349.666 394.112V391.605C349.681 390.134 350.019 388.949 350.68 388.048C351.348 387.14 352.362 386.481 353.722 386.071L354.155 387.458C352.567 387.996 351.774 389.398 351.774 391.664V394.1C351.774 395.924 351.139 397.194 349.871 397.91C351.139 398.633 351.774 399.915 351.774 401.755V404.238C351.796 406.449 352.59 407.819 354.155 408.349L353.722 409.736Z" fill="#EE7E79"/>
<path opacity="0.5" d="M354.979 398.355H446.963" stroke="#6B81AC" stroke-width="4" stroke-miterlimit="16" stroke-dasharray="3 3"/>
<path opacity="0.5" d="M354.32 279.346H448.675" stroke="black" stroke-opacity="0.5" stroke-width="3" stroke-linecap="round"/>
<path opacity="0.5" d="M245.42 299.482H306.999" stroke="#6B81AC" stroke-width="3" stroke-linecap="round"/>
<path opacity="0.5" d="M245.42 310.669H306.999" stroke="#6B81AC" stroke-width="3" stroke-linecap="round"/>
<path opacity="0.5" d="M354.32 305.076H433.873" stroke="#EDC7C5" stroke-width="3" stroke-linecap="round"/>
<path opacity="0.5" d="M354.32 331.923H450.789" stroke="#EDC7C5" stroke-width="3" stroke-linecap="round"/>
<path opacity="0.5" d="M354.32 322.974H382.065" stroke="#EE7E79" stroke-width="3" stroke-linecap="round"/>
<path opacity="0.5" d="M354.32 314.025H382.065" stroke="#EE7E79" stroke-width="3" stroke-linecap="round"/>
<path opacity="0.5" d="M354.32 288.295H382.065" stroke="#EE7E79" stroke-width="3" stroke-linecap="round"/>
<path opacity="0.5" d="M354.32 296.126H382.065" stroke="#EE7E79" stroke-width="3" stroke-linecap="round"/>
<path opacity="0.5" d="M329.602 246.206H243.961V261.868H329.602V246.206Z" fill="#EDC7C5"/>
<path opacity="0.5" d="M329.602 274.173H243.961V289.836H329.602V274.173Z" fill="#EDC7C5"/>
</g>
<path fill-rule="evenodd" clip-rule="evenodd" d="M346.897 252.74H345.46V248.625H346.897V252.74ZM352.646 252.74H349.772V248.625H352.646V252.74ZM358.395 252.74H355.521V248.625H358.395V252.74ZM364.144 252.74H361.27V248.625H364.144V252.74ZM369.893 252.74H367.019V248.625H369.893V252.74ZM375.642 252.74H372.768V248.625H375.642V252.74ZM381.391 252.74H378.517V248.625H381.391V252.74ZM387.14 252.74H384.266V248.625H387.14V252.74ZM392.889 252.74H390.015V248.625H392.889V252.74ZM398.638 252.74H395.764V248.625H398.638V252.74ZM404.387 252.74H401.513V248.625H404.387V252.74ZM410.136 252.74H407.262V248.625H410.136V252.74ZM415.885 252.74H413.011V248.625H415.885V252.74ZM421.634 252.74H418.76V248.625H421.634V252.74ZM427.383 252.74H424.509V248.625H427.383V252.74ZM433.132 252.74H430.258V248.625H433.132V252.74ZM437.444 252.74H436.007V248.625H437.444V252.74ZM346.896 361.254H345.459V357.139H346.896V361.254ZM352.645 361.254H349.771V357.139H352.645V361.254ZM358.394 361.254H355.52V357.139H358.394V361.254ZM364.143 361.254H361.269V357.139H364.143V361.254ZM369.892 361.254H367.018V357.139H369.892V361.254ZM375.641 361.254H372.767V357.139H375.641V361.254ZM381.39 361.254H378.516V357.139H381.39V361.254ZM387.139 361.254H384.265V357.139H387.139V361.254ZM392.888 361.254H390.014V357.139H392.888V361.254ZM398.637 361.254H395.763V357.139H398.637V361.254ZM404.386 361.254H401.512V357.139H404.386V361.254ZM410.135 361.254H407.261V357.139H410.135V361.254ZM415.884 361.254H413.01V357.139H415.884V361.254ZM421.633 361.254H418.759V357.139H421.633V361.254ZM427.382 361.254H424.508V357.139H427.382V361.254ZM433.132 361.254H430.257V357.139H433.132V361.254ZM437.443 361.254H436.006V357.139H437.443V361.254ZM345.459 398.176H346.896V394.061H345.459V398.176ZM349.771 398.176H352.645V394.061H349.771V398.176ZM355.52 398.176H358.394V394.061H355.52V398.176ZM361.269 398.176H364.143V394.061H361.269V398.176ZM367.018 398.176H369.892V394.061H367.018V398.176ZM372.767 398.176H375.641V394.061H372.767V398.176ZM378.516 398.176H381.39V394.061H378.516V398.176ZM384.265 398.176H387.139V394.061H384.265V398.176ZM390.014 398.176H392.888V394.061H390.014V398.176ZM395.763 398.176H398.637V394.061H395.763V398.176ZM401.512 398.176H404.386V394.061H401.512V398.176ZM407.261 398.176H410.135V394.061H407.261V398.176ZM413.01 398.176H415.884V394.061H413.01V398.176ZM418.759 398.176H421.633V394.061H418.759V398.176ZM424.508 398.176H427.382V394.061H424.508V398.176ZM430.257 398.176H433.132V394.061H430.257V398.176ZM436.006 398.176H437.443V394.061H436.006V398.176Z" fill="#00676D"/>
<path fill-rule="evenodd" clip-rule="evenodd" d="M235.904 295.743C235.076 295.743 234.404 296.415 234.404 297.243C234.404 298.072 235.076 298.743 235.904 298.743H297.483C298.312 298.743 298.983 298.072 298.983 297.243C298.983 296.415 298.312 295.743 297.483 295.743H235.904ZM235.904 306.931C235.076 306.931 234.404 307.602 234.404 308.431C234.404 309.259 235.076 309.931 235.904 309.931H297.483C298.312 309.931 298.983 309.259 298.983 308.431C298.983 307.602 298.312 306.931 297.483 306.931H235.904Z" fill="#195E60"/>
<path fill-rule="evenodd" clip-rule="evenodd" d="M343.344 277.107C343.344 276.255 343.997 275.564 344.803 275.564H439.157C439.963 275.564 440.615 276.255 440.615 277.107C440.615 277.96 439.963 278.65 439.157 278.65H344.803C343.997 278.65 343.344 277.96 343.344 277.107ZM343.344 302.837C343.344 301.985 343.997 301.294 344.802 301.294H424.354C425.16 301.294 425.813 301.985 425.813 302.837C425.813 303.69 425.16 304.381 424.354 304.381H344.802C343.997 304.381 343.344 303.69 343.344 302.837ZM344.802 328.141C343.997 328.141 343.344 328.832 343.344 329.684C343.344 330.536 343.997 331.227 344.802 331.227H441.271C442.077 331.227 442.73 330.536 442.73 329.684C442.73 328.832 442.077 328.141 441.271 328.141H344.802Z" fill="#9CD7D1"/>
<path fill-rule="evenodd" clip-rule="evenodd" d="M341.162 260.073C341.846 260.997 342.86 261.66 344.205 262.062L344.637 260.675C343.072 260.146 342.279 258.775 342.256 256.565V254.081C342.256 252.241 341.621 250.959 340.354 250.236C341.621 249.521 342.256 248.251 342.256 246.427V243.992C342.256 241.725 343.05 240.322 344.637 239.784L344.205 238.397C342.844 238.808 341.83 239.466 341.162 240.375C340.501 241.275 340.163 242.46 340.148 243.931V246.439C340.148 248.383 339.343 249.356 337.732 249.356V251.104C339.343 251.104 340.148 252.08 340.148 254.033V256.432C340.148 257.943 340.486 259.157 341.162 260.073ZM442.17 256.685C442.118 258.824 441.32 260.154 439.778 260.676L440.222 262.062C441.551 261.66 442.558 261.006 443.242 260.097C443.933 259.189 444.278 257.979 444.278 256.469V254.033C444.278 252.081 445.083 251.104 446.694 251.104V249.357C445.083 249.357 444.278 248.396 444.278 246.475V243.943C444.27 242.456 443.929 241.263 443.252 240.362C442.577 239.454 441.567 238.8 440.222 238.398L439.789 239.784C441.377 240.322 442.17 241.725 442.17 243.992V246.439C442.17 248.311 442.858 249.577 444.232 250.236C442.858 250.911 442.17 252.177 442.17 254.033V256.685ZM439.778 369.194C441.32 368.671 442.118 367.341 442.17 365.204V362.552C442.17 360.695 442.858 359.429 444.232 358.754C442.858 358.095 442.17 356.829 442.17 354.957V352.509C442.17 350.243 441.377 348.841 439.789 348.302L440.222 346.915C441.567 347.317 442.577 347.973 443.252 348.881C443.929 349.781 444.27 350.974 444.278 352.461V354.993C444.278 356.913 445.083 357.874 446.694 357.874V359.622C445.083 359.622 444.278 360.598 444.278 362.552V364.987C444.278 366.498 443.933 367.707 443.242 368.615C442.558 369.523 441.551 370.179 440.222 370.58L439.778 369.194ZM341.163 368.591C341.847 369.515 342.861 370.179 344.205 370.58L344.638 369.194C343.073 368.663 342.279 367.293 342.257 365.083V362.6C342.257 360.759 341.622 359.477 340.354 358.754C341.622 358.039 342.257 356.769 342.257 354.944V352.509C342.257 350.243 343.05 348.841 344.638 348.302L344.205 346.915C342.845 347.326 341.831 347.984 341.163 348.892C340.502 349.792 340.164 350.979 340.149 352.449V354.957C340.149 356.901 339.344 357.874 337.733 357.874V359.622C339.344 359.622 340.149 360.598 340.149 362.552V364.951C340.149 366.461 340.486 367.675 341.163 368.591ZM439.778 406.111C441.32 405.589 442.118 404.259 442.17 402.121V399.468C442.17 397.613 442.858 396.346 444.232 395.671C442.858 395.012 442.17 393.747 442.17 391.874V389.427C442.17 387.161 441.377 385.758 439.789 385.22L440.222 383.833C441.567 384.235 442.577 384.89 443.252 385.798C443.929 386.698 444.27 387.891 444.278 389.379V391.91C444.278 393.831 445.083 394.791 446.694 394.791V396.54C445.083 396.54 444.278 397.516 444.278 399.468V401.904C444.278 403.415 443.933 404.624 443.242 405.533C442.558 406.441 441.551 407.095 440.222 407.498L439.778 406.111ZM341.163 405.508C341.847 406.433 342.861 407.095 344.205 407.498L344.638 406.111C343.073 405.581 342.279 404.211 342.257 402V399.517C342.257 397.676 341.622 396.395 340.354 395.671C341.622 394.956 342.257 393.686 342.257 391.862V389.427C342.257 387.161 343.05 385.758 344.638 385.22L344.205 383.833C342.845 384.243 341.831 384.902 341.163 385.81C340.502 386.71 340.164 387.895 340.149 389.366V391.874C340.149 393.819 339.344 394.791 337.733 394.791V396.54C339.344 396.54 340.149 397.516 340.149 399.468V401.867C340.149 403.379 340.486 404.592 341.163 405.508ZM343.345 320.735C343.345 319.883 343.998 319.192 344.804 319.192H372.548C373.353 319.192 374.006 319.883 374.006 320.735C374.006 321.588 373.353 322.278 372.548 322.278H344.804C343.998 322.278 343.345 321.588 343.345 320.735ZM344.804 310.243C343.998 310.243 343.345 310.934 343.345 311.787C343.345 312.639 343.998 313.33 344.804 313.33H372.548C373.353 313.33 374.006 312.639 374.006 311.787C374.006 310.934 373.353 310.243 372.548 310.243H344.804ZM343.345 286.056C343.345 285.204 343.998 284.513 344.804 284.513H372.548C373.353 284.513 374.006 285.204 374.006 286.056C374.006 286.908 373.353 287.599 372.548 287.599H344.804C343.998 287.599 343.345 286.908 343.345 286.056ZM344.804 292.346C343.998 292.346 343.345 293.037 343.345 293.889C343.345 294.741 343.998 295.432 344.804 295.432H372.548C373.353 295.432 374.006 294.741 374.006 293.889C374.006 293.037 373.353 292.346 372.548 292.346H344.804Z" fill="#17B582"/>
<path d="M320.088 243.967H234.447V259.629H320.088V243.967Z" fill="#9CD7D1"/>
<path d="M320.088 271.936H234.447V287.598H320.088V271.936Z" fill="#9CD7D1"/>
</g>
<defs>
<filter id="filter0_f" x="483.613" y="115.388" width="158.889" height="299.956" filterUnits="userSpaceOnUse" color-interpolation-filters="sRGB">
<feFlood flood-opacity="0" result="BackgroundImageFix"/>
<feBlend mode="normal" in="SourceGraphic" in2="BackgroundImageFix" result="shape"/>
<feGaussianBlur stdDeviation="2" result="effect1_foregroundBlur"/>
</filter>
<filter id="filter1_f" x="238.92" y="235.636" width="222.289" height="179.1" filterUnits="userSpaceOnUse" color-interpolation-filters="sRGB">
<feFlood flood-opacity="0" result="BackgroundImageFix"/>
<feBlend mode="normal" in="SourceGraphic" in2="BackgroundImageFix" result="shape"/>
<feGaussianBlur stdDeviation="2.5" result="effect1_foregroundBlur"/>
</filter>
<linearGradient id="paint0_linear" x1="290.834" y1="462.365" x2="290.834" y2="517.916" gradientUnits="userSpaceOnUse">
<stop stop-color="#7E848F"/>
<stop offset="0.447817" stop-color="#6F7682"/>
<stop offset="0.447917" stop-color="#646C79"/>
<stop offset="1" stop-color="#4A5363"/>
</linearGradient>
<clipPath id="clip0">
<rect width="640" height="640" fill="white"/>
</clipPath>
</defs>
</svg>
