<svg width="576" height="516" viewBox="0 0 576 516" fill="none" xmlns="http://www.w3.org/2000/svg">
<path fill-rule="evenodd" clip-rule="evenodd" d="M167.514 418.694C183.418 446.248 205.142 468.39 230.245 484.467C214.571 484.267 198.811 482.106 183.269 477.944C157.035 470.906 133.114 458.615 112.666 441.963C96.0003 421.507 83.7031 397.572 76.6709 371.328C75.1292 365.575 73.8621 359.791 72.8675 353.993C83.4433 361.501 95.0939 368.276 107.769 374.165L154.285 395.781L167.514 418.694ZM72.143 349.442C83.3689 357.746 95.8859 365.191 109.628 371.577L151.561 391.063L92.7257 289.16C87.724 280.493 83.4353 271.549 79.8688 262.397C70.488 290.361 67.8268 320.04 72.143 349.442ZM78.0387 257.506C67.7971 286.023 64.4847 316.41 68.3797 346.589C59.8939 339.994 52.1898 332.895 45.3006 325.387C38.4355 282.94 46.341 239.472 67.0394 202.369C67.9562 221.139 71.6451 239.685 78.0387 257.506ZM81.5776 257.524C85.3387 267.794 90.0177 277.814 95.6009 287.482L156.815 393.504L254.498 438.898C276.983 449.35 301.17 456.279 326.042 459.58C326.372 459.392 326.7 459.204 327.03 459.014L435.775 396.227L498.561 287.482C504.145 277.814 508.824 267.794 512.583 257.524C508.824 247.255 504.145 237.236 498.561 227.568L444.019 133.101L321.506 76.1689C303.317 67.7151 284.012 61.5654 264.129 57.7768L158.38 118.833L95.6009 227.568C90.0177 237.236 85.3387 247.255 81.5776 257.524ZM152.604 122.169L92.7086 225.906C87.7114 234.561 83.4273 243.494 79.8631 252.635C73.8186 234.611 70.5658 215.876 70.1744 196.962C86.1617 170.401 108.886 147.409 137.581 130.841L152.604 122.169ZM161.702 113.081L259.066 56.8658C244.887 54.461 230.438 53.2489 215.911 53.2489C212.628 53.2489 209.343 53.3107 206.055 53.4355C192.303 66.0944 180.215 81.0138 170.389 98.0347L161.702 113.081ZM200.931 53.6781C188.117 65.9685 176.81 80.2435 167.498 96.3727L155.925 116.416L135.919 127.966C108.367 143.871 86.2257 165.596 70.148 190.7C70.346 175.022 72.507 159.262 76.6709 143.722C83.417 118.545 95.008 95.4983 110.653 75.608C126.209 68.5049 142.995 62.9514 160.724 59.1286C174.031 56.2603 187.486 54.4496 200.931 53.6781ZM209.512 50.3314C227.575 49.8965 245.566 51.3055 263.129 54.5205L265.453 53.178C292.396 37.6222 322.028 28.967 352.236 27.4916C334.978 17.8658 316.343 11.0053 297.078 7.11262C264.988 13.5966 234.653 28.31 209.512 50.3314ZM288.622 5.60064C257.59 13.2074 228.46 28.4519 204.319 50.5065C189.424 51.1567 174.504 53.0612 159.757 56.2408C144.044 59.631 129.058 64.3558 114.992 70.295C128.925 53.859 145.742 39.7762 164.955 28.6808C194.72 11.4963 227.245 3.33554 259.371 3.33554C269.189 3.33554 278.971 4.09897 288.622 5.60064ZM305.569 5.59607C324.135 10.1514 342.02 17.4412 358.562 27.2879C376.282 27.012 394.15 29.2027 411.74 33.9161C433.04 39.6229 452.841 48.7348 470.542 60.7905C458.472 48.3822 444.609 37.5695 429.208 28.6808C399.442 11.4963 366.917 3.33554 334.791 3.33554C324.982 3.33554 315.211 4.09669 305.569 5.59607ZM483.816 70.7024C469.235 52.8769 451.389 37.6611 430.852 25.8057C388.823 1.53858 341.353 -5.04841 297.114 3.71896C252.852 -5.07359 205.35 1.50653 163.293 25.7885C141.768 38.2196 123.203 54.3305 108.256 73.2651C75.5298 88.3127 48.1895 110.125 28.8452 137.102C-15.3145 198.664 -7.13538 273.189 42.2103 327.055C45.913 349.099 53.5381 370.855 65.3523 391.322C77.2146 411.862 92.4281 429.707 110.248 444.284C124.84 462.144 142.709 477.387 163.276 489.261C193.573 506.746 226.664 515.055 259.354 515.055C272.052 515.055 284.688 513.801 297.07 511.343C309.454 513.801 322.091 515.055 334.791 515.055C367.482 515.055 400.589 506.746 430.87 489.245C458.427 473.33 481.133 451.383 497.607 425.202C517.257 412.159 534.045 396.246 547.159 377.965C584.133 326.42 584.408 265.788 554.556 215.803C553.904 184.427 545.577 152.787 528.809 123.745C516.925 103.167 501.678 85.2945 483.816 70.7024ZM481.57 73.1781C461.102 56.488 437.149 44.1714 410.875 37.1231C395.35 32.9649 379.599 30.8074 363.935 30.6071C389.031 46.6825 410.748 68.8162 426.648 96.3556L446.549 130.824L468.236 140.902C489.613 150.836 508.079 163.292 523.387 177.537C522.451 166.227 520.49 154.917 517.491 143.722C510.47 117.516 498.199 93.6132 481.57 73.1781ZM526.948 180.939C526.14 168.213 524.058 155.472 520.682 142.874C514.978 121.589 505.872 101.797 493.826 84.1019C506.223 96.1644 517.028 110.016 525.917 125.407C541.374 152.181 549.534 181.198 551.015 210.14C544.283 199.846 536.241 190.051 526.948 180.939ZM523.732 182.494C508.092 167.241 488.875 153.944 466.377 143.49L449.273 135.542L501.437 225.89C506.439 234.554 510.728 243.498 514.295 252.648C521.88 230.034 525.071 206.298 523.732 182.494ZM516.111 257.501C524.36 234.509 528.105 210.303 527.201 185.971C536.648 195.696 544.686 206.161 551.244 217.149C551.715 250.525 543.356 283.554 527.123 312.666C526.205 293.886 522.513 275.329 516.111 257.501ZM514.287 262.378C510.719 271.537 506.427 280.488 501.419 289.16L441.517 392.913L456.563 384.225C485.27 367.652 508 344.65 523.988 318.076C523.594 299.153 520.338 280.409 514.287 262.378ZM432.446 401.994L331.546 460.25C350.72 462.374 370.254 462.355 389.689 460.142C402.788 447.804 414.325 433.381 423.773 417.016L432.446 401.994ZM395.192 459.457C407.188 447.61 417.808 433.985 426.631 418.694L438.188 398.679L458.242 387.101C485.794 371.192 507.937 349.461 524.014 324.351C523.816 340.028 521.655 355.789 517.491 371.328C512.522 389.853 504.932 407.225 495.037 423.035C471.995 438.292 444.958 449.538 415.279 455.938C408.613 457.376 401.911 458.548 395.192 459.457ZM385.98 463.545C377.354 464.389 368.712 464.81 360.094 464.81C349.057 464.81 338.064 464.122 327.194 462.754C300.65 477.765 271.565 486.123 241.942 487.572C259.194 497.192 277.82 504.048 297.081 507.938C329.74 501.341 360.579 486.219 385.98 463.545ZM305.576 509.456C337.341 501.658 367.113 485.856 391.572 462.938C399.825 461.955 408.056 460.585 416.228 458.825C443.63 452.915 468.818 442.947 490.765 429.557C474.978 452.593 454.108 471.988 429.208 486.37C390.36 508.798 346.789 515.86 305.576 509.456ZM288.572 509.458C270.014 504.904 252.139 497.618 235.604 487.775C234.613 487.792 233.622 487.8 232.63 487.8C215.876 487.8 199.025 485.605 182.422 481.151C161.142 475.448 141.358 466.349 123.669 454.311C135.728 466.697 149.574 477.493 164.955 486.37C203.798 508.794 247.364 515.859 288.572 509.458ZM100.272 430.919C87.8945 418.867 77.1058 405.031 68.2274 389.66C57.5028 371.084 50.2921 351.427 46.3868 331.464C53.2256 338.448 60.7832 345.054 69.0321 351.202C70.1102 358.224 71.581 365.23 73.4467 372.193C79.1455 393.46 88.2402 413.236 100.272 430.919ZM357.654 30.6323C326.531 31.2755 295.883 39.6629 268.11 55.482C287.238 59.3746 305.811 65.4237 323.365 73.5799L441.295 128.383L423.773 98.0347C407.208 69.3427 384.215 46.6196 357.654 30.6323ZM73.4638 142.857C68.7471 160.457 66.5575 178.334 66.8357 196.063C44.6402 233.356 35.4436 277.472 41.2706 320.841C-3.69937 268.299 -10.1387 197.43 32.0614 138.598C49.8743 113.759 74.5912 93.3671 104.102 78.7281C90.1676 97.752 79.7509 119.395 73.4638 142.857ZM236.538 484.44C266.026 483.826 295.072 476.258 321.668 461.999C297.683 458.459 274.378 451.59 252.639 441.486L159.539 398.222L170.389 417.016C186.962 445.722 209.965 468.452 236.538 484.44ZM520.699 372.175C525.413 354.581 527.604 336.71 527.327 318.986C544.611 289.937 554.012 256.749 554.571 223.002C580.476 270.942 578.838 327.82 543.942 376.469C532.506 392.416 518.224 406.531 501.654 418.466C509.882 404.109 516.301 388.587 520.699 372.175Z" fill="white" fill-opacity="0.1"/>
<path d="M297.081 385.505C367.757 385.505 425.052 328.21 425.052 257.533C425.052 186.856 367.757 129.562 297.081 129.562C226.404 129.562 169.109 186.856 169.109 257.533C169.109 328.21 226.404 385.505 297.081 385.505Z" fill="#6EC5B8"/>
<path fill-rule="evenodd" clip-rule="evenodd" d="M254.094 303.31L288.141 211.745H307.034L341.081 303.31H254.094ZM297.072 234.012L279.207 285.912H316.019L298.154 234.012H297.072Z" fill="#00676D"/>
</svg>
