<svg width="224" height="60" viewBox="0 0 224 60" fill="none" xmlns="http://www.w3.org/2000/svg">
<path fill-rule="evenodd" clip-rule="evenodd" d="M39.7713 16.4458C44.0467 16.4458 46.1448 18.8193 46.1448 23.1769V36.9498C46.1448 41.3072 44.0467 43.6805 39.7713 43.6805H33.0088V16.4458H39.7713ZM53.1402 16.4458V43.6805H48.8651V16.4458H53.1402ZM67.5575 16.4458V20.3368H60.5235V28.5455H66.0424V32.4368H60.5235V43.6805H56.2482V16.4458H67.5575ZM80.9264 16.4458V20.3368H73.8924V28.5455H79.4111V32.4368H73.8924V43.6805H69.6171V16.4458H80.9264ZM94.6449 16.4458V20.3368H87.2609V27.9232H93.1296V31.8143H87.2609V39.7899H94.6449V43.6805H82.9858V16.4458H94.6449ZM103.739 16.4458C108.169 16.4458 110.074 18.5081 110.074 22.7097V24.8495C110.074 27.6508 109.18 29.4797 107.275 30.3749C109.413 31.2697 110.112 33.332 110.112 36.1719V40.373C110.112 41.6968 110.152 42.6694 110.579 43.6805H106.226C105.993 42.9802 105.837 42.5525 105.837 40.3348V36.0549C105.837 33.5255 104.983 32.5923 103.039 32.5923H101.563V43.6805H97.2874V16.4458H103.739ZM124.569 16.4458V20.3368H117.185V27.9232H123.053V31.8143H117.185V39.7899H124.569V43.6805H112.91V16.4458H124.569ZM132.536 16.4458L136.928 32.7476V16.4458H140.736V43.6805H136.345L131.02 23.9547V43.6805H127.173V16.4458H132.536ZM155.776 16.4458V20.3368H151.307V43.6805H147.031V20.3368H142.562V16.4458H155.776ZM161.916 16.4458V43.6805H157.641V16.4458H161.916ZM174.507 16.4458L178.86 43.6805H174.546L173.808 38.7396H168.561L167.823 43.6805H163.898L168.25 16.4458H174.507ZM185.117 16.4458V39.7899H192.151V43.6805H180.842V16.4458H185.117ZM39.6937 20.3368H37.284V39.7899H39.6937C41.0538 39.7899 41.8696 39.0896 41.8696 37.1445V22.982C41.8696 21.0369 41.0538 20.3368 39.6937 20.3368ZM171.165 21.2704L169.105 35.0428H173.225L171.165 21.2704ZM103.622 20.3368H101.563V28.7019H103.233C104.827 28.7019 105.798 28.0015 105.798 25.8221V23.138C105.798 21.1922 105.138 20.3368 103.622 20.3368ZM194.031 16.4458C195.112 16.4458 195.91 17.2662 195.91 18.3815C195.91 19.4968 195.112 20.3172 194.031 20.3172C192.95 20.3172 192.151 19.4968 192.151 18.3815C192.151 17.2662 192.95 16.4458 194.031 16.4458ZM194.031 16.7191C193.107 16.7191 192.43 17.4299 192.43 18.3815C192.43 19.3331 193.107 20.0437 194.031 20.0437C194.954 20.0437 195.631 19.3331 195.631 18.3815C195.631 17.4299 194.954 16.7191 194.031 16.7191ZM194.057 17.2113C194.474 17.2113 194.653 17.4244 194.653 17.8237V17.8783C194.653 18.1628 194.561 18.3486 194.336 18.4306C194.566 18.5071 194.653 18.6986 194.653 18.9774V19.229C194.653 19.3494 194.66 19.4589 194.713 19.5517H194.402C194.37 19.4752 194.359 19.4094 194.359 19.229V18.9774C194.359 18.6713 194.211 18.5838 193.96 18.5838H193.758V19.5517H193.463V17.2113H194.057ZM194.041 17.4847H193.758V18.3048H194.004C194.227 18.3048 194.354 18.2174 194.354 17.944V17.8566C194.354 17.6159 194.271 17.4847 194.041 17.4847Z" fill="#121212"/>
</svg>
