<svg width="181" height="33" viewBox="0 0 181 33" fill="none" xmlns="http://www.w3.org/2000/svg">
<g clip-path="url(#clip0)">
<path d="M18.6502 19.1802C20.2477 19.1802 21.5426 17.8852 21.5426 16.2878C21.5426 14.6904 20.2477 13.3954 18.6502 13.3954C17.0528 13.3954 15.7578 14.6904 15.7578 16.2878C15.7578 17.8852 17.0528 19.1802 18.6502 19.1802Z" fill="white"/>
<path d="M18.6501 10.4069C22.5336 10.4069 26.1412 10.9641 28.8613 11.9005C32.1387 13.0288 34.1538 14.7391 34.1538 16.2877C34.1538 17.9016 32.0182 19.7184 28.4988 20.8845C25.8379 21.7661 22.3366 22.2263 18.6501 22.2263C14.8706 22.2263 11.2916 21.7943 8.60134 20.8748C5.197 19.7111 3.14648 17.8707 3.14648 16.2877C3.14648 14.7517 5.07045 13.0546 8.30176 11.928C11.032 10.9762 14.7287 10.4069 18.6501 10.4069V10.4069Z" stroke="white" stroke-width="1.3837" stroke-miterlimit="10"/>
<path d="M13.5301 13.3642C15.4702 10.0001 17.7552 7.15331 19.9253 5.26475C22.54 2.98931 25.0282 2.09814 26.3697 2.87176C27.7678 3.67795 28.2748 6.43567 27.5267 10.0669C26.9611 12.8124 25.6106 16.0754 23.7689 19.2688C21.8808 22.543 19.7186 25.4276 17.5781 27.2987C14.8694 29.6665 12.2507 30.5233 10.8793 29.7325C9.54871 28.9651 9.03979 26.4507 9.67815 23.0886C10.2175 20.2479 11.5711 16.7612 13.5301 13.3642V13.3642Z" stroke="white" stroke-width="1.3837" stroke-miterlimit="10"/>
<path d="M13.5349 19.2774C11.5892 15.9166 10.264 12.5152 9.7116 9.69191C9.04603 6.29029 9.51661 3.68945 10.8569 2.91358C12.2535 2.10501 14.8959 3.04296 17.6683 5.50462C19.7644 7.36574 21.9168 10.1653 23.7638 13.3558C25.6575 16.6267 27.0768 19.9405 27.6288 22.7295C28.3274 26.2588 27.762 28.9554 26.3919 29.7485C25.0626 30.5181 22.63 29.7033 20.036 27.4712C17.8444 25.5852 15.4996 22.6712 13.5349 19.2774V19.2774Z" stroke="white" stroke-width="1.3837" stroke-miterlimit="10"/>
<path d="M49.5306 16.0194H45.4452V23.0554H43.1397V5.6625H48.8975C50.8566 5.6625 52.3618 6.10847 53.413 7.00042C54.4722 7.89236 55.0018 9.19046 55.0018 10.8947C55.0018 11.9778 54.7071 12.9215 54.1178 13.7258C53.5364 14.5302 52.7241 15.1314 51.6809 15.5296L55.7663 22.9121V23.0554H53.3055L49.5306 16.0194ZM45.4452 14.1439H48.9692C50.108 14.1439 51.0119 13.8493 51.6809 13.26C52.3578 12.6706 52.6962 11.8822 52.6962 10.8947C52.6962 9.8196 52.3737 8.99535 51.7286 8.42195C51.0915 7.84856 50.1677 7.55788 48.9572 7.54992H45.4452V14.1439ZM63.2443 23.2943C61.4922 23.2943 60.0667 22.7209 58.9677 21.5742C57.8687 20.4194 57.3192 18.8784 57.3192 16.9512V16.545C57.3192 15.2628 57.5621 14.12 58.0479 13.1166C58.5417 12.1052 59.2265 11.3168 60.1026 10.7514C60.9865 10.178 61.9422 9.89127 62.9695 9.89127C64.6499 9.89127 65.956 10.4448 66.8877 11.5517C67.8195 12.6587 68.2854 14.2435 68.2854 16.3061V17.2259H59.5292C59.561 18.5001 59.9313 19.5314 60.6401 20.3199C61.3569 21.1003 62.2647 21.4905 63.3637 21.4905C64.1442 21.4905 64.8052 21.3313 65.3467 21.0127C65.8883 20.6942 66.3621 20.2721 66.7683 19.7465L68.1181 20.7977C67.035 22.4621 65.4104 23.2943 63.2443 23.2943ZM62.9695 11.707C62.0776 11.707 61.329 12.0335 60.7237 12.6866C60.1185 13.3316 59.7442 14.2395 59.6008 15.4102H66.0754V15.2429C66.0117 14.12 65.7091 13.252 65.1675 12.6388C64.626 12.0176 63.8933 11.707 62.9695 11.707ZM78.8334 23.0554C78.706 22.8006 78.6025 22.3466 78.5228 21.6936C77.4955 22.7608 76.2691 23.2943 74.8435 23.2943C73.5693 23.2943 72.5221 22.936 71.7018 22.2192C70.8895 21.4945 70.4834 20.5787 70.4834 19.4717C70.4834 18.1258 70.993 17.0826 72.0124 16.3419C73.0397 15.5933 74.4812 15.219 76.3368 15.219H78.487V14.2037C78.487 13.4312 78.256 12.818 77.7941 12.364C77.3322 11.9021 76.6513 11.6712 75.7514 11.6712C74.963 11.6712 74.302 11.8703 73.7684 12.2685C73.2349 12.6667 72.9681 13.1485 72.9681 13.7139H70.7462C70.7462 13.0688 70.9731 12.4476 71.4271 11.8504C71.889 11.2451 72.5102 10.7673 73.2906 10.4169C74.079 10.0665 74.9431 9.89127 75.8828 9.89127C77.372 9.89127 78.5387 10.2656 79.3829 11.0142C80.2271 11.7548 80.6651 12.7781 80.6969 14.0842V20.0332C80.6969 21.2198 80.8482 22.1635 81.1509 22.8643V23.0554H78.8334ZM75.1661 21.3711C75.8589 21.3711 76.5159 21.1919 77.1371 20.8335C77.7583 20.4752 78.2082 20.0093 78.487 19.4359V16.7839H76.7549C74.0472 16.7839 72.6933 17.5763 72.6933 19.1611C72.6933 19.854 72.9243 20.3955 73.3862 20.7857C73.8481 21.176 74.4414 21.3711 75.1661 21.3711ZM89.3456 21.4905C90.134 21.4905 90.8229 21.2516 91.4122 20.7738C92.0015 20.296 92.328 19.6987 92.3918 18.9819H94.4823C94.4424 19.7226 94.1876 20.4274 93.7177 21.0963C93.2479 21.7653 92.6187 22.2989 91.8303 22.697C91.0499 23.0952 90.2216 23.2943 89.3456 23.2943C87.5856 23.2943 86.184 22.709 85.1407 21.5383C84.1054 20.3597 83.5878 18.751 83.5878 16.7123V16.3419C83.5878 15.0837 83.8187 13.9648 84.2806 12.9852C84.7425 12.0057 85.4035 11.2451 86.2636 10.7036C87.1317 10.162 88.155 9.89127 89.3337 9.89127C90.7831 9.89127 91.9856 10.3253 92.9413 11.1934C93.9049 12.0614 94.4185 13.1883 94.4823 14.574H92.3918C92.328 13.7378 92.0095 13.0529 91.4361 12.5193C90.8707 11.9778 90.1699 11.707 89.3337 11.707C88.2108 11.707 87.3387 12.1132 86.7176 12.9255C86.1043 13.7298 85.7977 14.8965 85.7977 16.4256V16.8437C85.7977 18.3329 86.1043 19.4797 86.7176 20.284C87.3308 21.0884 88.2068 21.4905 89.3456 21.4905ZM99.9653 7.00042V10.1302H102.378V11.8384H99.9653V19.854C99.9653 20.3716 100.073 20.7618 100.288 21.0247C100.503 21.2795 100.869 21.4069 101.387 21.4069C101.642 21.4069 101.992 21.3591 102.438 21.2636V23.0554C101.857 23.2147 101.291 23.2943 100.742 23.2943C99.7543 23.2943 99.0097 22.9957 98.5079 22.3984C98.0062 21.8011 97.7554 20.953 97.7554 19.854V11.8384H95.4021V10.1302H97.7554V7.00042H99.9653ZM124.753 23.0554H122.447L113.691 9.65236V23.0554H111.385V5.6625H113.691L122.471 19.1253V5.6625H124.753V23.0554ZM136.459 23.0554C136.332 22.8006 136.228 22.3466 136.149 21.6936C135.121 22.7608 133.895 23.2943 132.47 23.2943C131.195 23.2943 130.148 22.936 129.328 22.2192C128.516 21.4945 128.109 20.5787 128.109 19.4717C128.109 18.1258 128.619 17.0826 129.638 16.3419C130.666 15.5933 132.107 15.219 133.963 15.219H136.113V14.2037C136.113 13.4312 135.882 12.818 135.42 12.364C134.958 11.9021 134.277 11.6712 133.377 11.6712C132.589 11.6712 131.928 11.8703 131.394 12.2685C130.861 12.6667 130.594 13.1485 130.594 13.7139H128.372C128.372 13.0688 128.599 12.4476 129.053 11.8504C129.515 11.2451 130.136 10.7673 130.917 10.4169C131.705 10.0665 132.569 9.89127 133.509 9.89127C134.998 9.89127 136.165 10.2656 137.009 11.0142C137.853 11.7548 138.291 12.7781 138.323 14.0842V20.0332C138.323 21.2198 138.474 22.1635 138.777 22.8643V23.0554H136.459ZM132.792 21.3711C133.485 21.3711 134.142 21.1919 134.763 20.8335C135.384 20.4752 135.834 20.0093 136.113 19.4359V16.7839H134.381C131.673 16.7839 130.319 17.5763 130.319 19.1611C130.319 19.854 130.55 20.3955 131.012 20.7857C131.474 21.176 132.067 21.3711 132.792 21.3711ZM144.786 7.00042V10.1302H147.199V11.8384H144.786V19.854C144.786 20.3716 144.893 20.7618 145.108 21.0247C145.323 21.2795 145.689 21.4069 146.207 21.4069C146.462 21.4069 146.812 21.3591 147.258 21.2636V23.0554C146.677 23.2147 146.112 23.2943 145.562 23.2943C144.574 23.2943 143.83 22.9957 143.328 22.3984C142.826 21.8011 142.576 20.953 142.576 19.854V11.8384H140.222V10.1302H142.576V7.00042H144.786ZM152.192 23.0554H149.982V10.1302H152.192V23.0554ZM149.803 6.70177C149.803 6.3434 149.91 6.04078 150.125 5.7939C150.348 5.54702 150.675 5.42359 151.105 5.42359C151.535 5.42359 151.861 5.54702 152.084 5.7939C152.307 6.04078 152.419 6.3434 152.419 6.70177C152.419 7.06014 152.307 7.35879 152.084 7.5977C151.861 7.83661 151.535 7.95607 151.105 7.95607C150.675 7.95607 150.348 7.83661 150.125 7.5977C149.91 7.35879 149.803 7.06014 149.803 6.70177ZM160.004 20.0571L163.206 10.1302H165.464L160.829 23.0554H159.144L154.462 10.1302H156.719L160.004 20.0571ZM172.786 23.2943C171.034 23.2943 169.609 22.7209 168.51 21.5742C167.411 20.4194 166.861 18.8784 166.861 16.9512V16.545C166.861 15.2628 167.104 14.12 167.59 13.1166C168.084 12.1052 168.768 11.3168 169.645 10.7514C170.528 10.178 171.484 9.89127 172.511 9.89127C174.192 9.89127 175.498 10.4448 176.43 11.5517C177.361 12.6587 177.827 14.2435 177.827 16.3061V17.2259H169.071C169.103 18.5001 169.473 19.5314 170.182 20.3199C170.899 21.1003 171.807 21.4905 172.906 21.4905C173.686 21.4905 174.347 21.3313 174.889 21.0127C175.43 20.6942 175.904 20.2721 176.31 19.7465L177.66 20.7977C176.577 22.4621 174.952 23.2943 172.786 23.2943ZM172.511 11.707C171.62 11.707 170.871 12.0335 170.266 12.6866C169.66 13.3316 169.286 14.2395 169.143 15.4102H175.617V15.2429C175.554 14.12 175.251 13.252 174.709 12.6388C174.168 12.0176 173.435 11.707 172.511 11.707Z" fill="white"/>
</g>
<defs>
<clipPath id="clip0">
<rect y="0.309204" width="180.607" height="32" fill="white"/>
</clipPath>
</defs>
</svg>
