<svg width="147" height="53" viewBox="0 0 147 53" fill="none" xmlns="http://www.w3.org/2000/svg">
<g clip-path="url(#clip0)">
<path d="M30.2741 18.5935H26.6264L21.3574 32.2688H24.6599L25.5156 29.942H30.4993L29.5986 27.3901H26.3112L28.4428 21.5057L32.2406 32.2688H35.5431L30.2741 18.5935ZM85.7109 32.2688V18.5935H88.6381V29.7018H94.4175V32.2688H85.7109ZM102.599 32.2688V18.5935H105.541V29.7018H111.32V32.2688H102.599ZM69.4687 21.0403C71.9005 21.0403 73.867 23.0068 73.867 25.4386C73.867 27.8704 71.9005 29.8369 69.4687 29.8369C67.0368 29.8369 65.0704 27.8704 65.0704 25.4386C65.0704 23.0068 67.0518 21.0403 69.4687 21.0403ZM69.4687 18.3683C65.5657 18.3683 62.3983 21.5357 62.3983 25.4386C62.3983 29.3416 65.5657 32.5089 69.4687 32.5089C73.3716 32.5089 76.539 29.3416 76.539 25.4386C76.539 21.5357 73.3716 18.3683 69.4687 18.3683ZM124.8 21.0403C127.232 21.0403 129.199 23.0068 129.199 25.4386C129.199 27.8704 127.232 29.8369 124.8 29.8369C122.369 29.8369 120.402 27.8704 120.402 25.4386C120.402 23.0068 122.369 21.0403 124.8 21.0403ZM124.8 18.3683C120.897 18.3683 117.73 21.5357 117.73 25.4386C117.73 29.3416 120.897 32.5089 124.8 32.5089C128.703 32.5089 131.871 29.3416 131.871 25.4386C131.871 21.5357 128.703 18.3683 124.8 18.3683ZM50.4493 18.5935H44.0695V32.2688H46.9817V27.5552H50.4493C52.8812 27.5552 54.8477 25.4987 54.8477 23.0668C54.8477 20.65 52.8812 18.5935 50.4493 18.5935ZM50.4493 24.8832H46.9817V21.2655H50.4493C51.3951 21.2655 52.1756 22.1211 52.1756 23.0668C52.1756 24.0125 51.3951 24.8832 50.4493 24.8832Z" fill="white"/>
<path d="M41.564 36.4118C41.3088 36.4118 41.0837 36.5319 40.9486 36.727C40.9486 36.727 40.2881 37.4776 39.9428 37.8378C38.4417 39.339 36.7004 40.5098 34.7639 41.3355C32.7524 42.1911 30.6208 42.6114 28.4141 42.6114C26.2075 42.6114 24.0759 42.1761 22.0643 41.3355C20.1279 40.5098 18.3716 39.339 16.8854 37.8378C15.3843 36.3367 14.2134 34.5954 13.3878 32.6589C12.5322 30.6474 12.1118 28.5158 12.1118 26.3092C12.1118 24.1025 12.5472 21.9709 13.3878 19.9594C14.1984 18.0229 15.3693 16.2666 16.8704 14.7805C18.3716 13.2793 20.1129 12.1084 22.0493 11.2828C24.0608 10.4272 26.1925 10.0069 28.3991 10.0069C30.6058 10.0069 32.7374 10.4422 34.7489 11.2828C36.16 11.8833 37.4659 12.6639 38.6518 13.6246C38.5918 13.8047 38.5468 14.0149 38.5468 14.225C38.5468 15.2458 39.3724 16.0714 40.3932 16.0714C41.4139 16.0714 42.2395 15.2458 42.2395 14.225C42.2395 13.2043 41.4139 12.3787 40.3932 12.3787C40.138 12.3787 39.8978 12.4237 39.6876 12.5288C36.6103 10.0069 32.6924 8.49072 28.3991 8.49072C18.5667 8.49072 10.5957 16.4617 10.5957 26.3092C10.5957 36.1566 18.5667 44.1276 28.4141 44.1276C33.9233 44.1276 38.832 41.6357 42.1044 37.7027C42.2395 37.5676 42.3296 37.3725 42.3296 37.1773C42.3146 36.757 41.9693 36.4118 41.564 36.4118Z" fill="white"/>
</g>
<defs>
<clipPath id="clip0">
<rect x="0.0117188" width="146" height="52.6184" fill="white"/>
</clipPath>
</defs>
</svg>
