<?xml version="1.0" encoding="UTF-8"?>
<svg width="48px" height="48px" viewBox="0 0 48 48" version="1.1" xmlns="http://www.w3.org/2000/svg" xmlns:xlink="http://www.w3.org/1999/xlink">
    <!-- Generator: Sketch 54.1 (76490) - https://sketchapp.com -->
    <title>icons / feature-2-standard</title>
    <desc>Created with Sketch.</desc>
    <g id="icons-/-feature-2-standard" stroke="none" stroke-width="1" fill="none" fill-rule="evenodd">
        <g id="Group">
            <path d="M44.4414018,36.65588 C45.2732703,36.364296 46.1892613,36.7876233 46.4873249,37.6014077 C46.7853884,38.4151922 46.352654,39.3112703 45.5207854,39.6028543 L24.5401308,46.9569261 C24.1912134,47.0792275 23.8097149,47.0792332 23.4607936,46.9569424 L2.47810273,39.6028705 C1.64622496,39.3113117 1.21346225,38.4152466 1.51150017,37.6014531 C1.80953809,36.7876597 2.72551573,36.3643049 3.5573935,36.6558637 L24.0004128,43.8207899 L44.4414018,36.65588 Z M24.0004131,31.8446217 L44.4468651,24.7595033 C45.2798087,24.4708711 46.1942251,24.8974437 46.4892713,25.7122798 C46.7843175,26.5271158 46.3482655,27.4216536 45.515322,27.7102858 L24.5346674,34.9805164 C24.1890525,35.1002791 23.8118754,35.1002847 23.4662567,34.9805323 L2.48356576,27.7103017 C1.6506132,27.4216944 1.21453332,26.5271697 1.50955409,25.7123248 C1.80457486,24.8974799 2.71897791,24.47088 3.55193047,24.7594873 L24.0004131,31.8446217 Z" id="Combined-Shape" fill="#9CD7D1"></path>
            <path d="M2.48213292,15.7101312 C-0.718929501,14.5954228 -0.85878227,10.2330361 2.26602083,8.92872775 L23.3729299,0.125400719 C23.7738297,-0.0418076596 24.2271055,-0.0417999419 24.6279994,0.125422088 L45.7332311,8.92889891 C48.8576239,10.2330361 48.7177712,14.5954228 45.5167549,15.7101151 L24.5361004,23.0023042 C24.1896185,23.1227299 23.8113095,23.1227356 23.4648238,23.0023202 L2.48213292,15.7101312 Z M24.000413,19.8663469 L44.4445244,12.760643 C44.9014649,12.6015223 44.9209625,11.9933383 44.4777514,11.8083397 L24.0004087,3.26676989 L3.52144925,11.8081899 C3.07798545,11.9932939 3.09736749,12.6012309 3.55398886,12.7605286 L24.000413,19.8663469 Z" id="Stroke" fill="#00676D"></path>
        </g>
    </g>
</svg>