<svg width="158" height="158" viewBox="0 0 158 158" fill="none" xmlns="http://www.w3.org/2000/svg">
<g opacity="0.25">
<g clip-path="url(#clip0_162_10596)">
<path d="M35.0132 42.4467C45.0349 27.589 50.0458 20.1601 56.765 16.4355C62.6755 13.1593 69.4714 11.8383 76.1788 12.6619C83.804 13.5982 91.2329 18.609 106.091 28.6307L115.553 35.0133C130.411 45.035 137.84 50.0458 141.564 56.7651C144.841 62.6755 146.162 69.4714 145.338 76.1788C144.402 83.8041 139.391 91.2329 129.369 106.091L122.987 115.553C112.965 130.411 107.954 137.84 101.235 141.564C95.3244 144.841 88.5285 146.162 81.8212 145.338C74.1959 144.402 66.767 139.391 51.9093 129.369L42.4467 122.987C27.5889 112.965 20.1601 107.954 16.4355 101.235C13.1593 95.3245 11.8383 88.5286 12.6619 81.8212C13.5981 74.1959 18.609 66.7671 28.6306 51.9093L35.0132 42.4467Z" fill="#00676D"/>
<path fill-rule="evenodd" clip-rule="evenodd" d="M38.7408 87.7322L90.5801 50.7901L100.847 57.7156L86.0147 119.619L38.7408 87.7322ZM87.3257 66.0816L58.7214 87.5464L78.7273 101.04L87.9137 66.4782L87.3257 66.0816Z" fill="white"/>
<g style="mix-blend-mode:overlay" opacity="0.5">
<rect x="63.6439" width="113.814" height="113.814" transform="rotate(34 63.6439 0)" fill="url(#paint0_linear_162_10596)"/>
</g>
</g>
</g>
<g opacity="0.5">
<g clip-path="url(#clip1_162_10596)">
<path d="M26.2481 56.9042C31.4879 39.7656 34.1078 31.1963 39.4445 25.67C44.1388 20.8089 50.2516 17.5587 56.9066 16.3852C64.4725 15.0511 73.0417 17.671 90.1803 22.9108L101.096 26.248C118.234 31.4878 126.803 34.1076 132.33 39.4444C137.191 44.1387 140.441 50.2514 141.615 56.9065C142.949 64.4723 140.329 73.0416 135.089 90.1802L131.752 101.095C126.512 118.234 123.892 126.803 118.555 132.33C113.861 137.191 107.748 140.441 101.093 141.614C93.5275 142.948 84.9582 140.329 67.8196 135.089L56.9044 131.752C39.7658 126.512 31.1965 123.892 25.6701 118.555C20.809 113.861 17.5588 107.748 16.3853 101.093C15.0513 93.5273 17.6712 84.958 22.911 67.8194L26.2481 56.9042Z" fill="#00676D"/>
<path fill-rule="evenodd" clip-rule="evenodd" d="M43.0529 99.121L81.8262 48.6367L93.6697 52.2577L97.5838 115.793L43.0529 99.121ZM83.1848 64.2115L62.1061 93.1015L85.1831 100.157L83.863 64.4189L83.1848 64.2115Z" fill="white"/>
<g style="mix-blend-mode:overlay" opacity="0.5">
<rect x="41.2175" y="7.94141" width="113.814" height="113.814" transform="rotate(17 41.2175 7.94141)" fill="url(#paint1_linear_162_10596)"/>
</g>
</g>
</g>
<g clip-path="url(#clip2_162_10596)">
<path d="M22.093 73.2928C22.093 55.3711 22.093 46.4103 25.5808 39.5651C28.6488 33.5439 33.5441 28.6485 39.5653 25.5806C46.4105 22.0928 55.3713 22.0928 73.293 22.0928H84.707C102.629 22.0928 111.59 22.0928 118.435 25.5806C124.456 28.6485 129.351 33.5439 132.419 39.5651C135.907 46.4103 135.907 55.3711 135.907 73.2928V84.7067C135.907 102.628 135.907 111.589 132.419 118.434C129.351 124.456 124.456 129.351 118.435 132.419C111.59 135.907 102.629 135.907 84.707 135.907H73.293C55.3713 135.907 46.4105 135.907 39.5653 132.419C33.5441 129.351 28.6488 124.456 25.5808 118.434C22.093 111.589 22.093 102.628 22.093 84.7067V73.2928Z" fill="#00676D"/>
<path fill-rule="evenodd" clip-rule="evenodd" d="M50.5065 108.751L72.8254 49.1367H85.2101L107.529 108.751H50.5065ZM78.6783 63.6337L66.9672 97.4242H91.0986L79.3875 63.6337H78.6783Z" fill="white"/>
<g style="mix-blend-mode:overlay" opacity="0.5">
<rect x="22.093" y="22.0928" width="113.814" height="113.814" fill="url(#paint2_linear_162_10596)"/>
</g>
</g>
<defs>
<linearGradient id="paint0_linear_162_10596" x1="63.6439" y1="0" x2="144.614" y2="80.9702" gradientUnits="userSpaceOnUse">
<stop stop-color="white"/>
<stop offset="1" stop-color="white" stop-opacity="0"/>
</linearGradient>
<linearGradient id="paint1_linear_162_10596" x1="41.2175" y1="7.94141" x2="122.188" y2="88.9116" gradientUnits="userSpaceOnUse">
<stop stop-color="white"/>
<stop offset="1" stop-color="white" stop-opacity="0"/>
</linearGradient>
<linearGradient id="paint2_linear_162_10596" x1="22.093" y1="22.0928" x2="103.063" y2="103.063" gradientUnits="userSpaceOnUse">
<stop stop-color="white"/>
<stop offset="1" stop-color="white" stop-opacity="0"/>
</linearGradient>
<clipPath id="clip0_162_10596">
<path d="M35.0132 42.4467C45.0349 27.589 50.0458 20.1601 56.765 16.4355C62.6755 13.1593 69.4714 11.8383 76.1788 12.6619C83.804 13.5982 91.2329 18.609 106.091 28.6307L115.553 35.0133C130.411 45.035 137.84 50.0458 141.564 56.7651C144.841 62.6755 146.162 69.4714 145.338 76.1788C144.402 83.8041 139.391 91.2329 129.369 106.091L122.987 115.553C112.965 130.411 107.954 137.84 101.235 141.564C95.3244 144.841 88.5285 146.162 81.8212 145.338C74.1959 144.402 66.767 139.391 51.9093 129.369L42.4467 122.987C27.5889 112.965 20.1601 107.954 16.4355 101.235C13.1593 95.3245 11.8383 88.5286 12.6619 81.8212C13.5981 74.1959 18.609 66.7671 28.6306 51.9093L35.0132 42.4467Z" fill="white"/>
</clipPath>
<clipPath id="clip1_162_10596">
<path d="M26.2481 56.9042C31.4879 39.7656 34.1078 31.1963 39.4445 25.67C44.1388 20.8089 50.2516 17.5587 56.9066 16.3852C64.4725 15.0511 73.0417 17.671 90.1803 22.9108L101.096 26.248C118.234 31.4878 126.803 34.1076 132.33 39.4444C137.191 44.1387 140.441 50.2514 141.615 56.9065C142.949 64.4723 140.329 73.0416 135.089 90.1802L131.752 101.095C126.512 118.234 123.892 126.803 118.555 132.33C113.861 137.191 107.748 140.441 101.093 141.614C93.5275 142.948 84.9582 140.329 67.8196 135.089L56.9044 131.752C39.7658 126.512 31.1965 123.892 25.6701 118.555C20.809 113.861 17.5588 107.748 16.3853 101.093C15.0513 93.5273 17.6712 84.958 22.911 67.8194L26.2481 56.9042Z" fill="white"/>
</clipPath>
<clipPath id="clip2_162_10596">
<path d="M22.093 73.2928C22.093 55.3711 22.093 46.4103 25.5808 39.5651C28.6488 33.5439 33.5441 28.6485 39.5653 25.5806C46.4105 22.0928 55.3713 22.0928 73.293 22.0928H84.707C102.629 22.0928 111.59 22.0928 118.435 25.5806C124.456 28.6485 129.351 33.5439 132.419 39.5651C135.907 46.4103 135.907 55.3711 135.907 73.2928V84.7067C135.907 102.628 135.907 111.589 132.419 118.434C129.351 124.456 124.456 129.351 118.435 132.419C111.59 135.907 102.629 135.907 84.707 135.907H73.293C55.3713 135.907 46.4105 135.907 39.5653 132.419C33.5441 129.351 28.6488 124.456 25.5808 118.434C22.093 111.589 22.093 102.628 22.093 84.7067V73.2928Z" fill="white"/>
</clipPath>
</defs>
</svg>
