<svg width="175" height="18" viewBox="0 0 175 18" fill="none" xmlns="http://www.w3.org/2000/svg">
<g clip-path="url(#clip0_614_16697)">
<path d="M59.0933 10.0499V10.3345C59.0933 12.7811 58.0752 15.1727 54.8377 15.1727C51.356 15.1727 50.2565 12.9708 50.2565 8.13261C50.2565 3.29444 51.3407 1.09253 54.8377 1.09253C58.7624 1.09253 58.9966 3.93853 58.9966 5.34156V5.5912H56.7873V5.36152C56.7873 4.10829 56.4056 2.67031 54.8174 2.72524C53.2292 2.78015 52.4555 3.72383 52.4555 8.07772C52.4555 12.4316 53.1936 13.54 54.8174 13.54C56.655 13.54 56.8536 11.5429 56.8536 10.2746V10.0499H59.0933Z" fill="#9CA3AF"/>
<path d="M60.407 1.35718H62.4992V5.80093L62.5552 5.83588C62.8212 5.40653 63.1947 5.05093 63.64 4.80278C64.0855 4.55462 64.5881 4.42214 65.1003 4.41787C66.6834 4.41787 67.6913 5.12188 67.6913 7.18901V14.9031H65.6093V7.91297C65.6093 6.58482 65.2021 6.07554 64.1535 6.07554C63.3034 6.07554 62.494 6.7396 62.494 8.07272V14.9031H60.402L60.407 1.35718Z" fill="#9CA3AF"/>
<path d="M76.4413 12.7812C76.4413 13.1606 76.6754 13.5002 76.986 13.5002C77.1041 13.5061 77.2221 13.4874 77.3325 13.4453V14.7734C77.0148 14.9259 76.6676 15.0094 76.3141 15.018C75.3829 15.018 74.6091 14.6585 74.5529 13.6749H74.5121C74.2802 14.1482 73.9098 14.5433 73.4488 14.81C72.9877 15.0766 72.4557 15.2029 71.9215 15.1728C70.2567 15.1728 69.2133 14.2591 69.2133 12.3069C69.2133 10.03 70.2313 9.5557 71.6313 9.10133L73.2449 8.66193C74.0033 8.45728 74.4664 8.24756 74.4664 7.35379C74.4664 6.46006 74.1354 5.85591 73.0362 5.85591C71.6411 5.85591 71.4478 6.82455 71.4478 7.81315H69.4779C69.4779 5.64621 70.3894 4.45288 73.1381 4.45288C74.9753 4.45288 76.4413 5.15689 76.4413 6.94937V12.7812ZM74.4713 9.51578C73.9267 9.93515 72.7663 10.1798 72.1507 10.4644C71.859 10.6277 71.6228 10.8715 71.4717 11.1653C71.3206 11.4592 71.2609 11.7902 71.3003 12.1171C71.3003 12.9709 71.7226 13.6549 72.5934 13.6549C73.8508 13.6549 74.4713 12.7262 74.4713 11.2233V9.51578Z" fill="#9CA3AF"/>
<path d="M82.962 7.67855V7.41394C82.962 6.59507 82.6717 5.83613 81.588 5.83613C80.758 5.83613 80.1015 6.2156 80.1015 7.1643C80.1015 7.96312 80.4677 8.28268 81.5676 8.66213L82.9065 9.12149C84.433 9.62084 85.166 10.4497 85.166 12.0624C85.166 14.2393 83.5425 15.173 81.4348 15.173C78.8035 15.173 78.0093 13.9747 78.0093 12.0025V11.623H79.8619V11.9476C79.8619 13.1209 80.2899 13.77 81.4861 13.77C82.6823 13.77 83.1911 13.1958 83.1911 12.2721C83.2023 11.9319 83.0948 11.5983 82.8868 11.326C82.6787 11.0537 82.3822 10.8591 82.0462 10.7742L80.3714 10.18C78.8035 9.65078 78.147 8.87185 78.147 7.23915C78.147 5.32685 79.5569 4.43311 81.7103 4.43311C84.362 4.43311 84.9629 5.931 84.9629 7.22418V7.67855H82.962Z" fill="#9CA3AF"/>
<path d="M88.4186 10.0701V10.6544C88.4186 12.0224 88.5915 13.77 90.1594 13.77C91.6459 13.77 91.8188 12.0973 91.8188 11.4932H93.7937C93.7937 13.75 92.3993 15.173 90.139 15.173C88.434 15.173 86.3263 14.6737 86.3263 9.95531C86.3263 7.27907 86.9068 4.43311 90.1749 4.43311C93.0761 4.43311 93.8499 6.1407 93.8499 8.98669V10.0701H88.4186ZM91.7625 8.66213V8.11295C91.7625 6.82474 91.3352 5.83613 90.1594 5.83613C88.8206 5.83613 88.4186 7.12931 88.4186 8.45747V8.66213H91.7625Z" fill="#9CA3AF"/>
<path d="M95.2858 8.13261C95.2858 3.29444 96.6752 1.09253 99.8674 1.09253C103.059 1.09253 104.448 3.29444 104.448 8.13261C104.448 12.9708 103.059 15.1727 99.8674 15.1727C96.6752 15.1727 95.2858 12.9708 95.2858 8.13261ZM102.208 8.07772C102.208 3.52411 101.165 2.72524 99.847 2.72524C98.5285 2.72524 97.4898 3.52411 97.4898 8.07772C97.4898 12.7412 98.5334 13.54 99.847 13.54C101.16 13.54 102.208 12.7412 102.208 8.07772Z" fill="#9CA3AF"/>
<path d="M112.949 12.7812C112.949 13.1606 113.178 13.5002 113.489 13.5002C113.608 13.5061 113.728 13.4874 113.84 13.4453V14.7734C113.522 14.9246 113.175 15.008 112.822 15.018C111.895 15.018 111.122 14.6585 111.06 13.6749H111.025C110.792 14.1478 110.422 14.5425 109.96 14.8091C109.499 15.0757 108.968 15.2023 108.434 15.1728C106.769 15.1728 105.726 14.2591 105.726 12.3069C105.726 10.03 106.744 9.5557 108.144 9.10133L109.767 8.66193C110.521 8.45727 110.984 8.24756 110.984 7.35379C110.984 6.46006 110.658 5.85591 109.554 5.85591C108.159 5.85591 107.965 6.82455 107.965 7.81315H105.995C105.995 5.64621 106.902 4.45288 109.651 4.45288C111.488 4.45288 112.959 5.15689 112.959 6.94937L112.949 12.7812ZM110.974 9.51578C110.434 9.93515 109.274 10.1798 108.653 10.4644C108.362 10.6277 108.125 10.8715 107.974 11.1653C107.823 11.4592 107.764 11.7902 107.803 12.1171C107.803 12.9709 108.23 13.6549 109.101 13.6549C110.358 13.6549 110.974 12.7262 110.974 11.2233V9.51578Z" fill="#9CA3AF"/>
<path d="M114.985 1.35718H117.072V8.96649H117.113L120.264 4.69748H122.682L119.566 8.62696L123.099 14.9031H120.819L118.273 10.2597L117.093 11.6627V14.9031H114.985V1.35718Z" fill="#9CA3AF"/>
<path d="M128.342 7.67845V7.41378C128.342 6.59496 128.052 5.83602 126.968 5.83602C126.138 5.83602 125.476 6.21549 125.476 7.16414C125.476 7.96302 125.843 8.28259 126.947 8.66204L128.281 9.1214C129.809 9.62067 130.546 10.4496 130.546 12.0622C130.546 14.2392 128.922 15.1729 126.815 15.1729C124.183 15.1729 123.389 13.9746 123.389 12.0024V11.6229H125.247V11.9474C125.247 13.1207 125.67 13.7699 126.871 13.7699C128.073 13.7699 128.572 13.1957 128.572 12.272C128.583 11.9325 128.476 11.5993 128.269 11.3272C128.061 11.055 127.766 10.8599 127.431 10.7741L125.731 10.1849C124.163 9.65567 123.506 8.87675 123.506 7.24405C123.506 5.33173 124.916 4.43799 127.07 4.43799C129.721 4.43799 130.317 5.93588 130.317 7.22908V7.68344L128.342 7.67845Z" fill="#9CA3AF"/>
<path d="M139.21 5.24675C139.21 3.42931 138.227 1.77664 136.196 1.77664C133.448 1.77664 132.537 4.29809 132.537 8.11272C132.537 11.7576 133.295 14.4888 136.1 14.4888C138.767 14.4888 139.408 11.413 139.408 10.3545H140.218C140.218 11.9473 139.408 15.1328 135.962 15.1328C132.964 15.1328 131.748 12.5315 131.748 8.14266C131.748 3.89366 132.964 1.12256 136.176 1.12256C139.388 1.12256 140.045 3.90864 140.045 5.23677L139.21 5.24675Z" fill="#9CA3AF"/>
<path d="M141.552 1.35718H142.29V6.47997H142.326C142.522 5.96754 142.874 5.52702 143.335 5.21868C143.796 4.91035 144.343 4.74924 144.901 4.75739C146.332 4.75739 147.446 5.55127 147.446 7.42867V14.9031H146.713V7.77318C146.713 6.00563 145.96 5.40148 144.702 5.40148C143.175 5.40148 142.285 6.82449 142.285 8.55204V14.9031H141.546L141.552 1.35718Z" fill="#9CA3AF"/>
<path d="M155.229 14.9033H154.491V13.4054H154.455C154.261 13.9192 153.909 14.3612 153.447 14.6706C152.986 14.9799 152.438 15.1415 151.88 15.133C150.449 15.133 149.334 14.3391 149.334 12.4567V4.96729H150.067V12.1173C150.067 13.8798 150.82 14.4889 152.078 14.4889C153.605 14.4889 154.496 13.0659 154.496 11.3383V4.98227H155.234L155.229 14.9033Z" fill="#9CA3AF"/>
<path d="M157.102 4.98221H157.84V6.70978H157.876C158.01 6.14883 158.336 5.64962 158.799 5.29465C159.261 4.93969 159.834 4.75021 160.421 4.75753H160.849V5.4166H160.421C158.7 5.4166 157.851 6.98939 157.851 8.62206V14.9032H157.113L157.102 4.98221Z" fill="#9CA3AF"/>
<path d="M167.822 11.6628C167.822 12.5915 167.313 15.1578 164.687 15.1578C162.06 15.1578 161.419 12.9011 161.419 9.92022C161.419 6.63985 162.436 4.78247 164.824 4.78247C167.211 4.78247 167.761 7.13416 167.761 7.85318H166.952C166.952 7.24897 166.544 5.42656 164.804 5.42656C162.926 5.42656 162.228 7.11419 162.228 9.96021C162.228 13.0508 162.926 14.5138 164.804 14.5138C166.682 14.5138 167.008 12.4267 167.008 11.6878L167.822 11.6628Z" fill="#9CA3AF"/>
<path d="M169.096 1.35718H169.834V6.47997H169.869C170.066 5.96754 170.418 5.52702 170.879 5.21868C171.34 4.91035 171.887 4.74924 172.445 4.75739C173.876 4.75739 174.99 5.55127 174.99 7.42867V14.9031H174.257V7.77318C174.257 6.00563 173.504 5.40148 172.246 5.40148C170.719 5.40148 169.829 6.82449 169.829 8.55204V14.9031H169.096V1.35718Z" fill="#9CA3AF"/>
<path d="M18.5236 11.4085L17.8008 10.5597C16.1516 12.0276 13.9119 13.6104 11.5906 13.9549C9.26945 14.2994 6.96865 13.7752 5.43646 12.457C4.90333 12.0288 4.47216 11.4914 4.17318 10.8825C3.8742 10.2736 3.71467 9.60778 3.70575 8.93196C3.73327 8.19155 3.93063 7.46681 4.28315 6.81155C4.63567 6.1563 5.13427 5.58744 5.74188 5.1473C6.53931 4.53428 7.46737 4.10549 8.45707 3.89284C9.44677 3.68019 10.4726 3.68913 11.4583 3.91903C13.7591 4.41833 15.9938 5.97114 17.6685 7.4141L18.4219 6.45047C18.5898 6.23577 19.16 5.52677 20.0355 4.61805C17.9993 2.92542 15.2557 1.06304 12.2778 0.398981C10.7485 0.0476988 9.15798 0.0399299 7.62515 0.376256C6.09233 0.712582 4.65679 1.38431 3.42578 2.34125C2.38304 3.1214 1.53339 4.12245 0.9402 5.26971C0.347013 6.41696 0.0256192 7.68081 0 8.96696C0.00522216 10.1671 0.278673 11.3515 0.801085 12.4367C1.32351 13.5219 2.08217 14.4816 3.02365 15.2481C5.37537 17.2453 8.70446 18.0741 12.1455 17.5598C15.332 17.0855 18.2183 15.0883 20.29 13.2759C19.3177 12.3372 18.6967 11.6282 18.5236 11.4085Z" fill="#9CA3AF"/>
<path d="M31.3973 0.273766C25.3958 1.1725 20.3971 7.49363 20.1986 7.76322L19.2875 8.91162L20.2342 10.0251C20.443 10.2747 25.462 16.1414 31.2701 17.4346C32.7993 17.787 34.3901 17.7954 35.9231 17.459C37.4561 17.1226 38.8916 16.4503 40.1221 15.4924C41.1654 14.7127 42.0155 13.7117 42.6087 12.5644C43.202 11.417 43.523 10.1529 43.5479 8.86671C43.5427 7.66659 43.2692 6.48215 42.7468 5.39692C42.2244 4.31168 41.4657 3.35201 40.5243 2.58551C38.1674 0.598309 34.8434 -0.240511 31.3973 0.273766ZM31.9573 3.86871C34.3345 3.51421 36.5742 4.04846 38.1064 5.3666C38.6409 5.79385 39.0734 6.33096 39.3733 6.94003C39.6733 7.54908 39.8333 8.21527 39.8422 8.89166C39.8143 9.632 39.6167 10.3566 39.2643 11.0118C38.9118 11.667 38.4134 12.2359 37.806 12.6763C37.0087 13.2914 36.0797 13.7214 35.0889 13.9341C34.098 14.1469 33.0709 14.1367 32.0845 13.9046C28.8522 13.1856 25.7165 10.4095 24.1385 8.84169C25.6707 7.19402 28.7453 4.34803 31.9573 3.86871Z" fill="#9CA3AF"/>
</g>
<defs>
<clipPath id="clip0_614_16697">
<rect width="175" height="17.8182" fill="white"/>
</clipPath>
</defs>
</svg>
