<svg width="468" height="220" viewBox="0 0 468 220" fill="none" xmlns="http://www.w3.org/2000/svg">
<g clip-path="url(#clip0_614_16769)">
<path d="M302.4 84.1999C301.5 89.7999 299.4 94.3999 295.9 97.9999C292.4 101.6 288 104.2 282.6 105.7V106C285.6 106.3 288.4 107 290.8 108.3C293.2 109.6 295.2 111.3 296.8 113.4C298.4 115.5 299.6 117.9 300.3 120.6C301.1 123.3 301.2 126.3 300.7 129.4C300 134.7 298.3 139.1 295.6 142.5C292.9 145.9 289.7 148.6 285.9 150.6C282 152.6 277.9 154 273.3 154.9C268.8 155.7 264.4 156.1 260 156.1H231.6L244.9 60.7999H274C277.9 60.7999 281.7 61.1999 285.4 61.9999C289.1 62.7999 292.3 64.0999 295 65.9999C297.6 67.7999 299.7 70.1999 301.1 73.1999C302.6 76.0999 303 79.7999 302.4 84.1999ZM150.5 124C151.6 128.8 153.5 132.9 156.2 136.5C158.9 140 162.3 142.8 166.5 144.9C170.7 147 175.4 148 180.8 148C186.6 148 192 146.8 196.9 144.6C201.8 142.3 206.3 139 210.3 134.7L217.7 141.8C212.6 147.5 206.8 151.8 200.4 154.4C194 157.1 187 158.5 179.3 158.5C172.5 158.5 166.3 157.2 160.8 154.7C155.2 152.2 150.5 148.7 146.8 144.3C143.1 139.8 140.4 134.6 138.8 128.5C137.2 122.4 136.9 115.7 137.9 108.4C138.9 101.4 141 94.8999 144.3 88.7999C147.5 82.6999 151.6 77.3999 156.6 72.8999C161.5 68.3999 167.1 64.8999 173.4 62.1999C179.7 59.5999 186.4 58.2999 193.5 58.2999C199.9 58.2999 206 59.4999 211.6 61.7999C217.2 64.1999 221.6 67.9999 225 73.2999L214.1 80.3999C211.7 76.5999 208.6 73.6999 204.7 71.6999C200.8 69.7999 196.6 68.7999 192 68.7999C186.7 68.7999 181.7 69.8999 176.9 72.0999C172.2 74.1999 167.9 77.0999 164.1 80.7999C160.4 84.3999 157.2 88.5999 154.8 93.3999C152.3 98.1999 150.7 103.2 150 108.4C149.2 114 149.3 119.2 150.5 124ZM417 110.7C462 59.0999 413.9 15.7999 309.5 14.0999C234.8 12.8999 151.5 33.2999 93.6998 63.9999L82.1998 145.6H125.8L124.4 156.1H69.4998L81.3998 70.8999C63.9998 81.2999 49.4998 92.5999 39.0998 104.6C-6.00016 156.3 42.1998 199.5 146.5 201.2C216 202.4 292.8 184.8 349.8 157.7C346.4 157 343.3 156.1 340.3 154.7C334.7 152.2 330.1 148.7 326.4 144.3C322.7 139.8 320 134.6 318.4 128.5C316.8 122.4 316.4 115.7 317.4 108.4C318.4 101.4 320.5 94.8999 323.8 88.7999C327.1 82.6999 331.2 77.3999 336.1 72.8999C341.1 68.3999 346.7 64.8999 353 62.1999C359.2 59.5999 365.9 58.2999 373 58.2999C379.5 58.2999 385.5 59.4999 391.1 61.7999C396.7 64.1999 401.2 67.9999 404.5 73.2999L393.6 80.3999C391.3 76.5999 388.2 73.6999 384.3 71.6999C380.3 69.7999 376.1 68.7999 371.5 68.7999C366.2 68.7999 361.2 69.8999 356.5 72.0999C351.7 74.1999 347.4 77.0999 343.7 80.7999C339.9 84.3999 336.8 88.5999 334.3 93.3999C331.8 98.1999 330.3 103.2 329.5 108.4C328.7 114 328.9 119.2 330 124C331.1 128.8 333 132.9 335.7 136.5C338.4 140 341.9 142.8 346 144.9C350.2 147 355 148 360.4 148C364.1 148 367.6 147.5 370.9 146.6C390 135.6 405.8 123.5 417 110.7ZM268.4 111.6H249.1L244.2 145.6H263.3C266.1 145.6 268.9 145.3 271.7 144.7C274.6 144.1 277.2 143.2 279.5 141.9C281.9 140.6 283.9 138.9 285.6 136.7C287.3 134.6 288.3 132.1 288.8 129C289.2 125.7 288.9 122.9 288 120.7C287 118.4 285.5 116.6 283.6 115.3C281.6 113.9 279.4 113 276.7 112.5C274.1 111.9 271.3 111.6 268.4 111.6ZM285.2 74.0999C283.4 72.9999 281.4 72.2999 278.9 71.8999C276.5 71.4999 274 71.2999 271.5 71.2999H254.7L250.5 101.1H266.1C268.8 101.1 271.5 101 274.1 100.6C276.7 100.3 279.1 99.4999 281.3 98.3999C283.5 97.2999 285.4 95.6999 286.9 93.6999C288.5 91.6999 289.5 88.9999 290 85.6999C290.3 82.6999 290.1 80.2999 289.2 78.4999C288.3 76.5999 286.9 75.1999 285.2 74.0999ZM466.9 60.3999C459.8 18.7999 390.9 -5.40006 288.6 1.99994C272.5 3.09994 247.2 7.89994 228.7 12.2999C253.5 8.19994 278.7 5.99994 303.2 5.99994C305.3 5.99994 307.5 6.09994 309.6 6.09994C342.5 6.59994 371.4 11.2999 393.4 19.6999C415.9 28.1999 431.4 40.6999 438.1 55.6999C442.2 64.9999 443 74.9999 440.3 85.3999C437.7 95.4999 431.9 105.8 423 116C411.3 129.4 394.8 142.1 374.9 153.5C435.1 127.3 472.3 92.2999 466.9 60.3999ZM146.4 209.2C113.6 208.7 84.5998 204 62.5998 195.6C40.0998 187.1 24.5998 174.6 17.9998 159.6C13.7998 150.3 13.0998 140.3 15.6998 130C16.4998 126.8 17.5998 123.6 19.0998 120.5C18.0998 121.4 17.0998 122.4 16.0998 123.4C-57.8002 237.5 141.8 228.9 224 203.6C200.3 207.3 176.2 209.3 152.8 209.3C150.7 209.3 148.5 209.3 146.4 209.2Z" fill="#9CA3AF"/>
</g>
<defs>
<clipPath id="clip0_614_16769">
<rect width="468" height="219" fill="white" transform="translate(0 0.5)"/>
</clipPath>
</defs>
</svg>
