<svg width="199" height="41" viewBox="0 0 199 41" fill="none" xmlns="http://www.w3.org/2000/svg">
<path d="M48.7795 18.6592H54.028V10.7872L59.0803 18.6592H64.1816V1.85919H58.9331V9.7312L53.8809 1.85919H48.7795V18.6592Z" fill="#9CA3AF"/>
<path d="M66.8863 18.6592H79.8848V14.3392H72.2574V12.3232H79.1245V8.00319H72.2574V6.17919H79.8603V1.85919H66.8863V18.6592Z" fill="#9CA3AF"/>
<path d="M105.296 1.85919H99.7289L98.2083 11.1712L95.7312 1.85919H90.5318L88.0547 11.1712L86.5341 1.85919H80.9668L85.0135 18.6592H90.3601L93.1315 8.29119L95.9029 18.6592H101.249L105.296 1.85919Z" fill="#9CA3AF"/>
<path d="M113.193 18.9952C117.608 18.9952 120.502 16.5952 120.502 13.2832C120.502 10.7392 119.153 9.17919 116.529 8.50719L112.09 7.35519C111.673 7.23519 111.452 6.99519 111.452 6.53919C111.452 5.84319 112.041 5.50719 113.046 5.50719C114.223 5.50719 114.665 6.03519 114.665 6.73119V7.11519H119.619V6.68319C119.619 3.51519 116.995 1.52319 113.071 1.52319C108.901 1.52319 106.228 3.44319 106.228 6.87519C106.228 9.89919 107.896 11.1472 110.594 11.7952L114.542 12.7552C115.008 12.8752 115.278 13.2112 115.278 13.6912C115.278 14.5792 114.395 15.0112 113.218 15.0112C112.065 15.0112 111.182 14.4832 111.182 13.4992V13.1392H106.081V13.6432C106.081 16.9792 108.95 18.9952 113.193 18.9952Z" fill="#9CA3AF"/>
<path d="M122.476 18.6592H127.847V14.3392H130.251C134.543 14.3392 137.338 11.8192 137.338 8.02719C137.338 4.23519 134.444 1.85919 130.251 1.85919H122.476V18.6592ZM127.847 10.0192V6.17919H129.981C131.33 6.17919 131.967 6.97119 131.967 8.07519C131.967 9.17919 131.33 10.0192 129.981 10.0192H127.847Z" fill="#9CA3AF"/>
<path d="M148.566 18.6592H154.82L151.411 13.3552C153.251 12.3232 154.354 10.4752 154.354 8.07519C154.354 4.40319 151.975 1.85919 147.61 1.85919H139.026V18.6592H144.397V14.2432H145.942L148.566 18.6592ZM144.397 10.0912V6.05919H146.997C148.297 6.05919 148.983 6.85119 148.983 8.09919C148.983 9.25119 148.272 10.0912 146.997 10.0912H144.397Z" fill="#9CA3AF"/>
<path d="M156.631 18.6592H162.002V1.85919H156.631V18.6592Z" fill="#9CA3AF"/>
<path d="M164.749 18.6592H169.997V10.7872L175.05 18.6592H180.151V1.85919H174.903V9.7312L169.85 1.85919H164.749V18.6592Z" fill="#9CA3AF"/>
<path d="M198.307 7.81119C198.062 4.11519 195.094 1.52319 190.434 1.52319C185.652 1.52319 182.316 4.21119 182.316 9.15519V11.3392C182.316 15.9952 185.455 18.9952 190.483 18.9952C195.266 18.9952 198.479 16.1152 198.479 11.8432V9.34719H190.581V13.3072H193.328C193.058 14.2192 192.225 14.9872 190.655 14.9872C188.521 14.9872 187.687 13.5712 187.687 11.6032V8.98719C187.687 7.04319 188.57 5.86719 190.557 5.86719C192.2 5.86719 192.936 6.80319 193.206 7.81119H198.307Z" fill="#9CA3AF"/>
<path d="M52.8275 31.9391V29.2511C52.8275 27.4031 53.6915 26.2271 55.4915 26.2271C57.3395 26.2271 58.0115 27.4991 58.1075 28.7231H63.0755C62.9555 24.9311 60.3155 21.8591 55.5875 21.8591C50.1635 21.8591 47.5715 24.9311 47.5715 29.4911V31.6991C47.5715 36.2591 50.1635 39.3311 55.5875 39.3311C60.3155 39.3311 62.9555 36.2591 63.0755 32.4671H58.1075C58.0115 33.6911 57.3395 34.9631 55.4915 34.9631C53.6915 34.9631 52.8275 33.7871 52.8275 31.9391Z" fill="#9CA3AF"/>
<path d="M65.1123 38.9951H70.3683V32.9711H74.6883V38.9951H79.9443V22.1951H74.6883V28.1711H70.3683V22.1951H65.1123V38.9951Z" fill="#9CA3AF"/>
<path d="M89.8933 39.3311C94.5973 39.3311 97.4533 36.7631 97.4533 32.5871V22.1951H92.1973V32.5871C92.1973 34.2911 91.2133 34.9151 89.8933 34.9151C88.5733 34.9151 87.5893 34.2911 87.5893 32.5871V22.1951H82.3333V32.5871C82.3333 36.7631 85.1893 39.3311 89.8933 39.3311Z" fill="#9CA3AF"/>
<path d="M109.201 38.9951H115.321L111.985 33.6911C113.785 32.6591 114.865 30.8111 114.865 28.4111C114.865 24.7391 112.537 22.1951 108.265 22.1951H99.8645V38.9951H105.121V34.5791H106.633L109.201 38.9951ZM105.121 30.4271V26.3951H107.665C108.937 26.3951 109.609 27.1871 109.609 28.4351C109.609 29.5871 108.913 30.4271 107.665 30.4271H105.121Z" fill="#9CA3AF"/>
<path d="M121.652 31.9391V29.2511C121.652 27.4031 122.516 26.2271 124.316 26.2271C126.164 26.2271 126.836 27.4991 126.932 28.7231H131.9C131.78 24.9311 129.14 21.8591 124.412 21.8591C118.988 21.8591 116.396 24.9311 116.396 29.4911V31.6991C116.396 36.2591 118.988 39.3311 124.412 39.3311C129.14 39.3311 131.78 36.2591 131.9 32.4671H126.932C126.836 33.6911 126.164 34.9631 124.316 34.9631C122.516 34.9631 121.652 33.7871 121.652 31.9391Z" fill="#9CA3AF"/>
<path d="M133.937 38.9951H139.193V32.9711H143.513V38.9951H148.769V22.1951H143.513V28.1711H139.193V22.1951H133.937V38.9951Z" fill="#9CA3AF"/>
<path fill-rule="evenodd" clip-rule="evenodd" d="M0 19.9983C0 31.0437 6.4298 39.999 19.9994 39.999H40V19.9983C40 6.66351 31.0472 0.00115967 19.9994 0.00115967C8.9543 0.00115967 0 8.95441 0 19.9983ZM23.6488 11.8602H11.6227L11.6304 12.2516V29.9861H17.8921V20.4738C17.8921 18.1654 19.1075 16.8304 21.1817 16.8304C22.2803 16.8304 23.2971 17.3822 23.6875 18.2004C24.0392 18.8693 24.0812 19.2207 24.0812 21.0176V29.9861H30.3456V18.7119C30.3456 16.2836 29.9538 15.0717 28.7008 13.8155C27.4448 12.528 25.7626 11.8602 23.6488 11.8602Z" fill="#9CA3AF"/>
</svg>
