<svg width="1373" height="216" viewBox="0 0 1373 216" fill="none" xmlns="http://www.w3.org/2000/svg">
<g clip-path="url(#clip0_616_16692)">
<path d="M359.237 83.3563H343.484V105.814H358.628C371.839 105.814 377.833 101.647 377.833 94.5328C377.833 86.9136 372.449 83.3563 359.237 83.3563ZM377.427 141.075L360.964 117.394C360.659 117.394 360.353 117.394 360.049 117.394H343.484V141.075H329.157V70.96H359.744C382.204 70.96 392.567 78.8841 392.567 94.1261C392.567 104.492 386.979 111.911 376.003 115.264L395.211 141.075H377.427Z" fill="#9CA3AF"/>
<path d="M444.147 141.075H429.82V70.96H444.147V141.075Z" fill="#9CA3AF"/>
<path d="M523.108 141.075H507.864L476.464 70.96H492.316L515.588 126.136H515.791L539.063 70.96H554.508L523.108 141.075Z" fill="#9CA3AF"/>
<path d="M641.368 83.1531H601.024V99.4126H637.507V110.996H601.024V128.576H642.385V141.075H586.596V70.96H641.368V83.1531Z" fill="#9CA3AF"/>
<path d="M709.063 83.3563H693.309V105.814H708.452C721.664 105.814 727.659 101.647 727.659 94.5328C727.659 86.9136 722.273 83.3563 709.063 83.3563ZM727.252 141.075L710.788 117.394C710.484 117.394 710.179 117.394 709.873 117.394H693.309V141.075H678.983V70.96H709.568C732.025 70.96 742.389 78.8841 742.389 94.1261C742.389 104.492 736.8 111.911 725.828 115.264L745.033 141.075H727.252Z" fill="#9CA3AF"/>
<path d="M874.456 141.075H859.212L827.812 70.96H843.661L866.936 126.136H867.139L890.407 70.96H905.855L874.456 141.075Z" fill="#9CA3AF"/>
<path d="M962.353 84.3703H962.151L950.664 111.809H974.039L962.353 84.3703ZM1001.88 141.075H986.232L978.101 122.072H946.396L938.469 141.075H923.128L954.731 70.96H970.377L1001.88 141.075Z" fill="#9CA3AF"/>
<path d="M1048.5 128.475H1090.06V141.075H1034.17V70.96H1048.5V128.475Z" fill="#9CA3AF"/>
<path d="M1136.87 128.475H1178.44V141.075H1122.55V70.96H1136.87V128.475Z" fill="#9CA3AF"/>
<path d="M1265.69 83.1531H1225.35V99.4126H1261.83V110.996H1225.35V128.576H1266.71V141.075H1210.91V70.96H1265.69V83.1531Z" fill="#9CA3AF"/>
<path d="M1341.63 116.486V141.075H1327.31V116.486L1296.51 70.96H1314.1L1334.83 103.579H1335.03L1355.56 70.96H1372.43L1341.63 116.486Z" fill="#9CA3AF"/>
<path d="M38.4088 210.447L22.988 176.265C21.5901 173.168 17.1875 173.177 15.8047 176.283L0.574472 210.461C-0.584902 213.065 1.31979 216.002 4.1703 216.002H34.8213C37.6792 216.002 39.5844 213.051 38.4088 210.447Z" fill="#9CA3AF"/>
<path d="M155.859 7.05603L219.849 148.861C221.247 151.957 225.648 151.949 227.032 148.844L243.077 112.847C244.389 109.904 244.381 106.54 243.053 103.604L198.043 4.0387C197.069 1.8867 194.927 0.504028 192.565 0.504028H160.091C156.719 0.504028 154.472 3.9827 155.859 7.05603Z" fill="#9CA3AF"/>
<path d="M38.1526 134.168L73.4832 212.461C74.4551 214.616 76.5983 216.001 78.9619 216.001H108.248C111.62 216.001 113.867 212.518 112.479 209.447L80.1578 137.925C79.0092 135.384 79.0015 132.47 80.1374 129.923L87.7488 112.847C89.0608 109.904 89.052 106.54 87.725 103.603L42.7135 4.03831C41.7411 1.88632 39.5983 0.503647 37.2369 0.503647H4.64784C1.27544 0.503647 -0.971437 3.98497 0.417626 7.0583L44.3265 104.222C45.4754 106.764 45.4832 109.676 44.3478 112.225L38.1338 126.17C36.9988 128.717 37.0062 131.627 38.1526 134.168Z" fill="#9CA3AF"/>
<path d="M199.232 212.717L205.835 198.117C206.556 196.525 206.556 194.698 205.835 193.105L120.325 4.03735C119.352 1.88669 117.21 0.504013 114.848 0.504013H82.2614C78.888 0.504013 76.6417 3.98668 78.0312 7.06001L170.912 212.424C171.897 214.602 174.064 216.002 176.455 216.002H194.144C196.337 216.002 198.328 214.716 199.232 212.717Z" fill="#9CA3AF"/>
</g>
<defs>
<clipPath id="clip0_616_16692">
<rect width="1372.43" height="215.493" fill="white" transform="translate(0 0.506714)"/>
</clipPath>
</defs>
</svg>
