<svg width="193" height="50" viewBox="0 0 193 50" fill="none" xmlns="http://www.w3.org/2000/svg">
<path fill-rule="evenodd" clip-rule="evenodd" d="M60.6951 12.0488C61.8926 12.0286 63.0573 11.6583 64.0431 10.9845C65.0288 10.3106 65.7917 9.36314 66.2359 8.26111C66.6801 7.15909 66.7858 5.95158 66.5397 4.79022C66.2937 3.62887 65.7068 2.56544 64.8529 1.73345C63.9989 0.901454 62.9159 0.337993 61.7399 0.113812C60.5639 -0.11037 59.3472 0.0147333 58.2426 0.473392C57.1381 0.932051 56.1949 1.70383 55.5316 2.69183C54.8682 3.67982 54.5142 4.83997 54.514 6.02663C54.5825 7.61965 55.2587 9.1275 56.4061 10.2454C57.5535 11.3633 59.0865 12.0079 60.6951 12.0488Z" fill="#9CA3AF"/>
<path fill-rule="evenodd" clip-rule="evenodd" d="M132.24 34.2283C134.809 40.3224 134.32 45.6003 131.107 46.9305C127.894 48.2608 123.76 44.8965 121.19 38.8034C119.404 34.5681 119.628 35.0984 117.842 30.8631C115.272 24.7691 115.762 19.4912 118.975 18.1609C122.188 16.8306 126.322 20.1949 128.891 26.2881L132.24 34.2283ZM125.041 15.0923C114.756 15.0923 107.132 24.2477 107.132 32.5457C107.132 40.8437 114.752 49.9991 125.041 49.9991C135.329 49.9991 142.944 40.8446 142.944 32.5457C142.944 24.2468 135.324 15.0923 125.038 15.0923H125.041Z" fill="#9CA3AF"/>
<path fill-rule="evenodd" clip-rule="evenodd" d="M65.814 16.4998H55.4729V42.2188C55.4729 43.908 56.1501 45.528 57.3556 46.7225C58.561 47.9169 60.196 48.5879 61.9007 48.5879H69.7328C69.7328 48.5879 65.8104 43.8897 65.8104 40.2288L65.814 16.4998Z" fill="#9CA3AF"/>
<path fill-rule="evenodd" clip-rule="evenodd" d="M84.1904 40.2342V0.970703L73.8492 3.19081V42.2215C73.8492 43.9105 74.5264 45.5302 75.7316 46.7245C76.9369 47.9188 78.5716 48.5897 80.2762 48.5897H88.1091C88.1091 48.5897 84.1904 43.8924 84.1904 40.2342Z" fill="#9CA3AF"/>
<path fill-rule="evenodd" clip-rule="evenodd" d="M102.471 40.2342V0.970703L92.1295 3.19081V42.2215C92.1295 43.0579 92.2958 43.8861 92.6188 44.6587C92.9419 45.4314 93.4153 46.1335 94.0122 46.7248C94.6091 47.3162 95.3177 47.7852 96.0976 48.1052C96.8775 48.4252 97.7133 48.5898 98.5573 48.5897H106.389C106.389 48.5897 102.471 43.8924 102.471 40.2342Z" fill="#9CA3AF"/>
<path fill-rule="evenodd" clip-rule="evenodd" d="M40.7839 16.4998L45.364 27.5275L46.2557 27.5212C47.3199 23.6787 48.8496 19.978 50.8112 16.4998H40.7839Z" fill="#9CA3AF"/>
<path fill-rule="evenodd" clip-rule="evenodd" d="M14.942 24.8382C13.3246 20.6667 17.1699 16.5024 17.1699 16.5024L0 16.5168L13.3401 48.5879H15.9816L18.0725 43.2704C20.5997 36.0798 20.4392 38.0446 17.9627 32.0998L14.942 24.8382Z" fill="#9CA3AF"/>
<path fill-rule="evenodd" clip-rule="evenodd" d="M35.1635 24.8382C33.5452 20.6667 37.3913 16.5024 37.3913 16.5024L20.2214 16.5168L33.5615 48.5879H36.203L38.2939 43.2704C40.822 36.0798 40.6615 38.0446 38.1842 32.0998L35.1635 24.8382Z" fill="#9CA3AF"/>
<path fill-rule="evenodd" clip-rule="evenodd" d="M182.976 16.4998L187.556 27.5275L188.448 27.5212C189.511 23.6789 191.04 19.9782 193 16.4998H182.976Z" fill="#9CA3AF"/>
<path fill-rule="evenodd" clip-rule="evenodd" d="M157.135 24.8382C155.517 20.6667 159.363 16.5024 159.363 16.5024L142.193 16.5168L155.533 48.5879H158.174L160.265 43.2704C162.793 36.0798 162.633 38.0446 160.155 32.0998L157.135 24.8382Z" fill="#9CA3AF"/>
<path fill-rule="evenodd" clip-rule="evenodd" d="M177.356 24.8382C175.738 20.6667 179.584 16.5024 179.584 16.5024L162.414 16.5168L175.754 48.5879H178.395L180.482 43.2704C183.01 36.0798 182.849 38.0446 180.373 32.0998L177.356 24.8382Z" fill="#9CA3AF"/>
</svg>
