<svg width="48" height="48" viewBox="0 0 48 48" xmlns="http://www.w3.org/2000/svg"><g fill="none" fill-rule="evenodd"><path d="M44.441 36.656c.832-.292 1.748.132 2.046.945a1.556 1.556 0 01-.966 2.002l-20.98 7.354a1.64 1.64 0 01-1.08 0L2.478 39.603a1.556 1.556 0 01-.966-2.002c.298-.813 1.214-1.237 2.045-.945L24 43.82l20.441-7.165zm-20.44-4.811l20.446-7.085c.833-.29 1.747.137 2.042.952a1.557 1.557 0 01-.974 1.998l-20.98 7.27c-.346.12-.723.12-1.069 0L2.484 27.71a1.557 1.557 0 01-.974-1.998c.295-.815 1.209-1.241 2.042-.953L24 31.845z" fill="#9CD7D1"/><path d="M2.482 15.71c-3.2-1.115-3.34-5.477-.216-6.781L23.373.125c.4-.167.854-.167 1.255 0L45.733 8.93c3.125 1.304 2.985 5.666-.216 6.781l-20.98 7.292c-.347.12-.726.12-1.072 0L2.482 15.71zM24 19.866l20.445-7.105a.505.505 0 00.033-.953L24 3.267 3.521 11.808a.505.505 0 00.033.953L24 19.866z" fill="#00676D"/></g></svg>