<svg width="200" height="41" viewBox="0 0 200 41" fill="none" xmlns="http://www.w3.org/2000/svg">
<path d="M58.3809 19.0222H62.7609V12.4528L66.9771 19.0222H71.2343V5.00208H66.8543V11.5715L62.638 5.00208H58.3809V19.0222Z" fill="#1C1B1B"/>
<path d="M73.4915 19.0222H84.3391V15.417H77.9738V13.7346H83.7046V10.1294H77.9738V8.60724H84.3186V5.00208H73.4915V19.0222Z" fill="#1C1B1B"/>
<path d="M105.546 5.00208H100.9L99.6305 12.7732L97.5634 5.00208H93.2243L91.1571 12.7732L89.8881 5.00208H85.2421L88.6192 19.0222H93.081L95.3938 10.3698L97.7066 19.0222H102.168L105.546 5.00208Z" fill="#1C1B1B"/>
<path d="M112.136 19.3026C115.82 19.3026 118.235 17.2997 118.235 14.5357C118.235 12.4127 117.11 11.1108 114.92 10.55L111.215 9.58865C110.867 9.48851 110.683 9.28822 110.683 8.90767C110.683 8.32684 111.174 8.04644 112.013 8.04644C112.996 8.04644 113.364 8.48707 113.364 9.0679V9.38836H117.498V9.02785C117.498 6.38406 115.308 4.72168 112.034 4.72168C108.554 4.72168 106.323 6.32397 106.323 9.18807C106.323 11.7117 107.715 12.7532 109.967 13.294L113.262 14.0951C113.651 14.1952 113.876 14.4756 113.876 14.8762C113.876 15.6173 113.139 15.9778 112.157 15.9778C111.195 15.9778 110.458 15.5372 110.458 14.716V14.4156H106.201V14.8362C106.201 17.6201 108.595 19.3026 112.136 19.3026Z" fill="#1C1B1B"/>
<path d="M119.883 19.0222H124.365V15.417H126.371C129.952 15.417 132.286 13.314 132.286 10.1495C132.286 6.98492 129.871 5.00208 126.371 5.00208H119.883V19.0222ZM124.365 11.8118V8.60724H126.146C127.271 8.60724 127.803 9.26819 127.803 10.1895C127.803 11.1108 127.271 11.8118 126.146 11.8118H124.365Z" fill="#1C1B1B"/>
<path d="M141.656 19.0222H146.875L144.03 14.5958C145.565 13.7346 146.486 12.1924 146.486 10.1895C146.486 7.12512 144.501 5.00208 140.858 5.00208H133.694V19.0222H138.176V15.3369H139.466L141.656 19.0222ZM138.176 11.8719V8.5071H140.346C141.431 8.5071 142.004 9.16805 142.004 10.2095C142.004 11.1709 141.41 11.8719 140.346 11.8719H138.176Z" fill="#1C1B1B"/>
<path d="M148.386 19.0222H152.868V5.00208H148.386V19.0222Z" fill="#1C1B1B"/>
<path d="M155.161 19.0222H159.541V12.4528L163.757 19.0222H168.014V5.00208H163.634V11.5715L159.418 5.00208H155.161V19.0222Z" fill="#1C1B1B"/>
<path d="M183.166 9.96919C182.961 6.88478 180.484 4.72168 176.596 4.72168C172.604 4.72168 169.821 6.96489 169.821 11.0908V12.9134C169.821 16.799 172.441 19.3026 176.637 19.3026C180.628 19.3026 183.309 16.8991 183.309 13.334V11.251H176.718V14.5558H179.011C178.786 15.3169 178.09 15.9578 176.78 15.9578C174.999 15.9578 174.303 14.7761 174.303 13.1337V10.9506C174.303 9.32828 175.04 8.34687 176.698 8.34687C178.069 8.34687 178.683 9.12799 178.908 9.96919H183.166Z" fill="#1C1B1B"/>
<path d="M61.7591 30.1047V27.8615C61.7591 26.3193 62.4801 25.3378 63.9823 25.3378C65.5245 25.3378 66.0853 26.3994 66.1654 27.4208H70.3113C70.2112 24.2563 68.008 21.6926 64.0624 21.6926C59.5359 21.6926 57.3728 24.2563 57.3728 28.0617V29.9044C57.3728 33.7098 59.5359 36.2735 64.0624 36.2735C68.008 36.2735 70.2112 33.7098 70.3113 30.5453H66.1654C66.0853 31.5668 65.5245 32.6283 63.9823 32.6283C62.4801 32.6283 61.7591 31.6469 61.7591 30.1047Z" fill="#1C1B1B"/>
<path d="M72.0111 35.9931H76.3974V30.9659H80.0025V35.9931H84.3888V21.973H80.0025V26.9602H76.3974V21.973H72.0111V35.9931Z" fill="#1C1B1B"/>
<path d="M92.6915 36.2735C96.6171 36.2735 99.0005 34.1304 99.0005 30.6454V21.973H94.6143V30.6454C94.6143 32.0675 93.7931 32.5882 92.6915 32.5882C91.5899 32.5882 90.7687 32.0675 90.7687 30.6454V21.973H86.3825V30.6454C86.3825 34.1304 88.7659 36.2735 92.6915 36.2735Z" fill="#1C1B1B"/>
<path d="M108.804 35.9931H113.911L111.127 31.5668C112.629 30.7055 113.531 29.1633 113.531 27.1605C113.531 24.0961 111.588 21.973 108.023 21.973H101.013V35.9931H105.399V32.3078H106.661L108.804 35.9931ZM105.399 28.8429V25.478H107.522C108.584 25.478 109.144 26.139 109.144 27.1805C109.144 28.1419 108.564 28.8429 107.522 28.8429H105.399Z" fill="#1C1B1B"/>
<path d="M119.195 30.1047V27.8615C119.195 26.3193 119.916 25.3378 121.418 25.3378C122.961 25.3378 123.521 26.3994 123.602 27.4208H127.747C127.647 24.2563 125.444 21.6926 121.499 21.6926C116.972 21.6926 114.809 24.2563 114.809 28.0617V29.9044C114.809 33.7098 116.972 36.2735 121.499 36.2735C125.444 36.2735 127.647 33.7098 127.747 30.5453H123.602C123.521 31.5668 122.961 32.6283 121.418 32.6283C119.916 32.6283 119.195 31.6469 119.195 30.1047Z" fill="#1C1B1B"/>
<path d="M129.447 35.9931H133.834V30.9659H137.439V35.9931H141.825V21.973H137.439V26.9602H133.834V21.973H129.447V35.9931Z" fill="#1C1B1B"/>
<g clip-path="url(#clip0_649_19209)">
<path fill-rule="evenodd" clip-rule="evenodd" d="M0.0849609 19.9981C0.0849609 31.0435 6.51476 39.9989 20.0844 39.9989H40.0849V19.9981C40.0849 6.66339 31.1322 0.0010376 20.0844 0.0010376C9.03926 0.0010376 0.0849609 8.95429 0.0849609 19.9981ZM23.7338 11.8601H11.7076L11.7154 12.2515V29.986H17.9771V20.4737C17.9771 18.1653 19.1924 16.8303 21.2667 16.8303C22.3652 16.8303 23.382 17.3821 23.7725 18.2003C24.1242 18.8692 24.1661 19.2206 24.1661 21.0175V29.986H30.4305V18.7118C30.4305 16.2835 30.0388 15.0716 28.7857 13.8154C27.5297 12.5279 25.8475 11.8601 23.7338 11.8601Z" fill="#7AAA52"/>
</g>
<defs>
<clipPath id="clip0_649_19209">
<rect width="40" height="40" fill="white" transform="translate(0.0849609)"/>
</clipPath>
</defs>
</svg>
