<svg width="96" height="28" viewBox="0 0 96 28" fill="none" xmlns="http://www.w3.org/2000/svg">
<path fill-rule="evenodd" clip-rule="evenodd" d="M0 22.5556L6.55164 4.66675H10.1871L16.7388 22.5556H0ZM8.26975 9.01695L4.83198 19.1567H11.9157L8.47793 9.01695H8.26975Z" fill="#00676D"/>
<path d="M18.1167 27.3284H21.5697V20.5173H21.6751C22.1533 21.5779 23.199 22.7628 25.2092 22.7628C28.0462 22.7628 30.259 20.4676 30.259 16.2086C30.259 11.8336 27.9489 9.66264 25.2173 9.66264C23.1341 9.66264 22.1371 10.9304 21.6751 11.9661H21.5211V9.82836H18.1167V27.3284ZM21.4968 16.192C21.4968 13.9216 22.437 12.4716 24.1149 12.4716C25.8252 12.4716 26.733 13.9879 26.733 16.192C26.733 18.4126 25.809 19.9538 24.1149 19.9538C22.4532 19.9538 21.4968 18.4624 21.4968 16.192Z" fill="#00676D"/>
<path d="M37.7299 22.8042C41.5071 22.8042 43.8578 20.161 43.8578 16.2417C43.8578 12.2976 41.5071 9.66264 37.7299 9.66264C33.9526 9.66264 31.602 12.2976 31.602 16.2417C31.602 20.161 33.9526 22.8042 37.7299 22.8042ZM37.7461 20.0698C36.0034 20.0698 35.1117 18.4375 35.1117 16.2169C35.1117 13.9962 36.0034 12.3556 37.7461 12.3556C39.4564 12.3556 40.348 13.9962 40.348 16.2169C40.348 18.4375 39.4564 20.0698 37.7461 20.0698Z" fill="#00676D"/>
<path d="M49.0995 5.58594H45.6465V22.5556H49.0995V5.58594Z" fill="#00676D"/>
<path d="M54.8621 5.58594H51.4091V22.5556H54.8621V5.58594Z" fill="#00676D"/>
<path d="M62.797 22.8042C66.5743 22.8042 68.9249 20.161 68.9249 16.2417C68.9249 12.2976 66.5743 9.66264 62.797 9.66264C59.0198 9.66264 56.6691 12.2976 56.6691 16.2417C56.6691 20.161 59.0198 22.8042 62.797 22.8042ZM62.8132 20.0698C61.0705 20.0698 60.1789 18.4375 60.1789 16.2169C60.1789 13.9962 61.0705 12.3556 62.8132 12.3556C64.5235 12.3556 65.4151 13.9962 65.4151 16.2169C65.4151 18.4375 64.5235 20.0698 62.8132 20.0698Z" fill="#00676D"/>
<path d="M81.0727 13.4576C80.7647 11.1127 78.9166 9.66264 75.7716 9.66264C72.5861 9.66264 70.4867 11.1707 70.4948 13.6233C70.4867 15.5291 71.662 16.7637 74.0937 17.2609L76.2499 17.7C77.336 17.9238 77.8305 18.3298 77.8467 18.9678C77.8305 19.7218 77.028 20.2604 75.8203 20.2604C74.5882 20.2604 73.7695 19.7218 73.5588 18.6861L70.1625 18.8684C70.4867 21.3045 72.5131 22.8042 75.8121 22.8042C79.0382 22.8042 81.3483 21.1222 81.3564 18.6115C81.3483 16.772 80.173 15.67 77.7575 15.1645L75.5041 14.7005C74.345 14.4437 73.9154 14.0376 73.9235 13.4245C73.9154 12.6622 74.7584 12.165 75.8284 12.165C77.028 12.165 77.7413 12.8362 77.9115 13.6565L81.0727 13.4576Z" fill="#00676D"/>
<path d="M87.7652 22.5555L91.0353 25.6501V17.6261H95.8675V14.2791H91.0353V9.33325H87.7652V14.2791H82.933V17.6261H87.7652V22.5555Z" fill="#17B582"/>
</svg>
