<?xml version="1.0" encoding="UTF-8"?>
<svg width="48px" height="48px" viewBox="0 0 48 48" version="1.1" xmlns="http://www.w3.org/2000/svg" xmlns:xlink="http://www.w3.org/1999/xlink">
    <!-- Generator: Sketch 54.1 (76490) - https://sketchapp.com -->
    <title>icons / feature-3</title>
    <desc>Created with Sketch.</desc>
    <g id="icons-/-feature-3" stroke="none" stroke-width="1" fill="none" fill-rule="evenodd">
        <g id="Group">
            <path d="M15.2727273,12.2727273 L46.5,12.2727273 C47.3284271,12.2727273 48,12.9443001 48,13.7727273 C48,14.6011544 47.3284271,15.2727273 46.5,15.2727273 L15.2727273,15.2727273 L15.2727273,46.5 C15.2727273,47.3284271 14.6011544,48 13.7727273,48 C12.9443001,48 12.2727273,47.3284271 12.2727273,46.5 L12.2727273,1.5 C12.2727273,0.671572875 12.9443001,0 13.7727273,0 C14.6011544,0 15.2727273,0.671572875 15.2727273,1.5 L15.2727273,12.2727273 Z" id="Combined-Shape" fill="#00676D"></path>
            <path d="M42.4090909,45 C43.8388456,45 45,43.8388456 45,42.4090909 L45,5.59090909 C45,4.1611544 43.8388456,3 42.4090909,3 L5.59090909,3 C4.1611544,3 3,4.1611544 3,5.59090909 L3,42.4090909 C3,43.8388456 4.1611544,45 5.59090909,45 L42.4090909,45 Z M42.4090909,48 L5.59090909,48 C2.50430015,48 0,45.4956999 0,42.4090909 L0,5.59090909 C0,2.50430015 2.50430015,0 5.59090909,0 L42.4090909,0 C45.4956999,0 48,2.50430015 48,5.59090909 L48,42.4090909 C48,45.4956999 45.4956999,48 42.4090909,48 Z" id="Stroke" fill="#9CD7D1"></path>
        </g>
    </g>
</svg>