<svg width="24" height="24" viewBox="0 0 24 24" fill="none" xmlns="http://www.w3.org/2000/svg">
<path fill-rule="evenodd" clip-rule="evenodd" d="M12.1285 2.17928C12.5972 1.68074 12.5972 0.872448 12.1285 0.373906C11.6599 -0.124635 10.9001 -0.124635 10.4315 0.373906L0.351551 11.0972C0.134347 11.3282 0 11.6474 0 12C0 12.1731 0.0323827 12.3381 0.0910546 12.4887C0.148284 12.6358 0.23249 12.7739 0.343674 12.8943C0.346534 12.8974 0.349408 12.9005 0.352298 12.9036L10.4315 23.6261C10.9001 24.1246 11.6599 24.1246 12.1285 23.6261C12.5972 23.1275 12.5972 22.3193 12.1285 21.8207L4.09706 13.2766H22.8C23.4627 13.2766 24 12.705 24 12C24 11.295 23.4627 10.7234 22.8 10.7234H4.09706L12.1285 2.17928Z" fill="#00676D"/>
</svg>
