<svg width="40" height="40" viewBox="0 0 40 40" fill="none" xmlns="http://www.w3.org/2000/svg">
<path d="M20 0C10.35 0 2.5 7.10333 2.5 15.8333C2.5 25.4117 14.6667 36.3083 18.4 39.42C19.3267 40.1933 20.675 40.1933 21.6017 39.42C25.3333 36.3067 37.5 25.41 37.5 15.8333C37.5 7.10333 29.65 0 20 0ZM29.1667 17.5C29.1667 18.42 28.42 19.1667 27.5 19.1667H24.1667C23.7067 19.1667 23.3333 19.54 23.3333 20V28.3333C23.3333 29.2533 22.5867 30 21.6667 30H18.3333C17.4133 30 16.6667 29.2533 16.6667 28.3333V20C16.6667 19.54 16.2933 19.1667 15.8333 19.1667H12.5C11.58 19.1667 10.8333 18.42 10.8333 17.5V14.1667C10.8333 13.2467 11.58 12.5 12.5 12.5H15.8333C16.2933 12.5 16.6667 12.1267 16.6667 11.6667V8.33333C16.6667 7.41333 17.4133 6.66667 18.3333 6.66667H21.6667C22.5867 6.66667 23.3333 7.41333 23.3333 8.33333V11.6667C23.3333 12.1267 23.7067 12.5 24.1667 12.5H27.5C28.42 12.5 29.1667 13.2467 29.1667 14.1667V17.5Z" fill="white"/>
</svg>
