<svg width="120" height="120" viewBox="0 0 120 120" fill="none" xmlns="http://www.w3.org/2000/svg">
<g filter="url(#filter0_d)">
<circle cx="60" cy="60" r="40" fill="url(#paint0_linear)"/>
</g>
<g clip-path="url(#clip0)">
<path d="M46.4938 51.6882C46.6125 51.7362 46.6925 51.8469 46.7005 51.9735C47.0378 56.8629 51.0992 60.6602 56.0005 60.6655L58.3338 60.6655C58.5178 60.6655 58.6672 60.8149 58.6672 60.9989L58.6672 68.0175C58.6672 68.1522 58.5872 68.2735 58.4632 68.3255C56.4232 69.1749 55.4592 71.5162 56.3072 73.5562C57.1565 75.5962 59.4978 76.5602 61.5378 75.7122C63.5778 74.8642 64.5418 72.5202 63.6938 70.4815C63.2885 69.5069 62.5138 68.7322 61.5378 68.3255C61.4138 68.2735 61.3338 68.1522 61.3338 68.0175L61.3338 61.0002C61.3338 60.8162 61.4832 60.6669 61.6672 60.6669L64.6672 60.6669C69.4352 60.6095 73.2778 56.7429 73.3045 51.9749C73.3125 51.8469 73.3925 51.7349 73.5112 51.6855C75.5565 50.8495 76.5365 48.5149 75.7005 46.4695C74.8645 44.4242 72.5298 43.4442 70.4845 44.2802C68.4392 45.1162 67.4592 47.4509 68.2952 49.4962C68.6925 50.4669 69.4538 51.2429 70.4178 51.6575C70.5485 51.7149 70.6285 51.8482 70.6178 51.9895C70.6032 55.2802 67.9565 57.9522 64.6672 57.9989L61.6672 57.9989C61.4832 57.9989 61.3338 57.8495 61.3338 57.6655L61.3338 51.9815C61.3338 51.8469 61.4138 51.7255 61.5378 51.6735C63.5778 50.8242 64.5418 48.4829 63.6938 46.4429C62.8445 44.4029 60.5032 43.4389 58.4632 44.2869C56.4232 45.1362 55.4592 47.4775 56.3072 49.5175C56.7125 50.4922 57.4872 51.2669 58.4632 51.6735C58.5872 51.7255 58.6672 51.8482 58.6672 51.9829L58.6672 57.6669C58.6672 57.8509 58.5178 58.0002 58.3338 58.0002L56.0005 58.0002C52.5832 57.9909 49.7285 55.3935 49.3952 51.9922C49.3805 51.8482 49.4605 51.7109 49.5938 51.6535C51.6205 50.7749 52.5512 48.4189 51.6725 46.3922C50.7938 44.3655 48.4378 43.4349 46.4112 44.3135C44.3845 45.1922 43.4538 47.5482 44.3325 49.5749C44.7485 50.5349 45.5245 51.2935 46.4938 51.6882Z" fill="white"/>
</g>
<circle opacity="0.6" cx="60" cy="60" r="59.5" stroke="#6EC5B8" stroke-dasharray="4 8"/>
<defs>
<filter id="filter0_d" x="12" y="14" width="96" height="96" filterUnits="userSpaceOnUse" color-interpolation-filters="sRGB">
<feFlood flood-opacity="0" result="BackgroundImageFix"/>
<feColorMatrix in="SourceAlpha" type="matrix" values="0 0 0 0 0 0 0 0 0 0 0 0 0 0 0 0 0 0 127 0"/>
<feOffset dy="2"/>
<feGaussianBlur stdDeviation="4"/>
<feColorMatrix type="matrix" values="0 0 0 0 0 0 0 0 0 0 0 0 0 0 0 0 0 0 0.06 0"/>
<feBlend mode="normal" in2="BackgroundImageFix" result="effect1_dropShadow"/>
<feBlend mode="normal" in="SourceGraphic" in2="effect1_dropShadow" result="shape"/>
</filter>
<linearGradient id="paint0_linear" x1="20" y1="20" x2="20" y2="100" gradientUnits="userSpaceOnUse">
<stop stop-color="#17B582"/>
<stop offset="1" stop-color="#3C9D7E"/>
</linearGradient>
<clipPath id="clip0">
<rect x="44" y="44" width="32" height="32" fill="white"/>
</clipPath>
</defs>
</svg>
