<svg width="32" height="32" viewBox="0 0 32 32" fill="none" xmlns="http://www.w3.org/2000/svg">
<g clip-path="url(#clip0)">
<path d="M26.0007 21.0002L30.4153 16.5855C31.1967 15.8042 31.1967 14.5388 30.4153 13.7575L27.6007 10.9495C26.5287 13.4948 23.5967 14.6882 21.0513 13.6148C18.506 12.5415 17.3127 9.61085 18.386 7.06551C18.8927 5.86284 19.85 4.90684 21.0513 4.40018L18.2433 1.58551C17.462 0.804178 16.1967 0.804178 15.4153 1.58551L11.0007 6.00018C11.0007 3.23884 8.762 1.00018 6.00067 1.00018C3.23933 1.00018 1.00067 3.23884 1.00067 6.00018C1.00067 8.76151 3.23933 11.0002 6.00067 11.0002L1.586 15.4148C0.804667 16.1962 0.804667 17.4615 1.586 18.2428L4.40067 21.0508C5.47267 18.5055 8.40467 17.3122 10.95 18.3855C13.4953 19.4588 14.6887 22.3895 13.6153 24.9348C13.1087 26.1375 12.1513 27.0935 10.95 27.6002L13.758 30.4095C14.5393 31.1908 15.8047 31.1908 16.586 30.4095L21.0007 26.0002C21.0007 28.7615 23.2393 31.0002 26.0007 31.0002C28.762 31.0002 31.0007 28.7615 31.0007 26.0002C31.0007 23.2388 28.762 21.0002 26.0007 21.0002Z" stroke="white" stroke-width="1.5" stroke-linecap="round" stroke-linejoin="round"/>
</g>
<defs>
<clipPath id="clip0">
<rect width="32" height="32" fill="white"/>
</clipPath>
</defs>
</svg>
