<svg width="32" height="32" viewBox="0 0 32 32" fill="none" xmlns="http://www.w3.org/2000/svg">
<g clip-path="url(#clip0)">
<path d="M17.0899 19.3559L20.4832 15.9625L22.8192 16.5892C23.9379 16.8879 25.0859 16.2225 25.3846 15.1039C25.4792 14.7505 25.4792 14.3772 25.3846 14.0239L24.7579 11.6879L25.8032 10.6425L28.1392 11.2692C29.2566 11.5692 30.4046 10.9052 30.7046 9.78787C30.7992 9.4332 30.7992 9.05854 30.7046 8.70387L30.0792 6.36787C31.3059 5.1412 31.3059 3.15187 30.0792 1.9252C28.8526 0.698538 26.8632 0.698538 25.6352 1.92654L12.6472 14.9145C8.38724 13.1079 3.4699 15.0972 1.66457 19.3572C-0.140762 23.6172 1.84724 28.5345 6.10724 30.3399C10.3672 32.1465 15.2846 30.1572 17.0899 25.8972C17.9766 23.8065 17.9766 21.4465 17.0899 19.3559Z" stroke="white" stroke-width="1.5" stroke-linecap="round" stroke-linejoin="round"/>
<path d="M7.89545 22.0132C9.05278 22.0132 9.99012 22.9505 9.99012 24.1079C9.99012 25.2652 9.05278 26.2025 7.89545 26.2025C6.73811 26.2025 5.80078 25.2652 5.80078 24.1079C5.80078 22.9505 6.73811 22.0132 7.89545 22.0132Z" stroke="white" stroke-width="1.5" stroke-linecap="round" stroke-linejoin="round"/>
</g>
<defs>
<clipPath id="clip0">
<rect width="32" height="32" fill="white"/>
</clipPath>
</defs>
</svg>
