<svg width="120" height="120" viewBox="0 0 120 120" fill="none" xmlns="http://www.w3.org/2000/svg">
<g filter="url(#filter0_d)">
<circle cx="60" cy="60" r="40" fill="url(#paint0_linear)"/>
</g>
<path d="M74.6831 44.0439H66.8098C65.5418 44.0453 64.5151 45.0719 64.5124 46.3399V50.9333C64.5124 51.2959 64.2191 51.5893 63.8564 51.5893C63.4938 51.5893 63.2004 51.2959 63.2004 50.9333V47.0013C63.2018 46.8173 63.0524 46.6679 62.8684 46.6666H62.8671H56.9671C56.4231 46.6626 55.9804 47.0999 55.9764 47.6439C55.9738 47.9079 56.0791 48.1626 56.2671 48.3493L58.6164 50.6973C58.7458 50.8279 58.7458 51.0386 58.6164 51.1693L56.2671 53.5186C55.8818 53.8999 55.8778 54.5226 56.2591 54.9079C56.4458 55.0973 56.7018 55.2026 56.9671 55.1999H66.8098C68.0764 55.1986 69.1031 54.1719 69.1058 52.9053C69.1044 52.7253 69.2511 52.5786 69.4311 52.5773C69.4324 52.5773 69.4324 52.5773 69.4338 52.5773H72.7084C72.8924 52.5759 73.0404 52.7239 73.0418 52.9079C73.0418 52.9093 73.0418 52.9093 73.0418 52.9106V74.5546C73.0644 75.2799 73.6711 75.8479 74.3964 75.8253C75.0884 75.8026 75.6458 75.2466 75.6671 74.5546V45.3573C75.6658 45.3279 75.6618 45.2986 75.6524 45.2706C75.6391 45.2199 75.6391 45.1679 75.6524 45.1173C75.6618 45.0879 75.6658 45.0586 75.6671 45.0279C75.6671 44.4839 75.2271 44.0439 74.6831 44.0439ZM47.2951 71.7853C45.9564 72.4879 44.9178 73.6546 44.3764 75.0666C44.2471 75.4039 44.4164 75.7826 44.7551 75.9119C44.8298 75.9399 44.9098 75.9546 44.9898 75.9546H53.7444C53.9284 75.9546 54.0778 75.8053 54.0778 75.6213C54.0778 75.6146 54.0778 75.6079 54.0778 75.6026C54.0778 75.5013 54.0684 75.4013 54.0684 75.2986C54.0698 74.4999 54.1751 73.7053 54.3818 72.9333C54.4151 72.8106 54.3751 72.6799 54.2791 72.5959C53.8884 72.2559 53.4564 71.9679 52.9938 71.7386C52.8924 71.6866 52.8231 71.5853 52.8124 71.4719C52.8004 71.3586 52.8484 71.2466 52.9391 71.1773C54.9364 69.6093 55.2844 66.7199 53.7164 64.7226C52.1484 62.7253 49.2591 62.3773 47.2618 63.9453C46.1498 64.8186 45.5004 66.1546 45.5031 67.5679C45.5058 69.0066 46.1871 70.3613 47.3404 71.2213C47.4871 71.3319 47.5151 71.5413 47.4044 71.6879C47.3751 71.7266 47.3378 71.7586 47.2951 71.7813V71.7853ZM47.6004 66.7999C47.6578 66.6253 47.8458 66.5293 48.0204 66.5866C48.0471 66.5959 48.0738 66.6079 48.0978 66.6226C49.0578 67.2453 50.1764 67.5759 51.3204 67.5773C51.7404 67.5746 52.1591 67.5253 52.5684 67.4293C52.6124 67.4199 52.6591 67.4319 52.6938 67.4599C52.7298 67.4879 52.7498 67.5319 52.7498 67.5773C52.7164 69.0333 51.5098 70.1879 50.0538 70.1546C48.6431 70.1226 47.5084 68.9879 47.4764 67.5773C47.4764 67.3133 47.5191 67.0506 47.6004 66.7999ZM60.4004 68.3853C57.6818 69.6133 55.9324 72.3186 55.9284 75.3013C55.9284 75.6639 56.2218 75.9573 56.5844 75.9573H70.4724C70.8351 75.9573 71.1284 75.6639 71.1284 75.3013C71.1244 72.2759 69.3284 69.5413 66.5538 68.3359C66.4404 68.2879 66.3631 68.1813 66.3538 68.0586C66.3444 67.9359 66.4018 67.8186 66.5044 67.7506C66.8031 67.5573 67.0818 67.3346 67.3351 67.0839C69.4871 64.9346 69.4898 61.4479 67.3404 59.2959C65.1911 57.1439 61.7044 57.1413 59.5524 59.2906C57.4471 61.3933 57.3924 64.7893 59.4311 66.9586C59.7324 67.2813 60.0738 67.5653 60.4444 67.8053C60.5471 67.8706 60.6058 67.9879 60.5951 68.1093C60.5844 68.2293 60.5098 68.3346 60.4004 68.3853ZM64.5124 72.7373C64.5124 73.2813 64.0724 73.7213 63.5284 73.7213C62.9844 73.7213 62.5444 73.2813 62.5444 72.7373V71.1226C62.5444 70.5786 62.9858 70.1386 63.5284 70.1386C64.0711 70.1386 64.5124 70.5786 64.5124 71.1226V72.7373ZM59.9058 63.2133C59.9071 62.7986 59.9844 62.3866 60.1338 61.9999C60.1711 61.9039 60.2498 61.8306 60.3471 61.8013C60.4458 61.7706 60.5524 61.7879 60.6364 61.8479C61.8938 62.7359 63.3951 63.2133 64.9338 63.2133C65.5244 63.2119 66.1124 63.1399 66.6858 62.9986C66.7511 62.9826 66.8204 62.9973 66.8738 63.0386C66.9271 63.0813 66.9578 63.1453 66.9591 63.2133C66.9551 64.5066 66.2418 65.6919 65.1018 66.3026C63.3858 67.2266 61.2471 66.5839 60.3231 64.8679C60.0498 64.3586 59.9044 63.7906 59.9018 63.2133H59.9058Z" fill="white"/>
<circle opacity="0.6" cx="60" cy="60" r="59.5" stroke="#6EC5B8" stroke-dasharray="4 8"/>
<defs>
<filter id="filter0_d" x="12" y="14" width="96" height="96" filterUnits="userSpaceOnUse" color-interpolation-filters="sRGB">
<feFlood flood-opacity="0" result="BackgroundImageFix"/>
<feColorMatrix in="SourceAlpha" type="matrix" values="0 0 0 0 0 0 0 0 0 0 0 0 0 0 0 0 0 0 127 0"/>
<feOffset dy="2"/>
<feGaussianBlur stdDeviation="4"/>
<feColorMatrix type="matrix" values="0 0 0 0 0 0 0 0 0 0 0 0 0 0 0 0 0 0 0.06 0"/>
<feBlend mode="normal" in2="BackgroundImageFix" result="effect1_dropShadow"/>
<feBlend mode="normal" in="SourceGraphic" in2="effect1_dropShadow" result="shape"/>
</filter>
<linearGradient id="paint0_linear" x1="20" y1="20" x2="20" y2="100" gradientUnits="userSpaceOnUse">
<stop stop-color="#17B582"/>
<stop offset="1" stop-color="#3C9D7E"/>
</linearGradient>
</defs>
</svg>
