<svg width="188" height="20" viewBox="0 0 188 20" fill="none" xmlns="http://www.w3.org/2000/svg">
<path fill-rule="evenodd" clip-rule="evenodd" d="M155.08 0C154.138 0 153.413 0.718 153.413 1.54033C153.413 2.385 154.138 3.08 155.08 3.08C156.021 3.08 156.716 2.385 156.716 1.54033C156.716 0.718 156.021 0 155.08 0ZM4.58967 2.69133H0V0.209667H12.109V2.69133H7.51967V15.518H4.58967V2.69133ZM16.599 5.38967C17.2343 4.52267 18.296 3.887 19.709 3.887C21.8017 3.887 23.274 5.32233 23.274 8.30467V15.518H20.3667V8.28233C20.3667 7.05667 19.8283 6.279 18.6923 6.279C17.369 6.279 16.562 7.38533 16.562 9.14933V15.518H13.6613V0.209667H16.4797V5.38967H16.599ZM30.261 3.887C26.8227 3.887 24.8193 6.421 24.8193 9.927C24.8193 13.5147 26.9347 15.7347 30.3807 15.7347C33.363 15.7347 34.858 14.0453 35.2767 12.468L32.6753 11.7653C32.3687 12.6177 31.741 13.358 30.358 13.358C28.7063 13.358 27.8093 12.326 27.6223 10.622H35.396V9.40333C35.396 5.71833 33.176 3.887 30.261 3.887ZM30.2387 6.242C28.908 6.242 28.011 7.11667 27.7047 8.62633H32.6457C32.6457 7.27333 31.7637 6.242 30.2387 6.242ZM48.25 0.209667L42.6063 15.518H57.0253L51.3817 0.209667H48.25ZM49.73 3.93233L46.7687 12.6093H52.8707L49.9093 3.93233H49.73ZM64.2723 3.887C62.74 3.887 61.8503 4.672 61.462 5.457H61.29V4.03667H58.427V19.8237H61.3273V14.157H61.462C61.8503 14.95 62.755 15.72 64.2797 15.72C66.8437 15.72 68.847 13.619 68.847 9.785C68.847 5.90567 66.7613 3.887 64.2723 3.887ZM61.058 9.77733C61.058 11.7883 61.7307 13.358 63.5097 13.358C65.214 13.358 66.0887 11.9227 66.0887 9.77733C66.0887 7.63967 65.2217 6.242 63.5097 6.242C61.7457 6.242 61.058 7.75167 61.058 9.77733ZM75.423 3.887C72.1343 3.887 70.0787 6.28667 70.0787 9.79967C70.0787 13.2903 72.1343 15.7347 75.423 15.7347C78.7197 15.7347 80.7673 13.2903 80.7673 9.79967C80.7673 6.28667 78.7197 3.887 75.423 3.887ZM72.8593 9.79967C72.8593 11.833 73.6143 13.358 75.423 13.358C77.2393 13.358 77.987 11.833 77.987 9.79967C77.987 7.75933 77.2393 6.242 75.423 6.242C73.6143 6.242 72.8593 7.75933 72.8593 9.79967ZM82.4253 15.518H85.3257V0.209667H82.4253V15.518ZM90.2147 15.518H87.3143V0.209667H90.2147V15.518ZM97.213 3.887C93.9243 3.887 91.8687 6.28667 91.8687 9.79967C91.8687 13.2903 93.9243 15.7347 97.213 15.7347C100.51 15.7347 102.557 13.2903 102.557 9.79967C102.557 6.28667 100.51 3.887 97.213 3.887ZM94.6493 9.79967C94.6493 11.833 95.4047 13.358 97.213 13.358C99.0297 13.358 99.777 11.833 99.777 9.79967C99.777 7.75933 99.0297 6.242 97.213 6.242C95.4047 6.242 94.6493 7.75933 94.6493 9.79967ZM110.509 8.94033L108.379 8.48433C107.527 8.29733 106.899 7.93133 106.899 7.281C106.899 6.53333 107.766 6.05467 108.745 6.05467C109.859 6.05467 110.569 6.66767 110.719 7.423L113.357 7.15367C112.983 5.07567 111.556 3.887 108.865 3.887C105.972 3.887 104.021 5.24 104.021 7.46767C104.021 9.299 105.352 10.2933 107.198 10.7343L109.216 11.1903C109.949 11.3543 110.614 11.5787 110.614 12.371C110.614 13.036 109.784 13.582 108.663 13.582C107.534 13.582 106.66 12.9993 106.383 11.9527L103.61 12.2667C104.058 14.4347 105.658 15.7347 108.536 15.7347C111.391 15.7347 113.589 14.4193 113.589 12.0427C113.589 10.1957 112.273 9.329 110.509 8.94033ZM121.465 0.209667H127.131C130.943 0.209667 132.498 2.26533 132.498 5.19533C132.498 8.17033 130.876 10.166 127.138 10.166H124.418V15.518H121.465V0.209667ZM127.138 7.714H124.418V2.69133H127.131C128.94 2.69133 129.575 3.78233 129.575 5.19533C129.575 6.60833 128.94 7.714 127.138 7.714ZM136.713 5.666H136.878C137.207 4.50033 138.38 3.88 139.502 3.88C140.099 3.88 140.727 4.04433 141.086 4.25333L140.182 6.77267C140.025 6.68267 139.584 6.53333 139.113 6.53333C137.738 6.53333 136.788 7.737 136.773 9.00733V15.518H133.873V4.03667H136.713V5.666ZM146.568 3.887C143.279 3.887 141.223 6.28667 141.223 9.79967C141.223 13.2903 143.279 15.7347 146.568 15.7347C149.864 15.7347 151.912 13.2903 151.912 9.79967C151.912 6.28667 149.864 3.887 146.568 3.887ZM144.003 9.79967C144.003 11.833 144.759 13.358 146.568 13.358C148.384 13.358 149.131 11.833 149.131 9.79967C149.131 7.75933 148.384 6.242 146.568 6.242C144.759 6.242 144.003 7.75933 144.003 9.79967ZM152.022 17.499C153.285 17.499 153.622 16.871 153.622 15.9887V4.03667H156.522V16.0263C156.522 18.598 154.855 19.8533 152.404 19.8533H151.432V17.499H152.022ZM163.593 3.887C160.155 3.887 158.152 6.421 158.152 9.927C158.152 13.5147 160.267 15.7347 163.713 15.7347C166.695 15.7347 168.19 14.0453 168.609 12.468L166.007 11.7653C165.701 12.6177 165.073 13.358 163.69 13.358C162.038 13.358 161.141 12.326 160.955 10.622H168.728V9.40333C168.728 5.71833 166.508 3.887 163.593 3.887ZM163.571 6.242C162.24 6.242 161.343 7.11667 161.037 8.62633H165.978C165.978 7.27333 165.096 6.242 163.571 6.242ZM175.319 6.242C176.59 6.242 177.255 7.01933 177.524 8.10333L180.223 7.69967C179.804 5.382 177.92 3.887 175.312 3.887C172.023 3.887 169.975 6.31667 169.975 9.77733C169.975 13.2683 172.001 15.7347 175.319 15.7347C177.905 15.7347 179.744 14.2397 180.2 12.0493L177.487 11.6607C177.196 12.6923 176.47 13.358 175.319 13.358C173.593 13.358 172.755 11.9303 172.755 9.77733C172.755 7.64733 173.608 6.242 175.319 6.242ZM186.58 13.2303C186.849 13.2303 187.126 13.1937 187.32 13.1407L187.776 15.376C187.559 15.4657 186.834 15.6677 185.773 15.6677C184.031 15.6677 182.521 14.464 182.521 12.4457V6.18967H181.093V4.03667H182.521V1.585H185.421V4.03667H187.424V6.18967H185.421V12.005C185.421 13.074 185.945 13.2303 186.58 13.2303Z" fill="#00676D"/>
<mask id="mask0" mask-type="alpha" maskUnits="userSpaceOnUse" x="0" y="0" width="188" height="20">
<path fill-rule="evenodd" clip-rule="evenodd" d="M155.08 0C154.138 0 153.413 0.718 153.413 1.54033C153.413 2.385 154.138 3.08 155.08 3.08C156.021 3.08 156.716 2.385 156.716 1.54033C156.716 0.718 156.021 0 155.08 0ZM4.58967 2.69133H0V0.209667H12.109V2.69133H7.51967V15.518H4.58967V2.69133ZM16.599 5.38967C17.2343 4.52267 18.296 3.887 19.709 3.887C21.8017 3.887 23.274 5.32233 23.274 8.30467V15.518H20.3667V8.28233C20.3667 7.05667 19.8283 6.279 18.6923 6.279C17.369 6.279 16.562 7.38533 16.562 9.14933V15.518H13.6613V0.209667H16.4797V5.38967H16.599ZM30.261 3.887C26.8227 3.887 24.8193 6.421 24.8193 9.927C24.8193 13.5147 26.9347 15.7347 30.3807 15.7347C33.363 15.7347 34.858 14.0453 35.2767 12.468L32.6753 11.7653C32.3687 12.6177 31.741 13.358 30.358 13.358C28.7063 13.358 27.8093 12.326 27.6223 10.622H35.396V9.40333C35.396 5.71833 33.176 3.887 30.261 3.887ZM30.2387 6.242C28.908 6.242 28.011 7.11667 27.7047 8.62633H32.6457C32.6457 7.27333 31.7637 6.242 30.2387 6.242ZM48.25 0.209667L42.6063 15.518H57.0253L51.3817 0.209667H48.25ZM49.73 3.93233L46.7687 12.6093H52.8707L49.9093 3.93233H49.73ZM64.2723 3.887C62.74 3.887 61.8503 4.672 61.462 5.457H61.29V4.03667H58.427V19.8237H61.3273V14.157H61.462C61.8503 14.95 62.755 15.72 64.2797 15.72C66.8437 15.72 68.847 13.619 68.847 9.785C68.847 5.90567 66.7613 3.887 64.2723 3.887ZM61.058 9.77733C61.058 11.7883 61.7307 13.358 63.5097 13.358C65.214 13.358 66.0887 11.9227 66.0887 9.77733C66.0887 7.63967 65.2217 6.242 63.5097 6.242C61.7457 6.242 61.058 7.75167 61.058 9.77733ZM75.423 3.887C72.1343 3.887 70.0787 6.28667 70.0787 9.79967C70.0787 13.2903 72.1343 15.7347 75.423 15.7347C78.7197 15.7347 80.7673 13.2903 80.7673 9.79967C80.7673 6.28667 78.7197 3.887 75.423 3.887ZM72.8593 9.79967C72.8593 11.833 73.6143 13.358 75.423 13.358C77.2393 13.358 77.987 11.833 77.987 9.79967C77.987 7.75933 77.2393 6.242 75.423 6.242C73.6143 6.242 72.8593 7.75933 72.8593 9.79967ZM82.4253 15.518H85.3257V0.209667H82.4253V15.518ZM90.2147 15.518H87.3143V0.209667H90.2147V15.518ZM97.213 3.887C93.9243 3.887 91.8687 6.28667 91.8687 9.79967C91.8687 13.2903 93.9243 15.7347 97.213 15.7347C100.51 15.7347 102.557 13.2903 102.557 9.79967C102.557 6.28667 100.51 3.887 97.213 3.887ZM94.6493 9.79967C94.6493 11.833 95.4047 13.358 97.213 13.358C99.0297 13.358 99.777 11.833 99.777 9.79967C99.777 7.75933 99.0297 6.242 97.213 6.242C95.4047 6.242 94.6493 7.75933 94.6493 9.79967ZM110.509 8.94033L108.379 8.48433C107.527 8.29733 106.899 7.93133 106.899 7.281C106.899 6.53333 107.766 6.05467 108.745 6.05467C109.859 6.05467 110.569 6.66767 110.719 7.423L113.357 7.15367C112.983 5.07567 111.556 3.887 108.865 3.887C105.972 3.887 104.021 5.24 104.021 7.46767C104.021 9.299 105.352 10.2933 107.198 10.7343L109.216 11.1903C109.949 11.3543 110.614 11.5787 110.614 12.371C110.614 13.036 109.784 13.582 108.663 13.582C107.534 13.582 106.66 12.9993 106.383 11.9527L103.61 12.2667C104.058 14.4347 105.658 15.7347 108.536 15.7347C111.391 15.7347 113.589 14.4193 113.589 12.0427C113.589 10.1957 112.273 9.329 110.509 8.94033ZM121.465 0.209667H127.131C130.943 0.209667 132.498 2.26533 132.498 5.19533C132.498 8.17033 130.876 10.166 127.138 10.166H124.418V15.518H121.465V0.209667ZM127.138 7.714H124.418V2.69133H127.131C128.94 2.69133 129.575 3.78233 129.575 5.19533C129.575 6.60833 128.94 7.714 127.138 7.714ZM136.713 5.666H136.878C137.207 4.50033 138.38 3.88 139.502 3.88C140.099 3.88 140.727 4.04433 141.086 4.25333L140.182 6.77267C140.025 6.68267 139.584 6.53333 139.113 6.53333C137.738 6.53333 136.788 7.737 136.773 9.00733V15.518H133.873V4.03667H136.713V5.666ZM146.568 3.887C143.279 3.887 141.223 6.28667 141.223 9.79967C141.223 13.2903 143.279 15.7347 146.568 15.7347C149.864 15.7347 151.912 13.2903 151.912 9.79967C151.912 6.28667 149.864 3.887 146.568 3.887ZM144.003 9.79967C144.003 11.833 144.759 13.358 146.568 13.358C148.384 13.358 149.131 11.833 149.131 9.79967C149.131 7.75933 148.384 6.242 146.568 6.242C144.759 6.242 144.003 7.75933 144.003 9.79967ZM152.022 17.499C153.285 17.499 153.622 16.871 153.622 15.9887V4.03667H156.522V16.0263C156.522 18.598 154.855 19.8533 152.404 19.8533H151.432V17.499H152.022ZM163.593 3.887C160.155 3.887 158.152 6.421 158.152 9.927C158.152 13.5147 160.267 15.7347 163.713 15.7347C166.695 15.7347 168.19 14.0453 168.609 12.468L166.007 11.7653C165.701 12.6177 165.073 13.358 163.69 13.358C162.038 13.358 161.141 12.326 160.955 10.622H168.728V9.40333C168.728 5.71833 166.508 3.887 163.593 3.887ZM163.571 6.242C162.24 6.242 161.343 7.11667 161.037 8.62633H165.978C165.978 7.27333 165.096 6.242 163.571 6.242ZM175.319 6.242C176.59 6.242 177.255 7.01933 177.524 8.10333L180.223 7.69967C179.804 5.382 177.92 3.887 175.312 3.887C172.023 3.887 169.975 6.31667 169.975 9.77733C169.975 13.2683 172.001 15.7347 175.319 15.7347C177.905 15.7347 179.744 14.2397 180.2 12.0493L177.487 11.6607C177.196 12.6923 176.47 13.358 175.319 13.358C173.593 13.358 172.755 11.9303 172.755 9.77733C172.755 7.64733 173.608 6.242 175.319 6.242ZM186.58 13.2303C186.849 13.2303 187.126 13.1937 187.32 13.1407L187.776 15.376C187.559 15.4657 186.834 15.6677 185.773 15.6677C184.031 15.6677 182.521 14.464 182.521 12.4457V6.18967H181.093V4.03667H182.521V1.585H185.421V4.03667H187.424V6.18967H185.421V12.005C185.421 13.074 185.945 13.2303 186.58 13.2303Z" fill="white"/>
</mask>
<g mask="url(#mask0)">
</g>
</svg>
