<svg width="185" height="36" viewBox="0 0 185 36" fill="none" xmlns="http://www.w3.org/2000/svg">
<path fill-rule="evenodd" clip-rule="evenodd" d="M35.8329 17.9999C35.8329 27.8949 27.8114 35.9164 17.9164 35.9164C8.02144 35.9164 0 27.8949 0 17.9999C0 8.10494 8.02144 0.0834961 17.9164 0.0834961C27.8114 0.0834961 35.8329 8.10494 35.8329 17.9999Z" fill="#273771"/>
<path fill-rule="evenodd" clip-rule="evenodd" d="M11.4984 10.4995H7.38149C7.28794 10.6161 7.19513 10.7333 7.10645 10.8533L11.3103 27.9008C11.4214 27.9609 11.5331 28.0204 11.6464 28.0775H15.8911L11.4984 10.4995ZM22.2056 18.762L20.1681 10.4995H15.6019L19.9079 28.0775H24.2959C24.3576 28.0464 24.4179 28.0133 24.4791 27.9813L22.2056 18.762Z" fill="#FFFFFE"/>
<path fill-rule="evenodd" clip-rule="evenodd" d="M28.5615 10.4995H24.2431L22.2061 18.762L24.4795 27.9813C24.4975 27.9718 24.5155 27.9623 24.5335 27.9529L28.7281 10.7138C28.6732 10.6419 28.6178 10.5702 28.5615 10.4995Z" fill="#91918F"/>
<path fill-rule="evenodd" clip-rule="evenodd" d="M15.8896 28.0775L17.9002 19.8879L15.6005 10.4995L13.6016 18.9216L15.8896 28.0775Z" fill="#91918F"/>
<g clip-path="url(#clip0)">
<path d="M63.7493 6.16149H61.2878L59.0709 13.4083L56.6706 6.13091H54.6525L52.2522 13.4083L50.0353 6.16149H47.5127L51.1667 16.94H53.2154L55.631 9.93779L58.0466 16.94H60.0953L63.7493 6.16149Z" fill="black"/>
<path d="M68.6275 16.8636V6.16149H66.273V16.8636H68.6275Z" fill="black"/>
<path d="M79.6649 16.8636V14.7231H74.3292V6.16149H71.9747V16.8636H79.6649Z" fill="black"/>
<path d="M89.8035 16.8636V14.7231H84.4677V6.16149H82.1133V16.8636H89.8035Z" fill="black"/>
<path d="M103.153 11.5125V11.4819C103.153 10.7175 103.01 10.004 102.725 9.34153C102.449 8.66883 102.057 8.08786 101.547 7.59863C101.048 7.0992 100.452 6.70679 99.7586 6.4214C99.0655 6.12582 98.3062 5.97803 97.4806 5.97803C96.655 5.97803 95.8905 6.12582 95.1873 6.4214C94.4942 6.70679 93.8928 7.10429 93.3832 7.61391C92.8838 8.11334 92.4914 8.69941 92.206 9.37211C91.9206 10.0346 91.7779 10.7481 91.7779 11.5125V11.5431C91.7779 12.3075 91.9155 13.0261 92.1907 13.6988C92.4761 14.3613 92.8685 14.9423 93.3679 15.4417C93.8775 15.9309 94.4789 16.3234 95.172 16.6189C95.8651 16.9043 96.6244 17.047 97.45 17.047C98.2756 17.047 99.0349 16.9043 99.728 16.6189C100.431 16.3234 101.033 15.9259 101.532 15.4264C102.042 14.9168 102.439 14.3307 102.725 13.6682C103.01 12.9955 103.153 12.277 103.153 11.5125ZM100.691 11.5431C100.691 12.0018 100.61 12.4349 100.447 12.8426C100.294 13.2401 100.075 13.5918 99.7892 13.8976C99.514 14.2033 99.1776 14.4428 98.7801 14.6161C98.3826 14.7894 97.9494 14.876 97.4806 14.876C97.0015 14.876 96.5632 14.7894 96.1657 14.6161C95.7784 14.4327 95.437 14.188 95.1414 13.8823C94.856 13.5765 94.6318 13.2198 94.4687 12.8121C94.3158 12.4044 94.2394 11.9712 94.2394 11.5125V11.4819C94.2394 11.0233 94.3158 10.5952 94.4687 10.1977C94.6318 9.79 94.8509 9.43326 95.1261 9.12749C95.4115 8.82172 95.7478 8.5822 96.1352 8.40892C96.5327 8.23565 96.9709 8.14902 97.45 8.14902C97.9188 8.14902 98.352 8.24075 98.7495 8.42421C99.147 8.59748 99.4885 8.83701 99.7739 9.14278C100.069 9.44855 100.294 9.80529 100.447 10.213C100.61 10.6207 100.691 11.0539 100.691 11.5125V11.5431Z" fill="black"/>
<path d="M121.325 6.16149H118.863L116.647 13.4083L114.246 6.13091H112.228L109.828 13.4083L107.611 6.16149H105.088L108.742 16.94H110.791L113.207 9.93779L115.622 16.94H117.671L121.325 6.16149Z" fill="black"/>
<path d="M138.401 15.1359L136.902 13.6224C136.484 14.0097 136.061 14.3154 135.633 14.5397C135.215 14.7639 134.701 14.876 134.089 14.876C133.63 14.876 133.207 14.7894 132.82 14.6161C132.443 14.4327 132.117 14.188 131.842 13.8823C131.577 13.5765 131.368 13.2198 131.215 12.8121C131.062 12.4044 130.985 11.9712 130.985 11.5125V11.4819C130.985 11.0233 131.062 10.5952 131.215 10.1977C131.368 9.79 131.582 9.43326 131.857 9.12749C132.132 8.82172 132.458 8.5822 132.835 8.40892C133.223 8.23565 133.641 8.14902 134.089 8.14902C134.629 8.14902 135.113 8.25604 135.542 8.47008C135.98 8.68412 136.408 8.9797 136.826 9.35682L138.324 7.6292C138.079 7.38458 137.814 7.16035 137.529 6.9565C137.244 6.75265 136.933 6.57938 136.596 6.43669C136.26 6.29399 135.883 6.18188 135.465 6.10034C135.057 6.0188 134.604 5.97803 134.104 5.97803C133.279 5.97803 132.525 6.12582 131.842 6.4214C131.159 6.70679 130.573 7.10429 130.083 7.61391C129.594 8.11334 129.212 8.69941 128.937 9.37211C128.662 10.0346 128.524 10.7481 128.524 11.5125V11.5431C128.524 12.3075 128.662 13.0261 128.937 13.6988C129.212 14.3715 129.594 14.9576 130.083 15.457C130.573 15.9462 131.154 16.3335 131.826 16.6189C132.499 16.9043 133.228 17.047 134.013 17.047C134.532 17.047 135.001 17.0012 135.419 16.9094C135.837 16.8279 136.219 16.7056 136.566 16.5425C136.923 16.3692 137.249 16.1654 137.544 15.9309C137.84 15.6965 138.125 15.4315 138.401 15.1359Z" fill="black"/>
<path d="M150.208 16.8636L147.593 13.0414C148.276 12.7866 148.827 12.3891 149.244 11.8489C149.673 11.2985 149.887 10.5901 149.887 9.72375V9.69317C149.887 8.5822 149.53 7.71584 148.816 7.0941C148.113 6.47236 147.124 6.16149 145.85 6.16149H140.958V16.8636H143.312V13.4389H145.162L147.456 16.8636H150.208ZM147.502 9.84606C147.502 10.3047 147.344 10.6716 147.028 10.9468C146.722 11.222 146.278 11.3596 145.698 11.3596H143.312V8.28661H145.652C146.233 8.28661 146.686 8.41402 147.012 8.66883C147.339 8.92364 147.502 9.30586 147.502 9.81548V9.84606Z" fill="black"/>
<path d="M160.828 16.8636V14.769H155.018V12.5216H160.064V10.427H155.018V8.25604H160.752V6.16149H152.679V16.8636H160.828Z" fill="black"/>
<path d="M171.743 16.8636V14.769H165.933V12.5216H170.979V10.427H165.933V8.25604H171.667V6.16149H163.594V16.8636H171.743Z" fill="black"/>
<path d="M184.248 16.8636L179.692 10.7022L184.049 6.16149H181.206L176.864 10.8398V6.16149H174.509V16.8636H176.864V13.5918L178.102 12.3075L181.42 16.8636H184.248Z" fill="black"/>
<path d="M52.1423 29.1263L51.44 28.4168C51.2441 28.5983 51.0458 28.7417 50.8452 28.8468C50.6493 28.9519 50.408 29.0044 50.1213 29.0044C49.9063 29.0044 49.7081 28.9638 49.5265 28.8826C49.3497 28.7966 49.1968 28.6819 49.0678 28.5386C48.9436 28.3953 48.8457 28.2281 48.774 28.037C48.7023 27.8458 48.6665 27.6428 48.6665 27.4278V27.4135C48.6665 27.1985 48.7023 26.9978 48.774 26.8115C48.8457 26.6204 48.946 26.4531 49.075 26.3098C49.204 26.1665 49.3569 26.0542 49.5337 25.973C49.7152 25.8918 49.9111 25.8511 50.1213 25.8511C50.3745 25.8511 50.6015 25.9013 50.8022 26.0016C51.0076 26.102 51.2083 26.2405 51.4041 26.4173L52.1065 25.6075C51.9918 25.4928 51.8676 25.3877 51.7338 25.2922C51.6 25.1966 51.4543 25.1154 51.2966 25.0485C51.139 24.9816 50.9622 24.9291 50.7663 24.8908C50.5752 24.8526 50.3626 24.8335 50.1285 24.8335C49.7415 24.8335 49.3879 24.9028 49.0678 25.0413C48.7477 25.1751 48.473 25.3614 48.2437 25.6003C48.0144 25.8344 47.8352 26.1091 47.7062 26.4245C47.5772 26.735 47.5127 27.0695 47.5127 27.4278V27.4421C47.5127 27.8005 47.5772 28.1373 47.7062 28.4526C47.8352 28.7679 48.0144 29.0427 48.2437 29.2768C48.473 29.5061 48.7453 29.6877 49.0607 29.8214C49.376 29.9552 49.7176 30.0221 50.0855 30.0221C50.3292 30.0221 50.5489 30.0006 50.7448 29.9576C50.9407 29.9194 51.1199 29.862 51.2823 29.7856C51.4495 29.7044 51.6024 29.6088 51.741 29.4989C51.8795 29.389 52.0133 29.2648 52.1423 29.1263Z" fill="#97999B"/>
<path d="M59.1031 27.4278V27.4135C59.1031 27.0551 59.0362 26.7207 58.9024 26.4101C58.7734 26.0948 58.5895 25.8225 58.3506 25.5932C58.1165 25.359 57.837 25.1751 57.5121 25.0413C57.1872 24.9028 56.8313 24.8335 56.4443 24.8335C56.0573 24.8335 55.6989 24.9028 55.3693 25.0413C55.0444 25.1751 54.7625 25.3614 54.5236 25.6003C54.2895 25.8344 54.1056 26.1091 53.9718 26.4245C53.838 26.735 53.7711 27.0695 53.7711 27.4278V27.4421C53.7711 27.8005 53.8356 28.1373 53.9646 28.4526C54.0984 28.7632 54.2823 29.0355 54.5165 29.2696C54.7553 29.4989 55.0372 29.6829 55.3621 29.8214C55.687 29.9552 56.0429 30.0221 56.4299 30.0221C56.8169 30.0221 57.1729 29.9552 57.4977 29.8214C57.8274 29.6829 58.1093 29.4965 58.3434 29.2624C58.5823 29.0236 58.7686 28.7488 58.9024 28.4383C59.0362 28.123 59.1031 27.7861 59.1031 27.4278ZM57.9492 27.4421C57.9492 27.6571 57.911 27.8602 57.8346 28.0513C57.7629 28.2376 57.6602 28.4024 57.5264 28.5458C57.3974 28.6891 57.2398 28.8014 57.0534 28.8826C56.8671 28.9638 56.664 29.0044 56.4443 29.0044C56.2197 29.0044 56.0143 28.9638 55.8279 28.8826C55.6464 28.7966 55.4863 28.6819 55.3478 28.5386C55.214 28.3953 55.1089 28.2281 55.0324 28.037C54.9608 27.8458 54.9249 27.6428 54.9249 27.4278V27.4135C54.9249 27.1985 54.9608 26.9978 55.0324 26.8115C55.1089 26.6204 55.2116 26.4531 55.3406 26.3098C55.4744 26.1665 55.632 26.0542 55.8136 25.973C55.9999 25.8918 56.2054 25.8511 56.4299 25.8511C56.6497 25.8511 56.8528 25.8941 57.0391 25.9801C57.2254 26.0614 57.3855 26.1736 57.5192 26.317C57.6578 26.4603 57.7629 26.6275 57.8346 26.8186C57.911 27.0097 57.9492 27.2128 57.9492 27.4278V27.4421Z" fill="#97999B"/>
<path d="M66.0662 29.9361V24.9195H64.8765L63.5579 27.0408L62.2392 24.9195H61.0496V29.9361H62.1317V26.6825L63.5292 28.8038H63.5579L64.9697 26.661V29.9361H66.0662Z" fill="#97999B"/>
<path d="M73.2554 29.9361V24.9195H72.0658L70.7471 27.0408L69.4285 24.9195H68.2388V29.9361H69.321V26.6825L70.7185 28.8038H70.7471L72.1589 26.661V29.9361H73.2554Z" fill="#97999B"/>
<path d="M79.7208 27.7503V24.9195H78.6172V27.7933C78.6172 28.1946 78.5216 28.4956 78.3305 28.6963C78.1394 28.8969 77.8743 28.9973 77.535 28.9973C77.1958 28.9973 76.9307 28.8946 76.7395 28.6891C76.5484 28.4789 76.4529 28.1683 76.4529 27.7575V24.9195H75.3492V27.7861C75.3492 28.5267 75.5427 29.0833 75.9297 29.4559C76.3167 29.8286 76.847 30.0149 77.5207 30.0149C77.8551 30.0149 78.1585 29.9695 78.4309 29.8788C78.7032 29.7832 78.9349 29.6423 79.126 29.4559C79.3171 29.2648 79.4628 29.0283 79.5632 28.7464C79.6683 28.4646 79.7208 28.1325 79.7208 27.7503Z" fill="#97999B"/>
<path d="M86.2701 29.9361V24.9195H85.1808V28.0083L82.8301 24.9195H81.8125V29.9361H82.9018V26.747L85.3313 29.9361H86.2701Z" fill="#97999B"/>
<path d="M89.5957 29.9361V24.9195H88.492V29.9361H89.5957Z" fill="#97999B"/>
<path d="M95.6151 25.9371V24.9195H91.4585V25.9371H92.985V29.9361H94.0887V25.9371H95.6151Z" fill="#97999B"/>
<path d="M101.875 24.9195H100.621L99.4022 26.9333L98.2054 24.9195H96.9154L98.8432 27.9581V29.9361H99.9469V27.9366L101.875 24.9195Z" fill="#97999B"/>
<path d="M111.052 29.1263L110.35 28.4168C110.154 28.5983 109.956 28.7417 109.755 28.8468C109.559 28.9519 109.318 29.0044 109.031 29.0044C108.816 29.0044 108.618 28.9638 108.437 28.8826C108.26 28.7966 108.107 28.6819 107.978 28.5386C107.854 28.3953 107.756 28.2281 107.684 28.037C107.612 27.8458 107.577 27.6428 107.577 27.4278V27.4135C107.577 27.1985 107.612 26.9978 107.684 26.8115C107.756 26.6204 107.856 26.4531 107.985 26.3098C108.114 26.1665 108.267 26.0542 108.444 25.973C108.625 25.8918 108.821 25.8511 109.031 25.8511C109.285 25.8511 109.512 25.9013 109.712 26.0016C109.918 26.102 110.118 26.2405 110.314 26.4173L111.017 25.6075C110.902 25.4928 110.778 25.3877 110.644 25.2922C110.51 25.1966 110.364 25.1154 110.207 25.0485C110.049 24.9816 109.872 24.9291 109.676 24.8908C109.485 24.8526 109.273 24.8335 109.039 24.8335C108.652 24.8335 108.298 24.9028 107.978 25.0413C107.658 25.1751 107.383 25.3614 107.154 25.6003C106.924 25.8344 106.745 26.1091 106.616 26.4245C106.487 26.735 106.423 27.0695 106.423 27.4278V27.4421C106.423 27.8005 106.487 28.1373 106.616 28.4526C106.745 28.7679 106.924 29.0427 107.154 29.2768C107.383 29.5061 107.655 29.6877 107.971 29.8214C108.286 29.9552 108.628 30.0221 108.996 30.0221C109.239 30.0221 109.459 30.0006 109.655 29.9576C109.851 29.9194 110.03 29.862 110.192 29.7856C110.36 29.7044 110.512 29.6088 110.651 29.4989C110.79 29.389 110.923 29.2648 111.052 29.1263Z" fill="#97999B"/>
<path d="M117.146 29.9361V24.9195H116.042V26.9046H114.007V24.9195H112.903V29.9361H114.007V27.9223H116.042V29.9361H117.146Z" fill="#97999B"/>
<path d="M123.609 27.7503V24.9195H122.505V27.7933C122.505 28.1946 122.409 28.4956 122.218 28.6963C122.027 28.8969 121.762 28.9973 121.423 28.9973C121.084 28.9973 120.818 28.8946 120.627 28.6891C120.436 28.4789 120.341 28.1683 120.341 27.7575V24.9195H119.237V27.7861C119.237 28.5267 119.43 29.0833 119.817 29.4559C120.204 29.8286 120.735 30.0149 121.408 30.0149C121.743 30.0149 122.046 29.9695 122.319 29.8788C122.591 29.7832 122.823 29.6423 123.014 29.4559C123.205 29.2648 123.351 29.0283 123.451 28.7464C123.556 28.4646 123.609 28.1325 123.609 27.7503Z" fill="#97999B"/>
<path d="M130.036 29.9361L128.81 28.1445C129.131 28.025 129.389 27.8387 129.584 27.5855C129.785 27.3275 129.885 26.9954 129.885 26.5893V26.575C129.885 26.0542 129.718 25.6481 129.384 25.3567C129.054 25.0652 128.591 24.9195 127.993 24.9195H125.7V29.9361H126.804V28.3308H127.671L128.746 29.9361H130.036ZM128.767 26.6466C128.767 26.8616 128.693 27.0336 128.545 27.1626C128.402 27.2916 128.194 27.3561 127.922 27.3561H126.804V25.9156H127.9C128.173 25.9156 128.385 25.9754 128.538 26.0948C128.691 26.2143 128.767 26.3934 128.767 26.6323V26.6466Z" fill="#97999B"/>
<path d="M136.254 29.1263L135.552 28.4168C135.356 28.5983 135.158 28.7417 134.957 28.8468C134.761 28.9519 134.52 29.0044 134.233 29.0044C134.018 29.0044 133.82 28.9638 133.638 28.8826C133.462 28.7966 133.309 28.6819 133.18 28.5386C133.055 28.3953 132.957 28.2281 132.886 28.037C132.814 27.8458 132.778 27.6428 132.778 27.4278V27.4135C132.778 27.1985 132.814 26.9978 132.886 26.8115C132.957 26.6204 133.058 26.4531 133.187 26.3098C133.316 26.1665 133.469 26.0542 133.645 25.973C133.827 25.8918 134.023 25.8511 134.233 25.8511C134.486 25.8511 134.713 25.9013 134.914 26.0016C135.119 26.102 135.32 26.2405 135.516 26.4173L136.218 25.6075C136.104 25.4928 135.979 25.3877 135.846 25.2922C135.712 25.1966 135.566 25.1154 135.408 25.0485C135.251 24.9816 135.074 24.9291 134.878 24.8908C134.687 24.8526 134.474 24.8335 134.24 24.8335C133.853 24.8335 133.5 24.9028 133.18 25.0413C132.86 25.1751 132.585 25.3614 132.355 25.6003C132.126 25.8344 131.947 26.1091 131.818 26.4245C131.689 26.735 131.624 27.0695 131.624 27.4278V27.4421C131.624 27.8005 131.689 28.1373 131.818 28.4526C131.947 28.7679 132.126 29.0427 132.355 29.2768C132.585 29.5061 132.857 29.6877 133.172 29.8214C133.488 29.9552 133.829 30.0221 134.197 30.0221C134.441 30.0221 134.661 30.0006 134.857 29.9576C135.052 29.9194 135.232 29.862 135.394 29.7856C135.561 29.7044 135.714 29.6088 135.853 29.4989C135.991 29.389 136.125 29.2648 136.254 29.1263Z" fill="#97999B"/>
<path d="M142.348 29.9361V24.9195H141.244V26.9046H139.209V24.9195H138.105V29.9361H139.209V27.9223H141.244V29.9361H142.348Z" fill="#97999B"/>
</g>
<defs>
<clipPath id="clip0">
<rect x="47.5127" y="5.97803" width="136.735" height="24.0442" fill="white"/>
</clipPath>
</defs>
</svg>
