<svg width="106" height="38" viewBox="0 0 106 38" fill="none" xmlns="http://www.w3.org/2000/svg">
<g clip-path="url(#clip0)">
<g clip-path="url(#clip1)">
<path fill-rule="evenodd" clip-rule="evenodd" d="M19.903 5.0463L27.3828 9.43318C27.5988 9.20109 27.8466 9.00189 28.1186 8.84176C29.6698 7.93586 31.6485 8.47372 32.5496 10.0495C33.4414 11.6253 32.9119 13.6351 31.3605 14.5504C31.0906 14.7083 30.7996 14.826 30.4967 14.8998V23.6768C30.7963 23.7507 31.0841 23.8676 31.3513 24.0239C32.9119 24.9391 33.4414 26.949 32.5403 28.5248C31.6485 30.1005 29.6606 30.6384 28.1093 29.7326C27.8087 29.5574 27.538 29.3342 27.3075 29.0714L19.8731 33.4313C19.982 33.7662 20.0373 34.1166 20.0369 34.4693C20.0369 36.2809 18.5878 37.7625 16.795 37.7625C15.0021 37.7625 13.553 36.2903 13.553 34.4693C13.553 34.1456 13.5988 33.8329 13.6842 33.5376L6.20631 29.152C5.99273 29.3794 5.7484 29.5749 5.48065 29.7326C3.92007 30.6384 1.94141 30.1005 1.04958 28.5248C0.157872 26.949 0.68738 24.9391 2.2386 24.0239C2.50583 23.8675 2.7936 23.7506 3.09325 23.6766V14.8998C2.79029 14.826 2.49935 14.7083 2.22937 14.5504C0.678022 13.6446 0.148514 11.6253 1.04034 10.0495C1.93217 8.47372 3.91995 7.93586 5.47129 8.84176C5.74181 9.00104 5.98841 9.19896 6.20352 9.42946L13.6856 5.04141C13.5974 4.73734 13.5527 4.42195 13.553 4.10495C13.553 2.28403 15.0021 0.81189 16.795 0.81189C18.5878 0.81189 20.0369 2.28391 20.0369 4.10495C20.0369 4.43226 19.9901 4.74814 19.903 5.0463ZM19.1237 6.39795L26.6214 10.7951C26.502 11.219 26.4678 11.663 26.5207 12.1007C26.5737 12.5383 26.7127 12.9606 26.9296 13.3426C27.386 14.1491 28.1295 14.6837 28.9547 14.8921V23.68C28.9126 23.6904 28.8707 23.7018 28.8291 23.7139L19.0365 6.48594C19.0661 6.45717 19.0952 6.42788 19.1237 6.39807V6.39795ZM14.5554 6.48787L4.76296 23.7156C4.72062 23.7031 4.67804 23.6916 4.63523 23.6809V14.8921C5.46042 14.6837 6.2039 14.1491 6.66031 13.3426C6.87763 12.9599 7.01681 12.5367 7.06955 12.0981C7.12228 11.6596 7.08749 11.2148 6.96724 10.7902L14.4628 6.39435C14.493 6.42608 14.5239 6.45729 14.5554 6.48774V6.48787ZM17.7008 7.26826L27.491 24.4921C27.2667 24.7095 27.0745 24.9585 26.9202 25.2316C26.7664 25.5031 26.6513 25.7954 26.5785 26.0998H7.01163C6.93876 25.7954 6.82361 25.5031 6.66967 25.2316C6.51488 24.9604 6.32302 24.7129 6.09982 24.4963L15.8919 7.26903C16.1854 7.35489 16.4895 7.39831 16.795 7.398C17.1095 7.398 17.4134 7.35278 17.7008 7.26826ZM19.1925 32.2508L26.6415 27.8821C26.6192 27.8108 26.5992 27.7388 26.5817 27.6661H7.00746C6.99709 27.7088 6.98583 27.7512 6.97382 27.7935L14.4593 32.1836C14.7616 31.8643 15.1243 31.6105 15.5257 31.4373C15.9271 31.2642 16.3589 31.1754 16.795 31.1762C17.2463 31.1754 17.6928 31.2706 18.1057 31.4557C18.5186 31.6408 18.8888 31.9116 19.1925 32.2508Z" fill="white"/>
</g>
<path d="M50.2514 22.7071C49.7972 23.3578 49.1618 23.8458 48.3454 24.1712C47.535 24.4904 46.5897 24.65 45.5093 24.65C44.4166 24.65 43.4466 24.3952 42.5995 23.8857C41.7523 23.3701 41.0955 22.6396 40.6289 21.6942C40.1685 20.7488 39.9322 19.6531 39.9199 18.4069V17.2375C39.9199 15.2178 40.3895 13.6524 41.3288 12.5413C42.2741 11.4302 43.6001 10.8746 45.3067 10.8746C46.7063 10.8746 47.8328 11.2337 48.6861 11.952C49.5394 12.6641 50.0611 13.677 50.2514 14.9907H48.4835C48.152 13.2166 47.0961 12.3295 45.3159 12.3295C44.1311 12.3295 43.2318 12.747 42.6179 13.5818C42.0102 14.4106 41.7032 15.6138 41.6971 17.1914V18.2872C41.6971 19.7912 42.0409 20.9882 42.7284 21.8784C43.4159 22.7623 44.346 23.2043 45.5185 23.2043C46.1815 23.2043 46.7616 23.1307 47.2588 22.9833C47.756 22.836 48.1673 22.5874 48.4927 22.2375V19.2264H45.3896V17.7899H50.2514V22.7071Z" fill="white"/>
<path d="M57.7561 16.0312C57.4983 15.9882 57.2189 15.9667 56.9181 15.9667C55.8009 15.9667 55.0427 16.4425 54.6437 17.394V24.4658H52.9402V14.5026H54.5977L54.6253 15.6537C55.1839 14.7635 55.9758 14.3185 57.001 14.3185C57.3325 14.3185 57.5842 14.3614 57.7561 14.4474V16.0312Z" fill="white"/>
<path d="M65.1134 24.4658C65.0152 24.2694 64.9354 23.9195 64.874 23.4161C64.0821 24.2387 63.1367 24.65 62.0379 24.65C61.0557 24.65 60.2484 24.3738 59.6161 23.8213C58.99 23.2626 58.6769 22.5567 58.6769 21.7034C58.6769 20.6659 59.0698 19.8618 59.8555 19.2909C60.6474 18.7138 61.7585 18.4253 63.1889 18.4253H64.8463V17.6426C64.8463 17.0472 64.6683 16.5745 64.3123 16.2246C63.9562 15.8685 63.4314 15.6905 62.7377 15.6905C62.1299 15.6905 61.6204 15.844 61.2091 16.1509C60.7978 16.4578 60.5922 16.8292 60.5922 17.2651H58.8795C58.8795 16.7678 59.0544 16.289 59.4043 15.8286C59.7604 15.3621 60.2392 14.9937 60.8408 14.7236C61.4485 14.4535 62.1146 14.3185 62.839 14.3185C63.9869 14.3185 64.8862 14.607 65.537 15.184C66.1877 15.7549 66.5253 16.5438 66.5498 17.5505V22.1362C66.5498 23.0509 66.6665 23.7783 66.8998 24.3185V24.4658H65.1134ZM62.2865 23.1675C62.8206 23.1675 63.327 23.0294 63.8058 22.7531C64.2846 22.4769 64.6315 22.1178 64.8463 21.6758V19.6316H63.5112C61.424 19.6316 60.3804 20.2424 60.3804 21.464C60.3804 21.9981 60.5584 22.4155 60.9145 22.7163C61.2705 23.0171 61.7279 23.1675 62.2865 23.1675Z" fill="white"/>
<path d="M77.6364 19.5947C77.6364 21.111 77.2896 22.3326 76.5959 23.2596C75.9022 24.1865 74.963 24.65 73.7782 24.65C72.5689 24.65 71.6174 24.2663 70.9237 23.499V28.2964H69.2202V14.5026H70.7764L70.8593 15.6076C71.5529 14.7482 72.5167 14.3185 73.7506 14.3185C74.9477 14.3185 75.893 14.7697 76.5867 15.6721C77.2865 16.5745 77.6364 17.8298 77.6364 19.4382V19.5947ZM75.9329 19.4014C75.9329 18.278 75.6935 17.3909 75.2147 16.7402C74.7359 16.0895 74.079 15.7642 73.2442 15.7642C72.2128 15.7642 71.4394 16.2215 70.9237 17.1362V21.8968C71.4332 22.8053 72.2128 23.2596 73.2626 23.2596C74.079 23.2596 74.7267 22.9373 75.2055 22.2927C75.6905 21.642 75.9329 20.6782 75.9329 19.4014Z" fill="white"/>
<path d="M81.5131 15.7089C82.2681 14.7819 83.2503 14.3185 84.4597 14.3185C86.5653 14.3185 87.6273 15.5063 87.6457 17.882V24.4658H85.9422V17.8728C85.936 17.1546 85.7703 16.6236 85.4449 16.2798C85.1257 15.936 84.6254 15.7642 83.944 15.7642C83.3915 15.7642 82.9066 15.9115 82.4891 16.2061C82.0717 16.5008 81.7463 16.8875 81.5131 17.3664V24.4658H79.8096V10.3221H81.5131V15.7089Z" fill="white"/>
<path d="M100.703 18.1951C100.703 19.4904 100.497 20.6076 100.086 21.5469C99.6746 22.4799 99.0975 23.2105 98.3547 23.7384L100.749 25.6169L99.5426 26.731L96.7157 24.4843C96.2737 24.5948 95.8072 24.65 95.3161 24.65C94.2602 24.65 93.324 24.3922 92.5076 23.8765C91.6911 23.3547 91.0558 22.615 90.6015 21.6574C90.1534 20.6936 89.9232 19.5794 89.9109 18.3148V17.3479C89.9109 16.0588 90.1349 14.9201 90.5831 13.9317C91.0312 12.9434 91.6635 12.1883 92.48 11.6665C93.3025 11.1386 94.2418 10.8746 95.2976 10.8746C96.3781 10.8746 97.3265 11.1355 98.143 11.6573C98.9655 12.1791 99.5978 12.9311 100.04 13.9133C100.482 14.8894 100.703 16.0312 100.703 17.3387V18.1951ZM98.9349 17.3295C98.9349 15.7519 98.6187 14.5364 97.9864 13.6831C97.3603 12.8237 96.464 12.394 95.2976 12.394C94.1865 12.394 93.3087 12.8206 92.6641 13.6739C92.0257 14.5211 91.6973 15.6997 91.6788 17.2098V18.1951C91.6788 19.7298 91.9981 20.9391 92.6365 21.8231C93.2811 22.7071 94.1743 23.1491 95.3161 23.1491C96.4579 23.1491 97.3418 22.7347 97.968 21.906C98.5942 21.0711 98.9164 19.8771 98.9349 18.324V17.3295Z" fill="white"/>
<path d="M105.012 24.4658H103.309V10.3221H105.012V24.4658Z" fill="white"/>
</g>
<defs>
<clipPath id="clip0">
<rect x="0.607422" y="0.809204" width="104.405" height="37" fill="white"/>
</clipPath>
<clipPath id="clip1">
<rect x="0.607422" y="0.809204" width="32.375" height="37" fill="white"/>
</clipPath>
</defs>
</svg>
