<svg width="49" height="49" viewBox="0 0 49 49" fill="none" xmlns="http://www.w3.org/2000/svg">
<g clip-path="url(#clip0)">
<path d="M0.0117188 0.309204H48.0117V48.3092H0.0117188V0.309204Z" fill="white"/>
<path d="M12.633 40.4215L16.3061 38.1985C17.0149 39.4549 17.6595 40.518 19.2058 40.518C20.688 40.518 21.6227 39.9383 21.6227 37.683V22.3459H26.1334V37.7468C26.1334 42.4187 23.3948 44.5453 19.3991 44.5453C15.7907 44.5453 13.6961 42.6765 12.6328 40.4211L12.633 40.4215ZM28.5834 39.9381L32.2562 37.8116C33.2231 39.3906 34.4798 40.5505 36.7028 40.5505C38.5719 40.5505 39.7637 39.616 39.7637 38.3271C39.7637 36.7806 38.5393 36.2327 36.4772 35.3308L35.3498 34.8471C32.0953 33.462 29.9366 31.722 29.9366 28.0489C29.9366 24.6656 32.5142 22.0879 36.5419 22.0879C39.4095 22.0879 41.4716 23.0869 42.9536 25.6967L39.4414 27.9523C38.6679 26.5669 37.8306 26.0192 36.5417 26.0192C35.2206 26.0192 34.3828 26.857 34.3828 27.9523C34.3828 29.3055 35.2206 29.8536 37.1537 30.6913L38.2813 31.1745C42.1157 32.818 44.2744 34.4933 44.2744 38.2628C44.2744 42.3229 41.0846 44.5459 36.7993 44.5459C32.6108 44.5459 29.9042 42.5483 28.5833 39.9383" fill="#00676D"/>
</g>
<defs>
<clipPath id="clip0">
<rect x="0.0117188" y="0.309204" width="48" height="48" fill="white"/>
</clipPath>
</defs>
</svg>
