<svg width="1440" height="296" viewBox="0 0 1440 296" fill="none" xmlns="http://www.w3.org/2000/svg">
<mask id="mask0" mask-type="alpha" maskUnits="userSpaceOnUse" x="0" y="0" width="1440" height="296">
<rect width="1440" height="296" fill="#C4C4C4"/>
</mask>
<g mask="url(#mask0)">
<path d="M0 270C0 270 348 96.0001 722 96C1086 95.9999 1440 270 1440 270V499H0V270Z" fill="#00676D"/>
<path d="M744.999 5.76737C737.638 9.46666 732.889 16.718 730.136 22.3303V24.9001C757.187 16.7936 769.429 9.18357 774.217 5.48682C768.139 3.55883 755.297 0.593839 744.999 5.76737Z" fill="#00676D"/>
<path d="M757.648 30.9354C766.114 26.6814 771.198 17.7499 773.894 11.3564C767.092 15.8528 753.969 22.6865 730.136 29.7217V31.7373C736.952 33.6948 748.278 35.6446 757.648 30.9354Z" fill="#00676D"/>
<path d="M726.551 22.3306C724.194 49.9691 721.757 78.7792 720.194 97.3027H726.551V22.3306Z" fill="#00676D"/>
<path d="M664.818 1C670.444 12.0162 689.531 45.2448 719.974 56.7421C720.069 52.1796 719.575 34.4628 707.256 20.2515C697.779 9.31779 683.492 2.87454 664.818 1Z" fill="#00676D"/>
<path d="M687.567 61.118C696.098 67.6418 706.73 69.5357 719.169 66.8624C719.317 65.1148 719.468 63.3356 719.622 61.5278C691.573 51.5781 672.963 24.9726 664.345 9.92676C666.344 24.558 671.959 49.1791 687.567 61.118Z" fill="#00676D"/>
<path d="M730.136 73.2693C736.999 75.2729 748.422 77.2859 757.881 72.5326C765.747 68.5797 770.69 60.5905 773.515 54.3491C765.861 60.3421 751.786 68.6271 730.136 71.8624V73.2693Z" fill="#00676D"/>
<path d="M745.232 47.3642C737.712 51.1427 732.904 58.6199 730.136 64.4002V67.1832C755.181 63.265 769.488 52.1109 774.727 47.1712C768.767 45.248 755.685 42.1125 745.232 47.3642Z" fill="#00676D"/>
</g>
</svg>
