<svg width="111" height="97" viewBox="0 0 111 97" fill="none" xmlns="http://www.w3.org/2000/svg">
<path d="M80.999 4.76737C73.638 8.46666 68.8886 15.718 66.1357 21.3303V23.9001C93.1875 15.7936 105.429 8.18357 110.217 4.48682C104.139 2.55883 91.2972 -0.406161 80.999 4.76737Z" fill="white"/>
<path d="M93.6483 29.9354C102.114 25.6814 107.198 16.7499 109.894 10.3564C103.092 14.8528 89.9686 21.6865 66.1357 28.7217V30.7373C72.9515 32.6948 84.2779 34.6446 93.6483 29.9354Z" fill="white"/>
<path d="M62.5514 21.3306C60.1938 48.9691 57.7574 77.7792 56.1943 96.3027H62.5514V21.3306Z" fill="white"/>
<path d="M0.818359 0C6.44423 11.0162 25.5305 44.2448 55.974 55.7421C56.0689 51.1796 55.5746 33.4628 43.2564 19.2515C33.7787 8.31779 19.4922 1.87454 0.818359 0Z" fill="white"/>
<path d="M23.5674 60.118C32.0983 66.6418 42.7296 68.5357 55.1691 65.8624C55.3171 64.1148 55.4679 62.3356 55.6216 60.5278C27.5735 50.5781 8.96295 23.9726 0.344727 8.92676C2.34353 23.558 7.95868 48.1791 23.5674 60.118Z" fill="white"/>
<path d="M66.1357 72.2693C72.9989 74.2729 84.4219 76.2859 93.8808 71.5326C101.747 67.5797 106.69 59.5905 109.515 53.3491C101.861 59.3421 87.7862 67.6271 66.1357 70.8624V72.2693Z" fill="white"/>
<path d="M81.2316 46.3642C73.7118 50.1427 68.9041 57.6199 66.1357 63.4002V66.1832C91.1807 62.265 105.488 51.1109 110.727 46.1712C104.767 44.248 91.6849 41.1125 81.2316 46.3642Z" fill="white"/>
</svg>
